SplineFontDB: 3.2
FontName: Paleo
FullName: Paleo
FamilyName: Paleo
Weight: Book
Copyright: Copyright (c) 2020, flavi
Version: 001.000
ItalicAngle: 0
UnderlinePosition: -152
UnderlineWidth: 51
Ascent: 819
Descent: 205
InvalidEm: 0
sfntRevision: 0x00010000
LayerCount: 2
Layer: 0 1 "Back" 1
Layer: 1 1 "Fore" 0
XUID: [1021 477 -754992045 14792]
StyleMap: 0x0000
FSType: 0
OS2Version: 4
OS2_WeightWidthSlopeOnly: 0
OS2_UseTypoMetrics: 1
CreationTime: 1589405284
ModificationTime: 1631308505
PfmFamily: 17
TTFWeight: 400
TTFWidth: 5
LineGap: 92
VLineGap: 0
Panose: 2 0 5 9 0 0 0 0 0 0
OS2TypoAscent: 819
OS2TypoAOffset: 0
OS2TypoDescent: -205
OS2TypoDOffset: 0
OS2TypoLinegap: 92
OS2WinAscent: 833
OS2WinAOffset: 0
OS2WinDescent: 210
OS2WinDOffset: 0
HheadAscent: 833
HheadAOffset: 0
HheadDescent: -210
HheadDOffset: 0
OS2SubXSize: 666
OS2SubYSize: 716
OS2SubXOff: 0
OS2SubYOff: 143
OS2SupXSize: 666
OS2SupYSize: 716
OS2SupXOff: 0
OS2SupYOff: 490
OS2StrikeYSize: 50
OS2StrikeYPos: 264
OS2CapHeight: 800
OS2Vendor: 'PfEd'
OS2CodePages: 00000001.00000000
OS2UnicodeRanges: 00000001.00000000.00000000.00000000
MarkAttachClasses: 1
DEI: 91125
ShortTable: cvt  2
  33
  633
EndShort
ShortTable: maxp 16
  1
  0
  127
  1131
  76
  0
  0
  2
  0
  1
  1
  0
  64
  46
  0
  0
EndShort
LangName: 1033 "" "" "Regular" "FontForge 2.0 : Paleo : 15-5-2020"
GaspTable: 1 65535 2 0
Encoding: UnicodeBmp
UnicodeInterp: none
NameList: AGL For New Fonts
DisplaySize: -96
AntiAlias: 0
FitToEm: 0
WinInfo: 0 20 8
BeginChars: 65539 64

StartChar: .notdef
Encoding: 65536 -1 0
Width: 1024
Flags: W
LayerCount: 2
Fore
SplineSet
34 0 m 1,0,-1
 34 682 l 1,1,-1
 305 682 l 1,2,-1
 305 0 l 1,3,-1
 34 0 l 1,0,-1
68 34 m 1,4,-1
 271 34 l 1,5,-1
 271 648 l 1,6,-1
 68 648 l 1,7,-1
 68 34 l 1,4,-1
EndSplineSet
EndChar

StartChar: exclam
Encoding: 33 33 3
Width: 1024
GlyphClass: 2
Flags: W
LayerCount: 2
Fore
SplineSet
485 805 m 0,0,1
 486 805 486 805 487 805 c 0,2,3
 489 805 489 805 491 805 c 0,4,5
 494 804 494 804 497 800 c 0,6,7
 501 796 501 796 504 788 c 0,8,9
 510 776 510 776 518 748 c 0,10,11
 535 686 535 686 543 619 c 0,12,13
 545 613 545 613 544 600 c 0,14,15
 544 593 544 593 544 584 c 0,16,17
 543 559 543 559 541.5 546 c 128,-1,18
 540 533 540 533 537 506.5 c 128,-1,19
 534 480 534 480 533 468 c 0,20,21
 530 439 530 439 530 418 c 0,22,23
 530 407 530 407 531 398 c 0,24,25
 534 367 534 367 547 353 c 0,26,27
 570 329 570 329 666 296 c 0,28,29
 669 295 669 295 676 293 c 0,30,31
 777 259 777 259 816 231 c 1,32,-1
 817 231 l 1,33,34
 872 192 872 192 930 103 c 0,35,36
 950 72 950 72 964 45 c 0,37,38
 971 32 971 32 972 27 c 0,39,40
 973 23 973 23 973 21 c 0,41,42
 973 20 973 20 973 19 c 2,43,44
 973 19 973 19 972 18 c 0,45,46
 971 16 971 16 972 16 c 1,47,48
 971 14 971 14 968 12 c 128,-1,49
 965 10 965 10 963 10 c 2,50,-1
 962 10 l 1,51,-1
 961 10 l 1,52,53
 960 10 960 10 961 10 c 1,54,55
 960 10 960 10 959 11 c 0,56,57
 953 13 953 13 943 19 c 0,58,59
 935 24 935 24 918 36 c 0,60,61
 907 43 907 43 883.5 60 c 128,-1,62
 860 77 860 77 851 84 c 0,63,64
 749 155 749 155 714 171 c 0,65,66
 671 191 671 191 615 201 c 0,67,68
 566 210 566 210 528 210 c 0,69,70
 523 210 523 210 518 210 c 0,71,72
 478 209 478 209 448 205 c 0,73,74
 401 197 401 197 363 176.5 c 128,-1,75
 325 156 325 156 296.5 128.5 c 128,-1,76
 268 101 268 101 223 49 c 0,77,78
 188 8 188 8 134 0 c 0,79,80
 125 -1 125 -1 117 -2 c 0,81,82
 93 -2 93 -2 68 9 c 0,83,84
 66 10 66 10 63.5 10.5 c 128,-1,85
 61 11 61 11 58.5 12 c 128,-1,86
 56 13 56 13 53 15 c 0,87,88
 51 16 51 16 51 18 c 1,89,-1
 51 18 l 1,90,91
 51 19 51 19 52 20 c 1,92,-1
 52 20 l 1,93,94
 57 31 57 31 57.5 31.5 c 128,-1,95
 58 32 58 32 58 33 c 0,96,97
 59 34 59 34 60 35 c 0,98,99
 68 44 68 44 88 62 c 0,100,101
 101 74 101 74 134 103.5 c 128,-1,102
 167 133 167 133 181 145 c 0,103,104
 330 279 330 279 367 344 c 0,105,106
 408 417 408 417 442 613 c 0,107,108
 447 641 447 641 454.5 686.5 c 128,-1,109
 462 732 462 732 463 739 c 0,110,111
 467 766 467 766 470 781 c 0,112,113
 471 786 471 786 474 793 c 0,114,115
 475 796 475 796 476 798 c 2,116,-1
 477 800 l 1,117,-1
 478 801 l 2,118,119
 478 802 478 802 478.5 802 c 128,-1,120
 479 802 479 802 480 803 c 0,121,122
 482 805 482 805 485 805 c 0,0,1
488 777 m 1,123,-1
 488 777 l 1,124,-1
 488 777 l 1,125,126
 486 767 486 767 481 737 c 0,127,128
 461 612 461 612 460 610 c 0,129,130
 425 410 425 410 383 335 c 0,131,132
 344 267 344 267 193 132 c 0,133,134
 180 120 180 120 160 102 c 128,-1,135
 140 84 140 84 125.5 71 c 128,-1,136
 111 58 111 58 100 48 c 0,137,138
 84 33 84 33 76 25 c 1,139,140
 96 17 96 17 117 16 c 0,141,142
 125 16 125 16 132 18 c 0,143,144
 180 25 180 25 210 61 c 0,145,146
 277 139 277 139 325.5 175 c 128,-1,147
 374 211 374 211 445 223 c 0,148,149
 478 227 478 227 519 228 c 0,150,151
 524 228 524 228 530 229 c 0,152,153
 568 229 568 229 618 220 c 0,154,155
 676 210 676 210 722 188 c 0,156,157
 758 172 758 172 861 99 c 0,158,159
 915 61 915 61 929 51 c 0,160,161
 934 48 934 48 946 40 c 1,162,163
 934 63 934 63 915 92 c 0,164,165
 858 178 858 178 806 216 c 0,166,167
 768 243 768 243 660 279 c 0,168,169
 623 291 623 291 607.5 297 c 128,-1,170
 592 303 592 303 569 315 c 128,-1,171
 546 327 546 327 534 340 c 0,172,173
 516 359 516 359 512 396 c 0,174,175
 511 406 511 406 511 419 c 0,176,177
 511 440 511 440 514 470 c 0,178,179
 515 483 515 483 518.5 509.5 c 128,-1,180
 522 536 522 536 523 548 c 128,-1,181
 524 560 524 560 525 585 c 0,182,183
 525 594 525 594 526 601 c 0,184,185
 526 613 526 613 524 617 c 0,186,187
 517 684 517 684 501 743 c 0,188,189
 495 761 495 761 488 777 c 1,123,-1
EndSplineSet
EndChar

StartChar: quotedbl
Encoding: 34 34 4
Width: 1032
GlyphClass: 2
Flags: W
LayerCount: 2
Fore
SplineSet
409 819 m 0,0,1
 412 819 412 819 415 819 c 0,2,3
 459 819 459 819 513 805 c 0,4,5
 549 796 549 796 565 784 c 0,6,7
 576 777 576 777 577 768 c 0,8,9
 577 767 577 767 576 766 c 2,10,-1
 576 765 l 1,11,12
 577 765 577 765 577.5 764.5 c 128,-1,13
 578 764 578 764 579 764 c 0,14,15
 599 758 599 758 635 741 c 0,16,17
 675 722 675 722 686 700 c 0,18,19
 691 689 691 689 691 677 c 256,20,21
 691 665 691 665 687 652 c 0,22,23
 682 638 682 638 668 636 c 0,24,25
 663 635 663 635 648 636 c 0,26,27
 638 637 638 637 632 634 c 0,28,29
 625 630 625 630 620 617 c 0,30,31
 614 600 614 600 604 552 c 0,32,33
 594 503 594 503 588 452 c 0,34,35
 580 394 580 394 580 360 c 0,36,37
 580 341 580 341 581 332 c 0,38,39
 581 331 581 331 582 331 c 1,40,-1
 582 330 l 1,41,42
 586 335 586 335 586 338 c 0,43,44
 593 351 593 351 608 382 c 0,45,46
 636 443 636 443 666 523 c 0,47,48
 699 613 699 613 712 669 c 0,49,50
 720 702 720 702 720 721 c 0,51,52
 720 730 720 730 719 737 c 0,53,54
 718 741 718 741 716 742 c 0,55,56
 691 760 691 760 691 781 c 0,57,58
 691 782 691 782 691 783 c 0,59,60
 692 795 692 795 701 803 c 128,-1,61
 710 811 710 811 724 813 c 0,62,63
 729 814 729 814 735 814 c 0,64,65
 805 814 805 814 929 709 c 0,66,67
 1028 625 1028 625 1028 540 c 0,68,69
 1028 526 1028 526 1025 511 c 0,70,71
 1020 485 1020 485 1013 478 c 0,72,73
 1007 472 1007 472 1000 474 c 0,74,75
 995 475 995 475 988 478 c 0,76,77
 985 480 985 480 974 488.5 c 128,-1,78
 963 497 963 497 951.5 503.5 c 128,-1,79
 940 510 940 510 926 514 c 0,80,81
 900 522 900 522 871 522 c 128,-1,82
 842 522 842 522 808 511.5 c 128,-1,83
 774 501 774 501 740 468.5 c 128,-1,84
 706 436 706 436 678 385 c 0,85,86
 655 342 655 342 607 270 c 128,-1,87
 559 198 559 198 547 180 c 0,88,89
 500 103 500 103 500 42 c 0,90,91
 500 28 500 28 503 14 c 0,92,93
 504 5 504 5 505 -3 c 1,94,95
 490 -3 490 -3 473 -3 c 1,96,-1
 471 3 l 1,97,98
 445 94 445 94 406 192 c 0,99,100
 373 276 373 276 341 332 c 0,101,102
 302 400 302 400 270 418 c 1,103,-1
 270 418 l 1,104,105
 199 458 199 458 121 480 c 0,106,107
 87 489 87 489 63 491 c 0,108,109
 40 493 40 493 34 489 c 0,110,111
 27 484 27 484 20 486 c 128,-1,112
 13 488 13 488 9 494 c 0,113,114
 4 503 4 503 4 524 c 0,115,116
 4 564 4 564 20 615 c 0,117,118
 35 665 35 665 60 697 c 0,119,120
 72 713 72 713 82 716 c 0,121,122
 90 719 90 719 96 716 c 128,-1,123
 102 713 102 713 106 706 c 0,124,125
 109 699 109 699 127 681 c 0,126,127
 139 669 139 669 168 644 c 0,128,129
 231 588 231 588 244 564 c 1,130,-1
 244 563 l 2,131,132
 245 561 245 561 291 476 c 0,133,134
 297 466 297 466 307 448 c 1,135,136
 307 449 307 449 305 455.5 c 128,-1,137
 303 462 303 462 301 466 c 0,138,139
 282 514 282 514 251 578 c 0,140,141
 218 646 218 646 190 693 c 0,142,143
 174 720 174 720 162 733 c 0,144,145
 150 748 150 748 144 750 c 0,146,147
 133 754 133 754 129 762 c 0,148,149
 125 771 125 771 131 780 c 0,150,151
 140 791 140 791 166 800 c 0,152,153
 203 813 203 813 237 813 c 0,154,155
 258 813 258 813 277 808 c 0,156,157
 284 806 284 806 297.5 802 c 128,-1,158
 311 798 311 798 317 796 c 0,159,160
 359 811 359 811 381 816 c 0,161,162
 392 819 392 819 409 819 c 0,0,1
409 802 m 0,163,164
 394 802 394 802 384 800 c 0,165,166
 378 799 378 799 346 787 c 1,167,168
 350 786 350 786 363 782.5 c 128,-1,169
 376 779 376 779 381 777 c 0,170,171
 392 773 392 773 406 762 c 0,172,173
 407 761 407 761 410.5 759.5 c 128,-1,174
 414 758 414 758 416 757 c 0,175,176
 423 749 423 749 421 740 c 0,177,178
 420 732 420 732 410 726 c 0,179,180
 403 721 403 721 391 694 c 0,181,182
 390 693 390 693 389 690 c 128,-1,183
 388 687 388 687 387 684 c 0,184,185
 375 652 375 652 367 616 c 1,186,187
 396 579 396 579 429 523 c 0,188,189
 439 506 439 506 442 464 c 0,190,191
 443 450 443 450 443 434 c 0,192,193
 443 411 443 411 441 385 c 0,194,195
 438 345 438 345 431 313 c 0,196,197
 427 297 427 297 424 290 c 0,198,199
 422 285 422 285 419 282 c 0,200,201
 415 277 415 277 410 276 c 128,-1,202
 405 275 405 275 401 278 c 0,203,204
 398 280 398 280 395 284 c 0,205,206
 391 289 391 289 386 300 c 0,207,208
 378 318 378 318 369 350 c 0,209,210
 353 405 353 405 341 471 c 0,211,212
 339 485 339 485 339 504 c 0,213,214
 339 546 339 546 351 611 c 0,215,216
 351 613 351 613 350.5 613.5 c 128,-1,217
 350 614 350 614 350 615 c 2,218,-1
 350 616 l 2,219,220
 350 619 350 619 350 623 c 0,221,222
 350 625 350 625 354 639 c 0,223,224
 358 657 358 657 363 673 c 1,225,-1
 363 673 l 1,226,227
 364 676 364 676 366.5 680 c 128,-1,228
 369 684 369 684 370 687 c 0,229,230
 370 688 370 688 370.5 690.5 c 128,-1,231
 371 693 371 693 372 694 c 0,232,233
 374 699 374 699 377.5 704 c 128,-1,234
 381 709 381 709 382 711 c 0,235,236
 383 714 383 714 385.5 718.5 c 128,-1,237
 388 723 388 723 389 727 c 128,-1,238
 390 731 390 731 392.5 734.5 c 128,-1,239
 395 738 395 738 397 740 c 0,240,241
 400 743 400 743 401 743 c 1,242,243
 401 745 401 745 396 749 c 0,244,245
 385 757 385 757 342 771 c 0,246,247
 290 787 290 787 273 792 c 0,248,249
 256 796 256 796 237 796 c 0,250,251
 206 796 206 796 171 784 c 0,252,253
 149 776 149 776 144 770 c 2,254,-1
 143 769 l 1,255,256
 144 768 144 768 150 765 c 0,257,258
 161 761 161 761 175 743 c 128,-1,259
 189 725 189 725 204 702 c 0,260,261
 231 659 231 659 266 585 c 0,262,263
 297 521 297 521 316 473 c 0,264,265
 326 448 326 448 330 435 c 0,266,267
 332 427 332 427 332 423 c 128,-1,268
 332 419 332 419 332 417 c 2,269,-1
 331 415 l 1,270,-1
 331 415 l 1,271,-1
 330 413 l 2,272,273
 329 412 329 412 327 411 c 128,-1,274
 325 410 325 410 324 409 c 0,275,276
 317 408 317 408 310 415 c 0,277,278
 306 419 306 419 300 428 c 0,279,280
 290 442 290 442 276 468 c 0,281,282
 231 553 231 553 230 555 c 1,283,-1
 230 555 l 1,284,285
 217 577 217 577 157 631 c 0,286,287
 129 656 129 656 116 669 c 0,288,289
 95 689 95 689 91 699 c 0,290,291
 90 701 90 701 89 701 c 1,292,-1
 89 701 l 1,293,-1
 88 700 l 2,294,295
 82 698 82 698 73 686 c 0,296,297
 50 656 50 656 36 610 c 0,298,299
 21 562 21 562 21 524 c 0,300,301
 21 508 21 508 24 502 c 0,302,303
 25 502 25 502 25 503 c 0,304,305
 33 509 33 509 50 509 c 0,306,307
 56 509 56 509 64 508 c 0,308,309
 90 506 90 506 125 496 c 0,310,311
 206 474 206 474 278 433 c 0,312,313
 314 413 314 413 355 341 c 0,314,315
 387 285 387 285 422 198 c 0,316,317
 459 105 459 105 485 14 c 1,318,-1
 487 14 l 1,319,320
 484 29 484 29 484 44 c 0,321,322
 484 109 484 109 533 188 c 0,323,324
 545 208 545 208 593 279.5 c 128,-1,325
 641 351 641 351 663 393 c 0,326,327
 686 436 686 436 715.5 466.5 c 128,-1,328
 745 497 745 497 773 512.5 c 128,-1,329
 801 528 801 528 830 534 c 0,330,331
 854 540 854 540 875 540 c 0,332,333
 880 540 880 540 884 540 c 0,334,335
 909 538 909 538 931 530 c 0,336,337
 947 525 947 525 960 518 c 128,-1,338
 973 511 973 511 984.5 502 c 128,-1,339
 996 493 996 493 997 492 c 128,-1,340
 998 491 998 491 1001 491 c 0,341,342
 1005 496 1005 496 1009 515 c 0,343,344
 1011 527 1011 527 1011 539 c 0,345,346
 1011 616 1011 616 918 696 c 0,347,348
 851 753 851 753 802 776 c 0,349,350
 759 797 759 797 734 797 c 0,351,352
 730 797 730 797 726 796 c 0,353,354
 717 795 717 795 712 791 c 0,355,356
 708 787 708 787 708 782 c 0,357,358
 707 769 707 769 726 756 c 0,359,360
 732 752 732 752 735 740 c 0,361,362
 737 732 737 732 737 721 c 0,363,364
 736 701 736 701 728 666 c 0,365,366
 714 606 714 606 682 517 c 0,367,368
 653 437 653 437 624 375 c 0,369,370
 612 348 612 348 601 329 c 0,371,372
 595 319 595 319 592 316 c 0,373,374
 590 314 590 314 588 312 c 128,-1,375
 586 310 586 310 585 310 c 128,-1,376
 584 310 584 310 582 309 c 2,377,-1
 580 309 l 1,378,-1
 579 309 l 2,379,380
 573 310 573 310 569 317 c 0,381,382
 567 321 567 321 565 328 c 0,383,384
 563 340 563 340 563 360 c 0,385,386
 563 397 563 397 571 455 c 0,387,388
 577 503 577 503 588 556 c 0,389,390
 598 607 598 607 604 623 c 0,391,392
 611 642 611 642 625 649 c 0,393,394
 634 654 634 654 648.5 653 c 128,-1,395
 663 652 663 652 665 652 c 0,396,397
 669 653 669 653 671 657 c 0,398,399
 674 668 674 668 674 676.5 c 128,-1,400
 674 685 674 685 671 692 c 0,401,402
 662 709 662 709 627 726 c 0,403,404
 594 742 594 742 574 748 c 0,405,406
 565 751 565 751 564 750 c 0,407,408
 533 733 533 733 506 671 c 0,409,410
 479 608 479 608 479 551 c 0,411,412
 479 546 479 546 479 540 c 2,413,-1
 479 512 l 1,414,-1
 479 511 l 1,415,-1
 480 510 l 1,416,-1
 481 510 l 1,417,418
 485 505 485 505 491 493 c 0,419,420
 507 462 507 462 527 398 c 0,421,422
 542 348 542 348 542 300 c 128,-1,423
 542 252 542 252 527 205 c 0,424,425
 517 171 517 171 501 146 c 0,426,427
 494 136 494 136 487 129 c 0,428,429
 479 121 479 121 472 121 c 128,-1,430
 465 121 465 121 459 129 c 0,431,432
 454 135 454 135 450 143 c 0,433,434
 443 159 443 159 439 183 c 0,435,436
 432 218 432 218 432 245 c 0,437,438
 432 260 432 260 434 273 c 0,439,440
 435 277 435 277 440 307 c 128,-1,441
 445 337 445 337 448 360.5 c 128,-1,442
 451 384 451 384 455.5 418 c 128,-1,443
 460 452 460 452 462 483 c 0,444,445
 463 498 463 498 463 512 c 128,-1,446
 463 526 463 526 462 539 c 1,447,-1
 462 539 l 1,448,449
 462 546 462 546 462 554 c 0,450,451
 462 614 462 614 490 679 c 0,452,453
 502 707 502 707 538 742 c 0,454,455
 541 745 541 745 547 755 c 128,-1,456
 553 765 553 765 557 767 c 2,457,-1
 558 767 l 1,458,-1
 559 768 l 1,459,-1
 559 768 l 1,460,461
 558 769 558 769 556 771 c 0,462,463
 543 780 543 780 509 788 c 0,464,465
 455 802 455 802 409 802 c 0,163,164
366 589 m 1,466,467
 356 522 356 522 356 490 c 0,468,469
 356 481 356 481 357 474 c 0,470,471
 369 410 369 410 385 355 c 0,472,473
 393 326 393 326 401 307 c 0,474,475
 404 300 404 300 408 295 c 1,476,-1
 408 296 l 2,477,478
 411 303 411 303 414 317 c 0,479,480
 421 347 421 347 424 386 c 0,481,482
 426 411 426 411 426 434 c 0,483,484
 426 449 426 449 425 463 c 0,485,486
 423 500 423 500 415 514 c 0,487,488
 395 548 395 548 366 589 c 1,466,467
474 489 m 1,489,490
 468 381 468 381 450 270 c 0,491,492
 448 260 448 260 448 248 c 0,493,494
 448 222 448 222 456 186 c 0,495,496
 461 162 461 162 466 149 c 0,497,498
 469 142 469 142 471 139 c 2,499,-1
 472 138 l 2,500,501
 474 139 474 139 476 141 c 0,502,503
 480 145 480 145 487 155 c 0,504,505
 501 177 501 177 511 210 c 0,506,507
 525 255 525 255 525 300.5 c 128,-1,508
 525 346 525 346 511 393 c 0,509,510
 492 454 492 454 476 486 c 0,511,512
 475 487 475 487 474.5 487.5 c 128,-1,513
 474 488 474 488 474 489 c 1,489,490
EndSplineSet
EndChar

StartChar: numbersign
Encoding: 35 35 5
Width: 1024
GlyphClass: 2
Flags: W
LayerCount: 2
Fore
SplineSet
530 819 m 0,0,1
 632 819 632 819 716 762 c 1,2,-1
 715 763 l 1,3,-1
 718 762 l 1,4,-1
 719 761 l 1,5,-1
 719 761 l 1,6,7
 828 690 828 690 892.5 573 c 128,-1,8
 957 456 957 456 957 320 c 0,9,10
 957 234 957 234 931 154 c 128,-1,11
 905 74 905 74 856 9.5 c 128,-1,12
 807 -55 807 -55 742.5 -103.5 c 128,-1,13
 678 -152 678 -152 598 -178.5 c 128,-1,14
 518 -205 518 -205 432 -205 c 0,15,16
 328 -205 328 -205 234.5 -167 c 128,-1,17
 141 -129 141 -129 70 -60 c 2,18,-1
 67 -57 l 1,19,-1
 67 -53 l 2,20,21
 67 -43 67 -43 68 -25.5 c 128,-1,22
 69 -8 69 -8 84.5 42.5 c 128,-1,23
 100 93 100 93 128 138 c 0,24,25
 189 234 189 234 270 282 c 1,26,27
 196 377 196 377 197 486 c 0,28,29
 197 576 197 576 241.5 653 c 128,-1,30
 286 730 286 730 363 774.5 c 128,-1,31
 440 819 440 819 530 819 c 0,0,1
537 798 m 1,32,33
 540 794 540 794 540 792 c 2,34,-1
 540 791 l 2,35,36
 542 781 542 781 537 773 c 0,37,38
 534 768 534 768 526 761.5 c 128,-1,39
 518 755 518 755 496 742 c 0,40,41
 476 730 476 730 469 725 c 0,42,43
 465 721 465 721 463 718 c 0,44,45
 462 717 462 717 462.5 716 c 128,-1,46
 463 715 463 715 464 715 c 0,47,48
 466 714 466 714 472 712 c 0,49,50
 481 710 481 710 504 709 c 0,51,52
 528 708 528 708 539 705 c 0,53,54
 549 703 549 703 555 699 c 0,55,56
 563 694 563 694 565 685 c 2,57,-1
 565 684 l 2,58,59
 567 675 567 675 562 667 c 0,60,61
 559 662 559 662 551 655 c 0,62,63
 541 647 541 647 521 635 c 128,-1,64
 501 623 501 623 494 618 c 0,65,66
 490 614 490 614 488 611 c 2,67,-1
 487 610 l 1,68,-1
 487 609 l 2,69,70
 487 608 487 608 489 607 c 0,71,72
 491 605 491 605 498 604 c 0,73,74
 508 602 508 602 529 600 c 0,75,76
 554 598 554 598 564 596 c 128,-1,77
 574 594 574 594 580 590 c 0,78,79
 588 585 588 585 590.5 576.5 c 128,-1,80
 593 568 593 568 588 559 c 0,81,82
 584 553 584 553 577 546 c 0,83,84
 568 539 568 539 547 526 c 0,85,86
 540 522 540 522 528 514 c 1,87,88
 533 509 533 509 536 499 c 1,89,-1
 540 498 l 2,90,91
 543 497 543 497 545 495 c 0,92,93
 556 488 556 488 578 467 c 0,94,95
 599 447 599 447 609 440 c 0,96,97
 616 436 616 436 620 435 c 0,98,99
 623 434 623 434 625 435 c 0,100,101
 626 436 626 436 627 439 c 0,102,103
 629 444 629 444 628 452 c 0,104,105
 627 464 627 464 621 493 c 0,106,107
 614 525 614 525 613 538 c 0,108,109
 612 550 612 550 614 558 c 0,110,111
 617 569 617 569 626.5 574.5 c 128,-1,112
 636 580 636 580 647 576 c 0,113,114
 656 573 656 573 665 567 c 0,115,116
 676 559 676 559 699 536 c 0,117,118
 720 515 720 515 731 507 c 0,119,120
 738 502 738 502 742 501 c 0,121,122
 745 500 745 500 747 501 c 128,-1,123
 749 502 749 502 749 505 c 0,124,125
 750 509 750 509 750 518 c 0,126,127
 749 530 749 530 742 560 c 0,128,129
 735 592 735 592 734 605 c 0,130,131
 733 617 733 617 736 625 c 0,132,133
 739 636 739 636 748 641 c 128,-1,134
 757 646 757 646 769 642 c 0,135,136
 777 639 777 639 786 633 c 0,137,138
 796 625 796 625 819 601 c 128,-1,139
 842 577 842 577 850 571 c 0,140,141
 856 566 856 566 862 565 c 0,142,143
 864 564 864 564 865 565 c 128,-1,144
 866 566 866 566 867 567 c 2,145,-1
 868 573 l 1,146,147
 807 678 807 678 708 743 c 1,148,-1
 705 744 l 1,149,150
 630 796 630 796 537 798 c 1,32,33
482 794 m 1,151,152
 393 780 393 780 325 721 c 128,-1,153
 257 662 257 662 231 577 c 1,154,155
 232 578 232 578 233 579.5 c 128,-1,156
 234 581 234 581 235 582.5 c 128,-1,157
 236 584 236 584 237 585 c 0,158,159
 248 602 248 602 256 611 c 0,160,161
 261 617 261 617 267 620 c 0,162,163
 276 625 276 625 284 622 c 0,164,165
 292 620 292 620 297 611 c 0,166,167
 300 605 300 605 301 597 c 0,168,169
 302 590 302 590 301 565 c 0,170,171
 300 547 300 547 301 537 c 0,172,173
 302 531 302 531 303 530 c 0,174,175
 303 529 303 529 304 529 c 2,176,-1
 305 529 l 2,177,178
 308 530 308 530 311 534 c 0,179,180
 316 539 316 539 328 557 c 0,181,182
 342 576 342 576 348 582 c 0,183,184
 353 587 353 587 360 591 c 0,185,186
 369 595 369 595 377 592 c 128,-1,187
 385 589 385 589 390 581 c 0,188,189
 394 575 394 575 395 567 c 0,190,191
 397 557 397 557 396 535 c 0,192,193
 396 515 396 515 397 506 c 0,194,195
 398 501 398 501 399 499 c 0,196,197
 400 498 400 498 401 497 c 1,198,-1
 401 498 l 2,199,200
 404 499 404 499 407 502 c 0,201,202
 412 507 412 507 424 524.5 c 128,-1,203
 436 542 436 542 443 550 c 0,204,205
 449 557 449 557 455 559 c 0,206,207
 464 563 464 563 472 561 c 0,208,209
 485 556 485 556 489 542 c 0,210,211
 490 537 490 537 491 522 c 1,212,213
 497 525 497 525 504 524 c 2,214,-1
 505 524 l 1,215,-1
 505 525 l 1,216,217
 514 533 514 533 536 545 c 0,218,219
 559 559 559 559 563 562 c 128,-1,220
 567 565 567 565 569 569 c 0,221,222
 570 570 570 570 570 571 c 128,-1,223
 570 572 570 572 568 573 c 128,-1,224
 566 574 566 574 560 576 c 0,225,226
 553 578 553 578 528 579 c 0,227,228
 504 580 504 580 492 583 c 0,229,230
 483 585 483 585 477 590 c 0,231,232
 469 596 469 596 467 604.5 c 128,-1,233
 465 613 465 613 469 622 c 0,234,235
 473 629 473 629 480 634 c 0,236,237
 489 642 489 642 510 654 c 0,238,239
 532 666 532 666 538 671 c 0,240,241
 543 675 543 675 544 678 c 0,242,243
 545 679 545 679 545 679.5 c 128,-1,244
 545 680 545 680 543 681 c 0,245,246
 540 683 540 683 535 684 c 0,247,248
 526 686 526 686 503 687 c 0,249,250
 476 688 476 688 468 691 c 0,251,252
 458 693 458 693 452 697 c 0,253,254
 444 702 444 702 442 711 c 128,-1,255
 440 720 440 720 444 729 c 0,256,257
 448 736 448 736 455 741 c 0,258,259
 462 747 462 747 485 760 c 0,260,261
 504 771 504 771 512 777 c 0,262,263
 516 780 516 780 519 785 c 0,264,265
 520 786 520 786 519 786 c 0,266,267
 516 788 516 788 511 789 c 0,268,269
 501 792 501 792 482 794 c 1,151,152
759 623 m 0,270,271
 758 622 758 622 756 619 c 0,272,273
 754 614 754 614 755 606 c 0,274,275
 756 594 756 594 763 564 c 0,276,277
 770 532 770 532 771 519 c 0,278,279
 772 507 772 507 769 499 c 0,280,281
 766 488 766 488 757 483 c 128,-1,282
 748 478 748 478 737 480 c 0,283,284
 728 482 728 482 718 489 c 128,-1,285
 708 496 708 496 684 521 c 0,286,287
 663 542 663 542 653 550 c 0,288,289
 646 555 646 555 641 556 c 0,290,291
 638 557 638 557 637 556 c 128,-1,292
 636 555 636 555 635 552 c 0,293,294
 633 547 633 547 634 539 c 0,295,296
 635 527 635 527 641 498 c 0,297,298
 648 466 648 466 650 453 c 0,299,300
 651 441 651 441 648 433 c 0,301,302
 645 422 645 422 635 416 c 0,303,304
 626 411 626 411 615 414 c 0,305,306
 606 416 606 416 597 422 c 0,307,308
 586 429 586 429 564 451 c 0,309,310
 545 469 545 469 534 476 c 1,311,312
 531 469 531 469 525 465 c 1,313,-1
 525 464 l 1,314,-1
 524 463 l 1,315,316
 523 452 523 452 522 449 c 0,317,318
 517 435 517 435 503 409 c 0,319,320
 488 382 488 382 485 372 c 0,321,322
 483 365 483 365 483 359 c 0,323,324
 483 356 483 356 485 355 c 0,325,326
 486 354 486 354 489 353 c 0,327,328
 495 353 495 353 501 356 c 0,329,330
 511 359 511 359 538 374 c 0,331,332
 564 389 564 389 579 394 c 0,333,334
 590 398 590 398 599 397 c 0,335,336
 611 397 611 397 618 390 c 0,337,338
 626 382 626 382 626 371 c 0,339,340
 626 364 626 364 622 351 c 0,341,342
 617 336 617 336 603 311 c 0,343,344
 588 284 588 284 585 274 c 0,345,346
 583 267 583 267 583 261 c 0,347,348
 583 258 583 258 584.5 256.5 c 128,-1,349
 586 255 586 255 589 255 c 0,350,351
 594 255 594 255 601 257 c 0,352,353
 612 261 612 261 639 275 c 0,354,355
 669 291 669 291 679 294 c 0,356,357
 690 298 690 298 699 298 c 0,358,359
 711 298 711 298 718 290.5 c 128,-1,360
 725 283 725 283 725 271 c 0,361,362
 725 261 725 261 722 250.5 c 128,-1,363
 719 240 719 240 703 210 c 0,364,365
 690 185 690 185 685 173 c 0,366,367
 682 164 682 164 683 160 c 0,368,369
 683 156 683 156 684 155 c 2,370,-1
 685 154 l 2,371,372
 686 153 686 153 689 153 c 0,373,374
 694 153 694 153 702 155 c 0,375,376
 712 158 712 158 738 173 c 0,377,378
 764 187 764 187 779 192 c 0,379,380
 791 196 791 196 799 196 c 0,381,382
 810 196 810 196 818 188 c 0,383,384
 825 181 825 181 825 169 c 0,385,386
 825 161 825 161 821 150 c 0,387,388
 817 138 817 138 801 110 c 0,389,390
 787 85 787 85 783 72 c 0,391,392
 781 65 781 65 781 61 c 0,393,394
 781 58 781 58 782 57 c 2,395,-1
 783 57 l 2,396,397
 784 56 784 56 785 56 c 0,398,399
 789 56 789 56 795 57 c 0,400,401
 804 60 804 60 826 72 c 0,402,403
 850 85 850 85 863 92 c 0,404,405
 875 98 875 98 885 100 c 1,406,407
 936 205 936 205 936 320 c 0,408,409
 936 440 936 440 880 550 c 1,410,411
 876 547 876 547 875 546 c 0,412,413
 866 541 866 541 855 545 c 0,414,415
 847 548 847 548 838 555 c 0,416,417
 828 563 828 563 804 587 c 0,418,419
 783 609 783 609 773 616 c 0,420,421
 766 621 766 621 762 622 c 0,422,423
 760 623 760 623 759 623 c 0,270,271
277 602 m 1,424,425
 275 601 275 601 272 597 c 0,426,427
 266 590 266 590 255 574 c 0,428,429
 243 555 243 555 237 549 c 0,430,431
 231 542 231 542 227 539 c 2,432,-1
 222 538 l 1,433,434
 217 510 217 510 218 486 c 0,435,436
 218 380 218 380 283 295 c 1,437,-1
 488 461 l 1,438,439
 469 471 469 471 469 491 c 0,440,441
 469 496 469 496 472 502 c 1,442,443
 470 510 470 510 469 520 c 0,444,445
 469 533 469 533 468 536 c 128,-1,446
 467 539 467 539 465 540 c 2,447,-1
 464 540 l 2,448,449
 462 539 462 539 459 536 c 0,450,451
 454 531 454 531 442 513 c 0,452,453
 430 496 430 496 422 487 c 0,454,455
 416 480 416 480 410 478 c 0,456,457
 401 474 401 474 393 477 c 128,-1,458
 385 480 385 480 381 488 c 0,459,460
 378 494 378 494 376 502 c 0,461,462
 374 512 374 512 375 535 c 0,463,464
 375 557 375 557 374 563 c 0,465,466
 373 568 373 568 372 571 c 0,467,468
 372 572 372 572 370 572 c 2,469,-1
 369 572 l 2,470,471
 367 571 367 571 363 567 c 0,472,473
 358 562 358 562 345.5 544.5 c 128,-1,474
 333 527 333 527 326 519 c 0,475,476
 320 513 320 513 314 510 c 0,477,478
 305 506 305 506 297 509 c 128,-1,479
 289 512 289 512 285 520 c 0,480,481
 282 526 282 526 280 535 c 0,482,483
 279 545 279 545 280 566.5 c 128,-1,484
 281 588 281 588 280 595 c 0,485,486
 280 598 280 598 277 601 c 2,487,-1
 277 602 l 1,488,-1
 277 602 l 1,424,425
509 499 m 1,489,-1
 496 495 l 1,490,-1
 493 484 l 1,491,492
 497 478 497 478 504 478 c 0,493,494
 505 478 505 478 509 480 c 2,495,-1
 514 484 l 2,496,497
 514 485 514 485 515 487 c 2,498,-1
 509 499 l 1,489,-1
493 438 m 1,499,-1
 296 278 l 1,500,-1
 298 276 l 1,501,-1
 287 270 l 2,502,503
 278 265 278 265 263.5 254.5 c 128,-1,504
 249 244 249 244 211.5 207 c 128,-1,505
 174 170 174 170 146 127 c 0,506,507
 119 85 119 85 105 40 c 128,-1,508
 91 -5 91 -5 90 -20.5 c 128,-1,509
 89 -36 89 -36 89 -47 c 1,510,511
 157 -112 157 -112 245.5 -147.5 c 128,-1,512
 334 -183 334 -183 432 -183 c 0,513,514
 571 -183 571 -183 688 -114 c 128,-1,515
 805 -45 805 -45 871 72 c 1,516,517
 865 69 865 69 837 54 c 0,518,519
 815 42 815 42 801 37 c 0,520,521
 791 34 791 34 785 35 c 0,522,523
 775 35 775 35 768 42 c 128,-1,524
 761 49 761 49 760 60 c 0,525,526
 760 69 760 69 763 80 c 0,527,528
 767 91 767 91 783 120 c 0,529,530
 796 144 796 144 801 157 c 0,531,532
 804 165 804 165 804 169 c 0,533,534
 804 172 804 172 802 173 c 0,535,536
 800 175 800 175 798 175 c 0,537,538
 794 175 794 175 786 172 c 0,539,540
 774 168 774 168 749 155 c 0,541,542
 720 139 720 139 708 135 c 0,543,544
 697 131 697 131 689 132 c 0,545,546
 677 132 677 132 670 140 c 1,547,-1
 669 140 l 1,548,-1
 669 140 l 1,549,550
 662 148 662 148 661 159 c 0,551,552
 661 167 661 167 665 179 c 0,553,554
 670 193 670 193 684 221 c 0,555,556
 699 248 699 248 702 258 c 0,557,558
 704 265 704 265 704 270 c 0,559,560
 704 273 704 273 702.5 274.5 c 128,-1,561
 701 276 701 276 698 276 c 0,562,563
 693 276 693 276 686 274 c 0,564,565
 675 270 675 270 648 256 c 0,566,567
 618 240 618 240 608 237 c 0,568,569
 597 233 597 233 588 234 c 0,570,571
 577 234 577 234 569 242 c 0,572,573
 562 249 562 249 562 261 c 0,574,575
 562 270 562 270 565 280 c 128,-1,576
 568 290 568 290 584 320 c 0,577,578
 597 344 597 344 602 358 c 0,579,580
 605 367 605 367 605 370 c 128,-1,581
 605 373 605 373 603 374.5 c 128,-1,582
 601 376 601 376 598 376 c 0,583,584
 593 376 593 376 586 374 c 0,585,586
 575 370 575 370 549 356 c 0,587,588
 519 340 519 340 509 335 c 0,589,590
 499 331 499 331 488 332 c 0,591,592
 476 332 476 332 469 339.5 c 128,-1,593
 462 347 462 347 462 359 c 0,594,595
 462 368 462 368 465 378 c 0,596,597
 470 392 470 392 484 419 c 0,598,599
 485 421 485 421 486 423 c 128,-1,600
 487 425 487 425 488 427 c 128,-1,601
 489 429 489 429 490 430.5 c 128,-1,602
 491 432 491 432 491.5 434 c 128,-1,603
 492 436 492 436 493 438 c 1,499,-1
EndSplineSet
EndChar

StartChar: dollar
Encoding: 36 36 6
Width: 1024
GlyphClass: 2
Flags: W
LayerCount: 2
Fore
SplineSet
611 819 m 0,0,1
 626 819 626 819 640 807 c 0,2,3
 652 796 652 796 660 778 c 0,4,5
 677 741 677 741 677 690 c 128,-1,6
 677 639 677 639 636 562 c 0,7,8
 596 487 596 487 540 431 c 0,9,10
 488 379 488 379 480 312 c 0,11,12
 472 247 472 247 512 207 c 0,13,14
 558 161 558 161 589 87 c 128,-1,15
 620 13 620 13 620 -50 c 0,16,17
 620 -112 620 -112 603 -156 c 0,18,19
 595 -178 595 -178 584 -190 c 0,20,21
 571 -205 571 -205 554 -205 c 0,22,23
 539 -205 539 -205 525 -190 c 0,24,25
 514 -178 514 -178 506 -156 c 0,26,27
 489 -111 489 -111 489 -50 c 0,28,29
 489 7 489 7 459 78.5 c 128,-1,30
 429 150 429 150 387 192 c 0,31,32
 339 238 339 238 348 314 c 0,33,34
 357 387 357 387 415 445 c 0,35,36
 468 498 468 498 508 573 c 0,37,38
 546 645 546 645 546 690 c 0,39,40
 546 741 546 741 563 778 c 0,41,42
 572 797 572 797 583 807 c 0,43,44
 595 819 595 819 611 819 c 0,0,1
611 798 m 128,-1,46
 604 798 604 798 597 791 c 0,47,48
 589 783 589 783 582 769 c 0,49,50
 567 736 567 736 567 690 c 0,51,52
 567 639 567 639 526 562 c 0,53,54
 486 487 486 487 430 431 c 0,55,56
 378 379 378 379 370 311 c 0,57,58
 362 245 362 245 402 207 c 0,59,60
 448 161 448 161 479 87 c 128,-1,61
 510 13 510 13 510 -50 c 0,62,63
 510 -108 510 -108 525 -149 c 0,64,65
 532 -167 532 -167 541 -176 c 0,66,67
 548 -184 548 -184 554.5 -184 c 128,-1,68
 561 -184 561 -184 568 -176 c 0,69,70
 576 -167 576 -167 583 -148 c 0,71,72
 599 -107 599 -107 599 -50 c 128,-1,73
 599 7 599 7 568.5 79 c 128,-1,74
 538 151 538 151 497 192 c 0,75,76
 450 239 450 239 459 315 c 0,77,78
 468 388 468 388 525 445 c 0,79,80
 578 498 578 498 618 573 c 0,81,82
 656 645 656 645 656 690 c 128,-1,83
 656 735 656 735 640 769 c 0,84,85
 633 784 633 784 625 791 c 0,86,45
 618 798 618 798 611 798 c 128,-1,46
EndSplineSet
EndChar

StartChar: percent
Encoding: 37 37 7
Width: 1024
GlyphClass: 2
Flags: W
LayerCount: 2
Fore
SplineSet
506 819 m 1,0,-1
 507 819 l 1,1,-1
 510 819 l 1,2,3
 546 814 546 814 580 773 c 0,4,5
 612 734 612 734 612 702 c 2,6,-1
 612 614 l 1,7,8
 625 604 625 604 647 589 c 0,9,10
 665 577 665 577 677 569 c 0,11,12
 686 564 686 564 689 563 c 0,13,14
 690 562 690 562 694 561 c 0,15,16
 695 562 695 562 698 565 c 0,17,18
 706 572 706 572 713 579 c 128,-1,19
 720 586 720 586 734.5 603 c 128,-1,20
 749 620 749 620 753 625 c 0,21,22
 780 656 780 656 795 669 c 0,23,24
 806 678 806 678 814 683 c 0,25,26
 826 689 826 689 835 684 c 0,27,28
 841 681 841 681 842 674 c 0,29,30
 843 670 843 670 842 662 c 0,31,32
 840 652 840 652 834 637 c 0,33,34
 823 611 823 611 798 572 c 128,-1,35
 773 533 773 533 755 508 c 0,36,37
 747 498 747 498 736 487 c 0,38,39
 726 476 726 476 720 474 c 1,40,-1
 720 474 l 1,41,42
 711 471 711 471 692 475 c 0,43,44
 679 477 679 477 659 482 c 0,45,46
 655 483 655 483 636 490 c 1,47,48
 665 438 665 438 665 392 c 0,49,50
 665 384 665 384 664 376 c 0,51,52
 657 319 657 319 634 275 c 1,53,54
 683 250 683 250 732 217 c 0,55,56
 779 186 779 186 804 163 c 0,57,58
 819 148 819 148 827 135 c 0,59,60
 836 120 836 120 835 107 c 0,61,62
 832 84 832 84 813 65 c 0,63,64
 799 52 799 52 771 38 c 0,65,66
 764 35 764 35 749 27 c 128,-1,67
 734 19 734 19 726.5 14.5 c 128,-1,68
 719 10 719 10 709.5 4 c 128,-1,69
 700 -2 700 -2 696 -7 c 0,70,71
 668 -38 668 -38 634 -87 c 1,72,73
 667 -106 667 -106 692 -125 c 0,74,75
 721 -146 721 -146 734 -161 c 0,76,77
 742 -171 742 -171 744 -180 c 0,78,79
 747 -193 747 -193 736 -200 c 0,80,81
 728 -206 728 -206 713 -205 c 0,82,83
 701 -204 701 -204 688 -199 c 0,84,85
 664 -191 664 -191 629 -170 c 0,86,87
 600 -152 600 -152 578 -133 c 0,88,89
 567 -124 567 -124 561 -117 c 0,90,91
 553 -107 553 -107 553 -100 c 0,92,93
 553 -90 553 -90 557 -72 c 0,94,95
 562 -52 562 -52 569 -33 c 0,96,97
 588 19 588 19 610 43 c 0,98,99
 635 72 635 72 693 114 c 1,100,101
 684 119 684 119 681 121 c 0,102,103
 659 131 659 131 646 131 c 0,104,105
 644 131 644 131 642 131 c 0,106,107
 635 130 635 130 628 130 c 0,108,109
 606 130 606 130 581 137 c 0,110,111
 553 144 553 144 534 165 c 1,112,-1
 483 165 l 1,113,114
 464 145 464 145 436 137 c 0,115,116
 410 130 410 130 389 130 c 0,117,118
 382 130 382 130 375 131 c 0,119,120
 373 131 373 131 370 131 c 0,121,122
 356 131 356 131 335 122 c 0,123,124
 331 120 331 120 323 115 c 1,125,126
 379 73 379 73 407 43 c 0,127,128
 429 18 429 18 448 -33 c 0,129,130
 455 -52 455 -52 459 -72 c 0,131,132
 463 -90 463 -90 464 -100 c 0,133,134
 464 -108 464 -108 456 -117 c 0,135,136
 451 -123 451 -123 439 -133 c 0,137,138
 417 -152 417 -152 387 -170 c 0,139,140
 353 -191 353 -191 329 -199 c 0,141,142
 315 -204 315 -204 303 -205 c 0,143,144
 289 -206 289 -206 281 -200 c 0,145,146
 270 -193 270 -193 273 -180 c 0,147,148
 275 -172 275 -172 283 -161 c 0,149,150
 295 -146 295 -146 324 -125 c 0,151,152
 350 -106 350 -106 383 -87 c 1,153,154
 349 -37 349 -37 321 -7 c 0,155,156
 317 -1 317 -1 307.5 5 c 128,-1,157
 298 11 298 11 291 15 c 128,-1,158
 284 19 284 19 268 27 c 128,-1,159
 252 35 252 35 246 38 c 0,160,161
 218 52 218 52 205 65 c 0,162,163
 201 68 201 68 198 72 c 128,-1,164
 195 76 195 76 192 80 c 128,-1,165
 189 84 189 84 187 88 c 128,-1,166
 185 92 185 92 183.5 96.5 c 128,-1,167
 182 101 182 101 181 106 c 0,168,169
 179 119 179 119 189 135 c 0,170,171
 196 147 196 147 213 163 c 0,172,173
 239 188 239 188 284 217 c 0,174,175
 333 249 333 249 382 275 c 1,176,177
 359 320 359 320 353 376 c 1,178,-1
 353 376 l 1,179,180
 352 383 352 383 352 390 c 0,181,182
 352 436 352 436 380 490 c 1,183,184
 364 484 364 484 358 482 c 0,185,186
 340 477 340 477 326 474 c 0,187,188
 307 471 307 471 298 474 c 0,189,190
 293 475 293 475 283 485 c 128,-1,191
 273 495 273 495 266 505 c 0,192,193
 247 529 247 529 226 561 c 0,194,195
 204 596 204 596 195 620 c 0,196,197
 189 635 189 635 188 642 c 0,198,199
 187 647 187 647 189 653 c 0,200,201
 191 660 191 660 196 663 c 0,202,203
 205 668 205 668 216 663 c 0,204,205
 224 660 224 660 234 652 c 0,206,207
 247 642 247 642 271 615 c 0,208,209
 275 610 275 610 282.5 601.5 c 128,-1,210
 290 593 290 593 295.5 587 c 128,-1,211
 301 581 301 581 306 576 c 0,212,213
 313 569 313 569 319 564 c 0,214,215
 321 563 321 563 323 562 c 1,216,-1
 322 561 l 1,217,218
 323 561 323 561 327 563 c 0,219,220
 330 564 330 564 339 569 c 0,221,222
 351 576 351 576 369 589 c 0,223,224
 391 604 391 604 405 615 c 1,225,-1
 405 702 l 2,226,227
 405 734 405 734 436 773 c 0,228,229
 470 815 470 815 506 819 c 1,0,-1
508 800 m 1,230,231
 480 797 480 797 451 761 c 0,232,233
 424 727 424 727 424 702 c 2,234,-1
 424 605 l 1,235,-1
 420 602 l 2,236,237
 401 588 401 588 380 573 c 0,238,239
 363 562 363 562 348 553 c 0,240,241
 338 547 338 547 334 545 c 0,242,243
 327 542 327 542 322 542 c 0,244,245
 315 542 315 542 307 549 c 0,246,247
 303 553 303 553 292 563 c 0,248,249
 283 572 283 572 257 602 c 0,250,251
 232 629 232 629 222 637 c 0,252,253
 215 643 215 643 209 645 c 0,254,255
 208 645 208 645 207 646 c 1,256,-1
 207 645 l 2,257,258
 208 638 208 638 212 626 c 0,259,260
 221 605 221 605 242 571 c 0,261,262
 260 542 260 542 281 517 c 0,263,264
 293 503 293 503 296 498 c 0,265,266
 301 493 301 493 304 493 c 1,267,-1
 304 492 l 1,268,269
 309 490 309 490 323 493 c 0,270,271
 335 495 335 495 352 500 c 2,272,-1
 390 513 l 1,273,-1
 415 523 l 1,274,-1
 402 499 l 2,275,276
 398 492 398 492 392 480 c 128,-1,277
 386 468 386 468 378 436 c 0,278,279
 371 412 371 412 371 392 c 0,280,281
 371 385 371 385 372 378 c 0,282,283
 375 351 375 351 382.5 325 c 128,-1,284
 390 299 390 299 396 287 c 2,285,-1
 402 275 l 1,286,-1
 407 266 l 1,287,-1
 398 261 l 2,288,289
 346 234 346 234 294 201 c 0,290,291
 249 172 249 172 226 149 c 0,292,293
 211 135 211 135 205 126 c 0,294,295
 199 116 199 116 200 109 c 0,296,297
 202 93 202 93 217 79 c 0,298,299
 230 67 230 67 255 55 c 0,300,301
 262 51 262 51 277 44 c 128,-1,302
 292 37 292 37 300 32.5 c 128,-1,303
 308 28 308 28 318.5 21 c 128,-1,304
 329 14 329 14 335 6 c 0,305,306
 349 -10 349 -10 366.5 -32.5 c 128,-1,307
 384 -55 384 -55 394 -69 c 2,308,-1
 404 -84 l 1,309,-1
 410 -92 l 1,310,-1
 401 -98 l 2,311,312
 366 -118 366 -118 335 -140 c 0,313,314
 308 -160 308 -160 297 -173 c 0,315,316
 291 -180 291 -180 291 -184 c 0,317,318
 291 -185 291 -185 292 -185 c 0,319,320
 294 -187 294 -187 302 -186 c 0,321,322
 311 -185 311 -185 323 -181 c 0,323,324
 347 -173 347 -173 377 -154 c 0,325,326
 404 -138 404 -138 426 -119 c 0,327,328
 437 -110 437 -110 442 -105 c 0,329,330
 444 -103 444 -103 445 -99 c 1,331,-1
 445 -100 l 1,332,333
 445 -93 445 -93 441 -77 c 0,334,335
 436 -57 436 -57 430 -39 c 0,336,337
 412 10 412 10 392 31 c 0,338,339
 384 40 384 40 371.5 51.5 c 128,-1,340
 359 63 359 63 347 72.5 c 128,-1,341
 335 82 335 82 324.5 90.5 c 128,-1,342
 314 99 314 99 308 104 c 2,343,-1
 301 109 l 1,344,-1
 291 117 l 1,345,-1
 302 124 l 2,346,347
 313 132 313 132 327 139 c 0,348,349
 352 151 352 151 369 151 c 0,350,351
 373 151 373 151 376 150 c 0,352,353
 383 149 383 149 390 149 c 0,354,355
 409 149 409 149 431 155 c 0,356,357
 465 164 465 164 475 180 c 2,358,-1
 478 184 l 1,359,-1
 516 184 l 1,360,-1
 539 184 l 1,361,-1
 535 168 l 1,362,-1
 539 184 l 1,363,-1
 542 180 l 2,364,365
 553 164 553 164 586 155 c 0,366,367
 608 149 608 149 626 149 c 0,368,369
 633 149 633 149 640 150 c 0,370,371
 642 150 642 150 645 150 c 0,372,373
 663 150 663 150 690 138 c 2,374,-1
 715 125 l 1,375,-1
 726 117 l 1,376,-1
 715 109 l 2,377,378
 652 64 652 64 625 31 c 1,379,-1
 624 31 l 1,380,381
 604 9 604 9 587 -39 c 0,382,383
 581 -57 581 -57 575 -77 c 0,384,385
 571 -93 571 -93 572 -100 c 1,386,-1
 572 -99 l 1,387,388
 573 -102 573 -102 575 -105 c 0,389,390
 579 -110 579 -110 590 -119 c 0,391,392
 611 -137 611 -137 640 -154 c 0,393,394
 672 -173 672 -173 694 -181 c 0,395,396
 705 -185 705 -185 715 -186 c 0,397,398
 722 -187 722 -187 725 -185 c 0,399,400
 726 -185 726 -185 725 -184 c 0,401,402
 724 -180 724 -180 719 -173 c 0,403,404
 708 -159 708 -159 681 -140 c 0,405,406
 667 -130 667 -130 651 -119.5 c 128,-1,407
 635 -109 635 -109 625 -103 c 2,408,-1
 615 -98 l 1,409,-1
 607 -92 l 1,410,-1
 612 -84 l 2,411,412
 649 -28 649 -28 682 7 c 0,413,414
 690 16 690 16 702 23.5 c 128,-1,415
 714 31 714 31 735.5 41 c 128,-1,416
 757 51 757 51 762 54 c 0,417,418
 787 67 787 67 800 79 c 0,419,420
 815 93 815 93 817 109 c 0,421,422
 818 116 818 116 811.5 126 c 128,-1,423
 805 136 805 136 791 149 c 0,424,425
 768 171 768 171 722 201 c 0,426,427
 699 216 699 216 673.5 231 c 128,-1,428
 648 246 648 246 633 254 c 2,429,-1
 619 261 l 1,430,-1
 610 266 l 1,431,-1
 615 275 l 2,432,433
 638 318 638 318 645 378 c 0,434,435
 646 385 646 385 646 393 c 0,436,437
 646 402 646 402 644 413 c 0,438,439
 642 432 642 432 637 446.5 c 128,-1,440
 632 461 632 461 627 473.5 c 128,-1,441
 622 486 622 486 619 492 c 2,442,-1
 615 499 l 1,443,-1
 601 522 l 1,444,-1
 626 513 l 2,445,446
 644 507 644 507 665 501 c 0,447,448
 683 496 683 496 695 493 c 0,449,450
 709 491 709 491 714 493 c 0,451,452
 715 493 715 493 722 500 c 0,453,454
 731 510 731 510 740 520 c 0,455,456
 759 544 759 544 782 582 c 0,457,458
 807 621 807 621 817 645 c 0,459,460
 823 658 823 658 824 665 c 2,461,-1
 824 666 l 1,462,-1
 823 666 l 2,463,464
 819 664 819 664 808 655 c 0,465,466
 792 641 792 641 767 612 c 0,467,468
 730 569 730 569 727 567 c 0,469,470
 715 554 715 554 711 550 c 0,471,472
 709 548 709 548 704 545 c 128,-1,473
 699 542 699 542 695 542 c 0,474,475
 689 542 689 542 682 545 c 0,476,477
 679 546 679 546 668 553 c 0,478,479
 652 562 652 562 636 573 c 2,480,-1
 596 603 l 1,481,-1
 593 605 l 1,482,-1
 593 702 l 2,483,484
 593 726 593 726 565 761 c 0,485,486
 536 797 536 797 508 800 c 1,487,-1
 508 800 l 1,230,231
EndSplineSet
EndChar

StartChar: ampersand
Encoding: 38 38 8
Width: 1024
GlyphClass: 2
Flags: W
LayerCount: 2
Fore
SplineSet
652 819 m 0,0,1
 664 819 664 819 676 817 c 0,2,3
 727 809 727 809 758 772 c 0,4,5
 794 729 794 729 797 657 c 0,6,7
 798 619 798 619 754 558 c 0,8,9
 721 512 721 512 659 451 c 0,10,11
 658 450 658 450 659 450 c 0,12,13
 725 492 725 492 774 513 c 0,14,15
 842 542 842 542 882 535 c 0,16,17
 926 527 926 527 964 494 c 128,-1,18
 1002 461 1002 461 1017 416 c 0,19,20
 1033 367 1033 367 1014 322 c 0,21,22
 993 271 993 271 930 235 c 0,23,24
 897 216 897 216 823 227 c 0,25,26
 774 234 774 234 700 257 c 1,27,28
 760 228 760 228 797 202 c 0,29,30
 859 160 859 160 874 123 c 1,31,-1
 874 122 l 1,32,33
 891 81 891 81 883 31.5 c 128,-1,34
 875 -18 875 -18 845 -55 c 0,35,36
 812 -96 812 -96 764 -103 c 0,37,38
 710 -112 710 -112 647 -79 c 0,39,40
 614 -61 614 -61 583 8 c 0,41,42
 568 43 568 43 550 100 c 1,43,44
 552 51 552 51 550 17 c 0,45,46
 544 -57 544 -57 519 -90 c 0,47,48
 491 -125 491 -125 444 -143 c 128,-1,49
 397 -161 397 -161 351 -154 c 0,50,51
 300 -146 300 -146 268 -109 c 0,52,53
 233 -67 233 -67 230 6 c 0,54,55
 229 45 229 45 273 106 c 0,56,57
 306 152 306 152 367 212 c 0,58,59
 386 231 386 231 400 245 c 1,60,61
 382 231 382 231 371 224 c 0,62,63
 303 180 303 180 250 157 c 0,64,65
 182 128 182 128 142 135 c 0,66,67
 98 143 98 143 60.5 176.5 c 128,-1,68
 23 210 23 210 8 255 c 0,69,70
 -9 304 -9 304 10 349 c 0,71,72
 31 400 31 400 93 436 c 0,73,74
 126 455 126 455 200 444 c 0,75,76
 215 442 215 442 252 433 c 1,77,78
 223 450 223 450 217 455 c 0,79,80
 156 497 156 497 141 534 c 0,81,82
 124 575 124 575 132 625 c 128,-1,83
 140 675 140 675 169 712 c 0,84,85
 201 752 201 752 250 760 c 0,86,87
 304 769 304 769 368 735 c 0,88,89
 401 717 401 717 432 649 c 0,90,91
 456 596 456 596 477 513 c 0,92,93
 478 509 478 509 479.5 503.5 c 128,-1,94
 481 498 481 498 482 495 c 1,95,96
 482 499 482 499 481.5 499.5 c 128,-1,97
 481 500 481 500 480 507 c 0,98,99
 472 590 472 590 477 646 c 0,100,101
 483 720 483 720 508 753 c 0,102,103
 532 784 532 784 571 802 c 128,-1,104
 610 820 610 820 652 819 c 0,0,1
652 799 m 0,105,106
 628 799 628 799 603.5 792 c 128,-1,107
 579 785 579 785 558 771.5 c 128,-1,108
 537 758 537 758 524 741 c 0,109,110
 502 713 502 713 497 645 c 0,111,112
 493 591 493 591 500 509 c 0,113,114
 504 464 504 464 511 424 c 1,115,116
 549 424 549 424 575 397 c 1,117,118
 596 416 596 416 646 465 c 0,119,120
 706 525 706 525 738 569 c 0,121,122
 778 624 778 624 777 656 c 0,123,124
 774 721 774 721 743 758 c 0,125,126
 716 790 716 790 673 797 c 0,127,128
 662 799 662 799 652 799 c 0,105,106
276 742 m 0,129,130
 264 742 264 742 254 741 c 0,131,132
 213 734 213 734 185 699 c 0,133,134
 159 667 159 667 152 622 c 128,-1,135
 145 577 145 577 159 542 c 0,136,137
 172 509 172 509 228 471 c 0,138,139
 271 441 271 441 338 410 c 0,140,141
 339 410 339 410 339 409 c 0,142,143
 382 395 382 395 429 378 c 1,144,145
 446 408 446 408 478 419 c 1,146,147
 469 463 469 463 458 509 c 0,148,149
 437 591 437 591 414 641 c 0,150,151
 386 704 386 704 359 718 c 0,152,153
 314 741 314 741 276 742 c 0,129,130
859 517 m 0,154,155
 828 515 828 515 782 495 c 0,156,157
 729 472 729 472 663 430 c 0,158,159
 625 406 625 406 590 380 c 1,160,161
 590 380 590 380 590 378 c 2,162,163
 590 378 590 378 590 377 c 0,164,165
 602 355 602 355 602 332 c 0,166,167
 602 323 602 323 600 314 c 2,168,169
 600 314 600 314 600 313 c 0,170,171
 645 295 645 295 691 280 c 0,172,173
 770 255 770 255 826 247 c 0,174,175
 893 237 893 237 921 252 c 0,176,177
 978 284 978 284 996 329 c 0,178,179
 1012 368 1012 368 998 410 c 0,180,181
 985 449 985 449 951 479 c 128,-1,182
 917 509 917 509 879 516 c 0,183,184
 870 518 870 518 859 517 c 0,154,155
142 427 m 128,-1,186
 117 426 117 426 103 419 c 0,187,188
 46 386 46 386 28 341 c 0,189,190
 12 303 12 303 26 261 c 0,191,192
 39 222 39 222 73 192 c 128,-1,193
 107 162 107 162 145 155 c 0,194,195
 180 148 180 148 242 176 c 0,196,197
 293 198 293 198 361 241 c 0,198,199
 393 262 393 262 429 288 c 1,200,201
 417 309 417 309 417 332 c 0,202,203
 417 343 417 343 419 353 c 1,204,205
 374 371 374 371 338 388 c 0,206,207
 337 389 337 389 335 389.5 c 128,-1,208
 333 390 333 390 332 391 c 0,209,210
 253 416 253 416 198 424 c 0,211,185
 167 428 167 428 142 427 c 128,-1,186
510 405 m 128,-1,213
 480 405 480 405 458.5 383.5 c 128,-1,214
 437 362 437 362 437 332 c 0,215,216
 437 313 437 313 447.5 296.5 c 128,-1,217
 458 280 458 280 475 271 c 128,-1,218
 492 262 492 262 512 262 c 0,219,220
 542 262 542 262 562 282 c 128,-1,221
 582 302 582 302 582 332 c 128,-1,222
 582 362 582 362 561 383.5 c 128,-1,212
 540 405 540 405 510 405 c 128,-1,213
589 284 m 1,223,224
 571 254 571 254 536 244 c 1,225,226
 544 198 544 198 557 148 c 0,227,228
 579 65 579 65 601 16 c 0,229,230
 629 -46 629 -46 656 -61 c 0,231,232
 714 -92 714 -92 761 -84 c 0,233,234
 802 -77 802 -77 830 -42 c 0,235,236
 856 -10 856 -10 863 35 c 128,-1,237
 870 80 870 80 856 115 c 0,238,239
 843 147 843 147 786 186 c 0,240,241
 740 217 740 217 667 251 c 0,242,243
 627 269 627 269 589 284 c 1,223,224
450 262 m 1,244,245
 412 229 412 229 381 198 c 0,246,247
 321 138 321 138 289 94 c 0,248,249
 249 39 249 39 250 7 c 0,250,251
 253 -59 253 -59 284 -96 c 0,252,253
 310 -128 310 -128 354 -134 c 0,254,255
 381 -138 381 -138 409.5 -132 c 128,-1,256
 438 -126 438 -126 463 -112 c 128,-1,257
 488 -98 488 -98 503 -78 c 0,258,259
 525 -50 525 -50 530 18 c 0,260,261
 534 75 534 75 527 154 c 0,262,263
 523 200 523 200 516 241 c 0,264,265
 515 241 515 241 513 240.5 c 128,-1,266
 511 240 511 240 510 240 c 0,267,268
 476 240 476 240 450 262 c 1,244,245
EndSplineSet
EndChar

StartChar: quotesingle
Encoding: 39 39 9
Width: 1024
GlyphClass: 2
Flags: W
LayerCount: 2
Fore
SplineSet
290 819 m 1,0,-1
 472 475 l 1,1,2
 479 486 479 486 487 492 c 1,3,4
 480 499 480 499 475 505 c 0,5,6
 462 528 462 528 462 560 c 128,-1,7
 462 592 462 592 475 614 c 0,8,9
 490 640 490 640 513 640 c 128,-1,10
 536 640 536 640 550 614 c 0,11,12
 563 591 563 591 564 560 c 0,13,14
 564 528 564 528 550 505 c 0,15,16
 546 498 546 498 539 491 c 1,17,18
 547 485 547 485 553 475 c 1,19,-1
 734 819 l 1,20,-1
 753 810 l 1,21,-1
 579 437 l 1,22,-1
 839 690 l 1,23,-1
 854 675 l 1,24,-1
 570 374 l 1,25,26
 568 362 568 362 564 353 c 1,27,-1
 802 24 l 1,28,-1
 785 12 l 1,29,-1
 572 279 l 1,30,31
 585 250 585 250 586 214 c 1,32,-1
 600 205 l 1,33,-1
 662 -201 l 1,34,-1
 641 -205 l 1,35,-1
 572 139 l 1,36,37
 568 130 568 130 566 127 c 0,38,39
 544 90 544 90 513 90 c 0,40,41
 481 90 481 90 459 127 c 0,42,43
 458 129 458 129 454 138 c 1,44,-1
 383 -205 l 1,45,-1
 362 -201 l 1,46,-1
 426 205 l 1,47,-1
 440 214 l 1,48,49
 441 255 441 255 457 285 c 1,50,-1
 239 12 l 1,51,-1
 222 24 l 1,52,-1
 461 352 l 1,53,54
 458 360 458 360 456 372 c 1,55,-1
 170 675 l 1,56,-1
 185 690 l 1,57,-1
 446 437 l 1,58,-1
 271 810 l 1,59,-1
 290 819 l 1,0,-1
513 619 m 128,-1,61
 502 619 502 619 493 604 c 0,62,63
 483 586 483 586 483 560 c 128,-1,64
 483 534 483 534 493 516 c 0,65,66
 502 501 502 501 513 501 c 128,-1,67
 524 501 524 501 533 516 c 0,68,69
 543 534 543 534 543 560 c 128,-1,70
 543 586 543 586 533 604 c 0,71,60
 524 619 524 619 513 619 c 128,-1,61
513 480 m 128,-1,73
 498 480 498 480 486 460 c 0,74,75
 472 436 472 436 472.5 403.5 c 128,-1,76
 473 371 473 371 486 347 c 0,77,78
 498 327 498 327 513 327 c 0,79,80
 524 327 524 327 533 338 c 2,81,-1
 540 350 l 2,82,83
 552 373 552 373 553 404 c 0,84,85
 553 438 553 438 539 460 c 0,86,72
 528 480 528 480 513 480 c 128,-1,73
484 318 m 1,87,-1
 482 316 l 1,88,-1
 483 317 l 2,89,90
 484 318 484 318 485 318 c 1,91,-1
 484 318 l 1,87,-1
513 307 m 0,92,93
 494 307 494 307 478 280 c 0,94,95
 461 251 461 251 460 208 c 0,96,97
 460 166 460 166 477 137 c 0,98,99
 492 111 492 111 513 111 c 0,100,101
 532 111 532 111 548 138 c 0,102,103
 566 168 566 168 566 208 c 0,104,105
 566 250 566 250 549 280 c 0,106,107
 534 307 534 307 513 307 c 0,92,93
EndSplineSet
EndChar

StartChar: parenleft
Encoding: 40 40 10
Width: 1024
GlyphClass: 2
Flags: W
LayerCount: 2
Fore
SplineSet
509 819 m 2,0,-1
 512 819 l 2,1,2
 528 819 528 819 544 806 c 0,3,4
 557 795 557 795 572 773 c 0,5,6
 598 735 598 735 621 675 c 0,7,8
 644 616 644 616 651 569 c 0,9,10
 655 543 655 543 653 526 c 0,11,12
 651 505 651 505 643 493 c 1,13,-1
 643 493 l 1,14,15
 637 486 637 486 635 482 c 0,16,17
 634 479 634 479 635 476 c 0,18,19
 635 475 635 475 649 454 c 0,20,21
 655 444 655 444 660 430 c 1,22,-1
 679 435 l 1,23,-1
 793 502 l 1,24,-1
 869 524 l 1,25,-1
 916 658 l 1,26,-1
 937 652 l 1,27,-1
 905 499 l 1,28,-1
 808 462 l 1,29,-1
 689 389 l 1,30,-1
 670 376 l 1,31,32
 670 349 670 349 665 320 c 0,33,34
 665 318 665 318 664 315 c 128,-1,35
 663 312 663 312 663 310 c 1,36,-1
 776 364 l 1,37,-1
 849 340 l 1,38,-1
 945 445 l 1,39,-1
 962 432 l 1,40,-1
 868 300 l 1,41,-1
 786 324 l 1,42,-1
 651 260 l 1,43,44
 640 221 640 221 624 189 c 1,45,-1
 749 218 l 1,46,-1
 833 154 l 1,47,-1
 888 70 l 1,48,-1
 872 57 l 1,49,-1
 794 136 l 1,50,-1
 734 168 l 1,51,-1
 601 137 l 2,52,53
 601 135 601 135 602 133 c 0,54,55
 605 128 605 128 609 113 c 0,56,57
 611 105 611 105 616 80 c 0,58,59
 626 33 626 33 632 -10 c 0,60,61
 639 -65 639 -65 637 -106 c 0,62,63
 634 -156 634 -156 617 -173 c 128,-1,64
 600 -190 600 -190 588 -198 c 2,65,-1
 578 -204 l 1,66,-1
 576 -205 l 1,67,-1
 444 -205 l 1,68,-1
 443 -204 l 2,69,70
 439 -202 439 -202 433 -198 c 0,71,72
 418 -187 418 -187 404 -174 c 1,73,-1
 404 -173 l 1,74,75
 386 -155 386 -155 383 -105 c 0,76,77
 381 -65 381 -65 388 -10 c 0,78,79
 393 33 393 33 404 81 c 0,80,81
 407 96 407 96 412 113 c 0,82,83
 416 128 416 128 419 133 c 0,84,85
 420 135 420 135 419 138 c 2,86,-1
 290 168 l 1,87,-1
 230 136 l 1,88,-1
 152 57 l 1,89,-1
 136 70 l 1,90,-1
 190 154 l 1,91,-1
 275 218 l 1,92,-1
 396 189 l 1,93,94
 380 223 380 223 369 264 c 1,95,-1
 238 324 l 1,96,-1
 156 300 l 1,97,-1
 62 432 l 1,98,-1
 79 445 l 1,99,-1
 175 340 l 1,100,-1
 248 364 l 1,101,-1
 358 311 l 1,102,103
 358 312 358 312 357 315 c 128,-1,104
 356 318 356 318 355 320 c 0,105,106
 349 349 349 349 351 379 c 1,107,-1
 335 389 l 1,108,-1
 216 462 l 1,109,-1
 119 499 l 1,110,-1
 87 652 l 1,111,-1
 108 658 l 1,112,-1
 155 524 l 1,113,-1
 231 502 l 1,114,-1
 345 435 l 1,115,-1
 360 430 l 1,116,117
 365 443 365 443 371 454 c 0,118,119
 374 458 374 458 377.5 463 c 128,-1,120
 381 468 381 468 383 471 c 128,-1,121
 385 474 385 474 385 476 c 0,122,123
 386 479 386 479 385 482 c 0,124,125
 384 486 384 486 378 493 c 1,126,-1
 378 493 l 1,127,128
 369 504 369 504 368 525 c 0,129,130
 367 543 367 543 371 568 c 0,131,132
 379 618 379 618 400 675 c 0,133,134
 422 733 422 733 449 772 c 0,135,136
 463 793 463 793 477 805 c 0,137,138
 494 819 494 819 509 819 c 2,0,-1
509 798 m 2,139,140
 501 798 501 798 491 789 c 0,141,142
 480 779 480 779 467 761 c 0,143,144
 443 725 443 725 420 667 c 0,145,146
 398 610 398 610 391 565 c 0,147,148
 387 542 387 542 389 527 c 0,149,150
 390 513 390 513 394.5 507.5 c 128,-1,151
 399 502 399 502 402 496 c 1,152,-1
 403 497 l 1,153,-1
 512 410 l 1,154,-1
 619 495 l 1,155,156
 623 504 623 504 626 507 c 0,157,158
 631 513 631 513 632 527 c 0,159,160
 633 544 633 544 630 566 c 0,161,162
 623 611 623 611 601 667 c 0,163,164
 600 670 600 670 597.5 676 c 128,-1,165
 595 682 595 682 594 684 c 1,166,167
 593 676 593 676 588 671 c 128,-1,168
 583 666 583 666 576 666 c 0,169,170
 568 666 568 666 562.5 672 c 128,-1,171
 557 678 557 678 557 686.5 c 128,-1,172
 557 695 557 695 562.5 700.5 c 128,-1,173
 568 706 568 706 576 706 c 0,174,175
 581 706 581 706 585 703 c 1,176,177
 568 740 568 740 554 761 c 0,178,179
 542 779 542 779 530 789 c 0,180,181
 520 798 520 798 512 798 c 2,182,-1
 509 798 l 2,139,140
450 706 m 128,-1,184
 458 706 458 706 463 700.5 c 128,-1,185
 468 695 468 695 468 686.5 c 128,-1,186
 468 678 468 678 463 672 c 128,-1,187
 458 666 458 666 450 666 c 128,-1,188
 442 666 442 666 437 672 c 128,-1,189
 432 678 432 678 432 686.5 c 128,-1,190
 432 695 432 695 437 700.5 c 128,-1,183
 442 706 442 706 450 706 c 128,-1,184
405 469 m 1,191,192
 403 463 403 463 390 442 c 0,193,194
 363 398 363 398 377 324 c 0,195,196
 392 245 392 245 421 185 c 0,197,198
 423 180 423 180 427 173 c 128,-1,199
 431 166 431 166 433.5 161 c 128,-1,200
 436 156 436 156 437 152 c 0,201,202
 440 144 440 144 440 134 c 1,203,-1
 441 133 l 1,204,-1
 440 133 l 1,205,206
 440 129 440 129 438 126 c 1,207,-1
 512 142 l 1,208,-1
 582 127 l 1,209,210
 578 139 578 139 584 152 c 0,211,212
 585 156 585 156 599 186 c 0,213,214
 629 248 629 248 644 324 c 0,215,216
 658 398 658 398 631 442 c 0,217,218
 619 462 619 462 617 466 c 1,219,-1
 512 383 l 1,220,-1
 405 469 l 1,191,192
254 464 m 1,221,-1
 347 407 l 1,222,-1
 353 403 l 1,223,224
 353 406 353 406 354 410 c 1,225,-1
 337 415 l 1,226,-1
 254 464 l 1,221,-1
770 464 m 1,227,-1
 687 415 l 1,228,-1
 668 410 l 1,229,-1
 670 402 l 1,230,-1
 677 407 l 1,231,-1
 770 464 l 1,227,-1
280 195 m 1,232,-1
 244 168 l 1,233,-1
 287 191 l 1,234,-1
 408 163 l 1,235,-1
 408 164 l 1,236,237
 407 164 407 164 407 165 c 2,238,-1
 280 195 l 1,232,-1
744 195 m 1,239,-1
 613 164 l 1,240,-1
 612 161 l 1,241,-1
 736 191 l 1,242,-1
 780 168 l 1,243,-1
 744 195 l 1,239,-1
512 121 m 1,244,-1
 431 103 l 1,245,246
 428 91 428 91 425 76 c 0,247,248
 415 31 415 31 409 -13 c 0,249,250
 402 -67 402 -67 405 -105 c 0,251,252
 407 -146 407 -146 419 -158 c 0,253,254
 435 -173 435 -173 445 -181 c 0,255,256
 448 -184 448 -184 450 -184 c 2,257,-1
 572 -184 l 2,258,259
 573 -184 573 -184 576 -181 c 0,260,261
 585 -174 585 -174 602 -158 c 0,262,263
 614 -146 614 -146 616 -105 c 0,264,265
 618 -67 618 -67 611 -13 c 0,266,267
 606 31 606 31 596 76 c 0,268,269
 592 92 592 92 589 104 c 1,270,-1
 512 121 l 1,244,-1
EndSplineSet
EndChar

StartChar: parenright
Encoding: 41 41 11
Width: 1024
GlyphClass: 2
Flags: W
LayerCount: 2
Fore
SplineSet
1024 582 m 1,0,-1
 1024 421 l 1,1,-1
 1024 261 l 1,2,-1
 630 337 l 1,3,-1
 0 411 l 1,4,-1
 0 432 l 1,5,-1
 630 506 l 1,6,-1
 1024 582 l 1,0,-1
1003 556 m 1,7,-1
 772 511 l 1,8,-1
 746 421 l 1,9,-1
 772 331 l 1,10,-1
 1003 287 l 1,11,-1
 1003 421 l 1,12,-1
 1003 556 l 1,7,-1
748 507 m 1,13,-1
 664 491 l 1,14,-1
 639 421 l 1,15,-1
 664 352 l 1,16,-1
 748 336 l 1,17,-1
 724 421 l 1,18,-1
 748 507 l 1,13,-1
640 486 m 1,19,-1
 633 485 l 1,20,-1
 557 476 l 1,21,-1
 532 421 l 1,22,-1
 557 367 l 1,23,-1
 633 358 l 1,24,-1
 640 357 l 1,25,-1
 617 421 l 1,26,-1
 640 486 l 1,19,-1
532 473 m 1,27,-1
 448 463 l 1,28,-1
 425 421 l 1,29,-1
 448 380 l 1,30,-1
 532 370 l 1,31,-1
 509 421 l 1,32,-1
 532 473 l 1,27,-1
422 460 m 1,33,-1
 341 450 l 1,34,-1
 320 420 l 1,35,-1
 339 393 l 1,36,-1
 422 383 l 1,37,-1
 401 421 l 1,38,-1
 422 460 l 1,33,-1
312 447 m 1,39,-1
 234 438 l 1,40,-1
 214 420 l 1,41,-1
 230 405 l 1,42,-1
 310 396 l 1,43,-1
 293 420 l 1,44,-1
 312 447 l 1,39,-1
198 434 m 1,45,-1
 93 421 l 1,46,-1
 194 409 l 1,47,-1
 183 420 l 1,48,-1
 198 434 l 1,45,-1
EndSplineSet
EndChar

StartChar: asterisk
Encoding: 42 42 12
Width: 1024
GlyphClass: 2
Flags: W
LayerCount: 2
Fore
SplineSet
500 659 m 1,0,-1
 520 659 l 1,1,2
 520 641 520 641 536.5 614.5 c 128,-1,3
 553 588 553 588 580 565 c 0,4,5
 645 508 645 508 714 508 c 0,6,7
 837 508 837 508 935 552 c 0,8,9
 962 564 962 564 987 580 c 0,10,11
 989 581 989 581 992 583 c 128,-1,12
 995 585 995 585 997 586.5 c 128,-1,13
 999 588 999 588 1001 589 c 0,14,15
 1005 591 1005 591 1007 591 c 0,16,17
 1008 591 1008 591 1010 591 c 0,18,19
 1011 591 1011 591 1012 591 c 2,20,-1
 1024 591 l 1,21,-1
 1024 580 l 2,22,23
 1024 466 1024 466 970.5 378 c 128,-1,24
 917 290 917 290 824 233 c 0,25,26
 735 178 735 178 654 182 c 0,27,28
 582 186 582 186 512 244 c 1,29,30
 441 187 441 187 370 182 c 0,31,32
 289 178 289 178 200 233 c 0,33,34
 139 271 139 271 95.5 320.5 c 128,-1,35
 52 370 52 370 26 437 c 128,-1,36
 0 504 0 504 0 580 c 0,37,38
 0 582 0 582 1 585 c 128,-1,39
 2 588 2 588 5 590 c 0,40,41
 7 591 7 591 9.5 591 c 128,-1,42
 12 591 12 591 13 591 c 0,43,44
 15 591 15 591 19 589 c 0,45,46
 21 588 21 588 23 586.5 c 128,-1,47
 25 585 25 585 28 583 c 128,-1,48
 31 581 31 581 33 580 c 0,49,50
 57 565 57 565 86 552 c 0,51,52
 184 508 184 508 307 508 c 0,53,54
 375 508 375 508 441 565 c 0,55,56
 468 588 468 588 484 614.5 c 128,-1,57
 500 641 500 641 500 659 c 1,0,-1
510 643 m 1,58,59
 498 588 498 588 454 549 c 0,60,61
 384 488 384 488 307 488 c 0,62,63
 179 488 179 488 78 533 c 0,64,65
 59 541 59 541 34 557 c 1,66,67
 42 457 42 457 87 378.5 c 128,-1,68
 132 300 132 300 211 250 c 0,69,70
 294 198 294 198 369 203 c 0,71,72
 440 207 440 207 505 262 c 2,73,-1
 512 268 l 1,74,-1
 519 262 l 2,75,76
 583 206 583 206 655 203 c 0,77,78
 730 199 730 199 813 250 c 0,79,80
 893 299 893 299 939 378 c 128,-1,81
 985 457 985 457 991 559 c 1,82,83
 965 543 965 543 943 533 c 0,84,85
 841 487 841 487 714 488 c 0,86,87
 637 488 637 488 567 549 c 0,88,89
 522 588 522 588 510 643 c 1,58,59
EndSplineSet
EndChar

StartChar: plus
Encoding: 43 43 13
Width: 1024
GlyphClass: 2
Flags: W
LayerCount: 2
Fore
SplineSet
154 808 m 1,0,1
 175 790 175 790 276 708 c 0,2,3
 392 614 392 614 417 593 c 0,4,5
 422 589 422 589 438.5 572 c 128,-1,6
 455 555 455 555 466 547 c 0,7,8
 497 524 497 524 538.5 524 c 128,-1,9
 580 524 580 524 639 568 c 0,10,11
 652 578 652 578 665 589.5 c 128,-1,12
 678 601 678 601 684 607 c 2,13,-1
 690 613 l 1,14,-1
 691 614 l 1,15,-1
 900 767 l 1,16,-1
 969 669 l 1,17,-1
 961 663 l 2,18,19
 929 640 929 640 891 611 c 0,20,21
 816 553 816 553 786 518 c 0,22,23
 779 510 779 510 765.5 499 c 128,-1,24
 752 488 752 488 734 473 c 128,-1,25
 716 458 716 458 702 445 c 0,26,27
 640 387 640 387 626 339 c 0,28,29
 609 281 609 281 599 184 c 1,30,-1
 599 183 l 1,31,-1
 596 -205 l 1,32,-1
 467 -188 l 1,33,-1
 468 -179 l 1,34,35
 479 64 479 64 482 113 c 0,36,37
 485 158 485 158 478 232.5 c 128,-1,38
 471 307 471 307 453 353 c 0,39,40
 419 437 419 437 312 528 c 0,41,42
 301 537 301 537 289.5 546.5 c 128,-1,43
 278 556 278 556 268.5 563 c 128,-1,44
 259 570 259 570 250 576.5 c 128,-1,45
 241 583 241 583 234.5 587.5 c 128,-1,46
 228 592 228 592 222.5 595.5 c 128,-1,47
 217 599 217 599 215 601 c 2,48,-1
 212 602 l 1,49,-1
 212 603 l 1,50,-1
 55 705 l 1,51,52
 141 794 141 794 154 808 c 1,0,1
155 779 m 1,53,-1
 87 708 l 1,54,-1
 222 619 l 2,55,56
 270 590 270 590 325 543 c 0,57,58
 435 449 435 449 471 361 c 0,59,60
 485 326 485 326 493.5 273.5 c 128,-1,61
 502 221 502 221 502.5 181 c 128,-1,62
 503 141 503 141 502 111 c 0,63,64
 499 65 499 65 488 -170 c 1,65,-1
 576 -182 l 1,66,-1
 579 184 l 1,67,68
 588 284 588 284 606 345 c 0,69,70
 622 398 622 398 689 460 c 0,71,72
 706 476 706 476 735.5 500.5 c 128,-1,73
 765 525 765 525 771 532 c 0,74,75
 802 567 802 567 878 627 c 0,76,77
 910 652 910 652 941 674 c 1,78,-1
 895 738 l 1,79,-1
 705 599 l 1,80,-1
 703 598 l 1,81,82
 680 574 680 574 651 552 c 0,83,84
 587 504 587 504 538 504 c 128,-1,85
 489 504 489 504 454 530 c 0,86,87
 442 539 442 539 423.5 557.5 c 128,-1,88
 405 576 405 576 403 578 c 0,89,90
 381 598 381 598 263 692 c 0,91,92
 188 753 188 753 155 779 c 1,53,-1
EndSplineSet
EndChar

StartChar: comma
Encoding: 44 44 14
Width: 1024
GlyphClass: 2
Flags: W
LayerCount: 2
Fore
SplineSet
530 819 m 0,0,1
 632 819 632 819 716 762 c 1,2,-1
 715 763 l 1,3,-1
 718 762 l 1,4,-1
 719 761 l 1,5,-1
 719 761 l 1,6,7
 828 690 828 690 892.5 573 c 128,-1,8
 957 456 957 456 957 320 c 0,9,10
 957 234 957 234 931 154 c 128,-1,11
 905 74 905 74 856 9.5 c 128,-1,12
 807 -55 807 -55 742.5 -103.5 c 128,-1,13
 678 -152 678 -152 598 -178.5 c 128,-1,14
 518 -205 518 -205 432 -205 c 0,15,16
 328 -205 328 -205 235 -166.5 c 128,-1,17
 142 -128 142 -128 70 -60 c 2,18,-1
 67 -57 l 1,19,-1
 67 -53 l 2,20,21
 67 -43 67 -43 68 -25.5 c 128,-1,22
 69 -8 69 -8 84.5 42.5 c 128,-1,23
 100 93 100 93 128 138 c 0,24,25
 189 234 189 234 270 282 c 1,26,27
 196 377 196 377 197 486 c 0,28,29
 197 576 197 576 241.5 653 c 128,-1,30
 286 730 286 730 363 774.5 c 128,-1,31
 440 819 440 819 530 819 c 0,0,1
530 798 m 0,32,33
 401 798 401 798 309.5 706.5 c 128,-1,34
 218 615 218 615 218 486 c 0,35,36
 218 382 218 382 284 295 c 1,37,-1
 487 462 l 1,38,39
 470 472 470 472 470 491 c 0,40,41
 470 498 470 498 473 504 c 128,-1,42
 476 510 476 510 480.5 514.5 c 128,-1,43
 485 519 485 519 491 521.5 c 128,-1,44
 497 524 497 524 504 524 c 0,45,46
 518 524 518 524 528 514.5 c 128,-1,47
 538 505 538 505 538 491 c 0,48,49
 538 472 538 472 520 461 c 2,50,-1
 296 278 l 1,51,-1
 298 276 l 1,52,-1
 287 270 l 2,53,54
 278 265 278 265 263.5 254.5 c 128,-1,55
 249 244 249 244 211.5 207 c 128,-1,56
 174 170 174 170 146 127 c 0,57,58
 119 85 119 85 105 40 c 128,-1,59
 91 -5 91 -5 90 -20.5 c 128,-1,60
 89 -36 89 -36 89 -47 c 1,61,62
 158 -111 158 -111 246.5 -147 c 128,-1,63
 335 -183 335 -183 432 -183 c 0,64,65
 535 -183 535 -183 628.5 -143.5 c 128,-1,66
 722 -104 722 -104 789.5 -36.5 c 128,-1,67
 857 31 857 31 896.5 124 c 128,-1,68
 936 217 936 217 936 320 c 0,69,70
 936 450 936 450 874 562.5 c 128,-1,71
 812 675 812 675 708 743 c 1,72,-1
 705 744 l 1,73,74
 626 798 626 798 530 798 c 0,32,33
EndSplineSet
EndChar

StartChar: hyphen
Encoding: 45 45 15
Width: 1024
GlyphClass: 2
Flags: W
LayerCount: 2
Fore
SplineSet
512.5 819 m 128,-1,1
 522 819 522 819 529 812 c 0,2,3
 534 807 534 807 539 797 c 0,4,5
 545 782 545 782 548 753 c 0,6,7
 552 709 552 709 549 627 c 0,8,9
 548 611 548 611 547.5 584 c 128,-1,10
 547 557 547 557 546 537 c 128,-1,11
 545 517 545 517 545 502 c 0,12,13
 545 477 545 477 547 463 c 1,14,15
 547 463 547 463 548 464 c 0,16,17
 549 464 549 464 549 465 c 0,18,19
 555 476 555 476 564 501 c 0,20,21
 570 518 570 518 583.5 558.5 c 128,-1,22
 597 599 597 599 602 614 c 0,23,24
 627 688 627 688 648 725 c 0,25,26
 661 750 661 750 673 762 c 0,27,28
 689 778 689 778 706 775 c 0,29,30
 724 771 724 771 728 753 c 0,31,32
 731 740 731 740 726 718 c 0,33,34
 718 687 718 687 691 629 c 0,35,36
 684 614 684 614 669 584 c 128,-1,37
 654 554 654 554 648 541 c 0,38,39
 638 519 638 519 635 510 c 0,40,41
 633 505 633 505 632 500 c 1,42,-1
 632 500 l 1,43,-1
 634 500 l 2,44,45
 640 500 640 500 650 502 c 0,46,47
 669 507 669 507 702 522 c 0,48,49
 753 545 753 545 801 573 c 1,50,-1
 802 574 l 2,51,52
 811 579 811 579 825 601 c 0,53,54
 834 615 834 615 852 650 c 0,55,56
 869 682 869 682 878 696 c 0,57,58
 885 706 885 706 891 710 c 0,59,60
 901 718 901 718 910 716 c 1,61,-1
 910 716 l 1,62,63
 916 714 916 714 919 709 c 128,-1,64
 922 704 922 704 923 699 c 0,65,66
 924 693 924 693 920 680 c 0,67,68
 915 657 915 657 902 628 c 0,69,70
 879 575 879 575 853 533 c 0,71,72
 838 509 838 509 785 491 c 0,73,74
 774 487 774 487 756.5 481.5 c 128,-1,75
 739 476 739 476 721.5 470.5 c 128,-1,76
 704 465 704 465 690 459 c 1,77,-1
 690 459 l 1,78,79
 684 457 684 457 673 449 c 0,80,81
 653 434 653 434 637 408 c 0,82,83
 586 322 586 322 613 160 c 0,84,85
 623 97 623 97 647 6.5 c 128,-1,86
 671 -84 671 -84 672 -114 c 0,87,88
 673 -162 673 -162 636 -183 c 0,89,90
 602 -202 602 -202 512 -205 c 1,91,-1
 512 -205 l 1,92,93
 424 -203 424 -203 389 -183 c 0,94,95
 352 -163 352 -163 353 -115 c 0,96,97
 353 -85 353 -85 377 6 c 128,-1,98
 401 97 401 97 411 160 c 0,99,100
 437 322 437 322 387 408 c 0,101,102
 372 434 372 434 351 449 c 2,103,-1
 335 459 l 1,104,-1
 334 459 l 1,105,106
 316 466 316 466 281.5 477 c 128,-1,107
 247 488 247 488 240 491 c 0,108,109
 187 509 187 509 172 533 c 0,110,111
 145 576 145 576 122 628 c 0,112,113
 108 659 108 659 104 680 c 0,114,115
 101 693 101 693 102 700 c 0,116,117
 103 706 103 706 105 709 c 0,118,119
 108 713 108 713 114 716 c 0,120,121
 124 719 124 719 133 712 c 0,122,123
 139 708 139 708 147 696 c 0,124,125
 157 682 157 682 172 651 c 0,126,127
 189 618 189 618 199 602 c 0,128,129
 214 578 214 578 223 573 c 0,130,131
 272 544 272 544 322 522 c 0,132,133
 354 507 354 507 374 502 c 0,134,135
 384 500 384 500 391 500 c 2,136,-1
 392 500 l 1,137,-1
 392 500 l 1,138,139
 391 505 391 505 390 510 c 0,140,141
 387 520 387 520 377 541 c 0,142,143
 371 554 371 554 356 584.5 c 128,-1,144
 341 615 341 615 333 629 c 0,145,146
 306 686 306 686 298 718 c 0,147,148
 293 739 293 739 296 753 c 0,149,150
 300 772 300 772 319 775 c 0,151,152
 336 778 336 778 351 762 c 0,153,154
 363 750 363 750 377 725 c 0,155,156
 396 690 396 690 422 614 c 0,157,158
 427 600 427 600 435 575.5 c 128,-1,159
 443 551 443 551 449 533 c 128,-1,160
 455 515 455 515 460 501 c 0,161,162
 469 475 469 475 476 465 c 0,163,164
 476 464 476 464 476 464 c 1,165,-1
 477 463 l 1,166,167
 479 478 479 478 480 502 c 0,168,169
 480 517 480 517 479 537 c 128,-1,170
 478 557 478 557 477 584 c 128,-1,171
 476 611 476 611 475 627 c 0,172,173
 472 713 472 713 476 753 c 0,174,175
 479 781 479 781 486 797 c 0,176,177
 490 807 490 807 495 812 c 0,178,0
 503 819 503 819 512.5 819 c 128,-1,1
512.5 798 m 128,-1,180
 511 798 511 798 510 797 c 0,181,182
 508 795 508 795 505 789 c 0,183,184
 500 776 500 776 497 751 c 0,185,186
 493 712 493 712 496 628 c 0,187,188
 497 612 497 612 498 585 c 128,-1,189
 499 558 499 558 499.5 538 c 128,-1,190
 500 518 500 518 500 502 c 0,191,192
 500 474 500 474 498 460 c 0,193,194
 497 452 497 452 494 446 c 0,195,196
 492 442 492 442 489 439 c 0,197,198
 485 435 485 435 480 436 c 0,199,200
 472 436 472 436 466 443 c 0,201,202
 463 446 463 446 458 455 c 0,203,204
 450 471 450 471 441 494 c 0,205,206
 434 512 434 512 421 552 c 128,-1,207
 408 592 408 592 403 607 c 0,208,209
 377 682 377 682 359 716 c 0,210,211
 348 738 348 738 337 748 c 0,212,213
 329 756 329 756 322 754 c 0,214,215
 317 753 317 753 316 748 c 0,216,217
 314 740 314 740 319 723 c 0,218,219
 326 693 326 693 352 638 c 0,220,221
 359 623 359 623 374.5 593 c 128,-1,222
 390 563 390 563 396 550 c 0,223,224
 406 529 406 529 410 516 c 0,225,226
 413 508 413 508 413 503 c 0,227,228
 414 495 414 495 411 490 c 0,229,230
 405 481 405 481 392 480 c 0,231,232
 383 479 383 479 369 482 c 0,233,234
 349 487 349 487 313 504 c 0,235,236
 263 527 263 527 213 556 c 0,237,238
 199 564 199 564 182 591 c 0,239,240
 171 609 171 609 154 642 c 0,241,242
 137 674 137 674 130 685 c 0,243,244
 128 688 128 688 123 692 c 1,245,246
 123 687 123 687 124 685 c 0,247,248
 128 668 128 668 141 637 c 0,249,250
 164 585 164 585 189 544 c 0,251,252
 200 526 200 526 247 510 c 0,253,254
 254 508 254 508 288 497 c 128,-1,255
 322 486 322 486 342 479 c 0,256,257
 352 475 352 475 364 466 c 0,258,259
 387 448 387 448 404 418 c 0,260,261
 458 326 458 326 431 157 c 0,262,263
 420 89 420 89 397 -0.5 c 128,-1,264
 374 -90 374 -90 374 -115 c 0,265,266
 373 -150 373 -150 399 -165 c 0,267,268
 429 -182 429 -182 512 -184 c 0,269,270
 596 -182 596 -182 626 -165 c 0,271,272
 652 -150 652 -150 651 -115 c 0,273,274
 651 -90 651 -90 627.5 0 c 128,-1,275
 604 90 604 90 593 156 c 0,276,277
 565 326 565 326 619 418 c 0,278,279
 636 447 636 447 661 466 c 2,280,-1
 683 479 l 2,281,282
 703 487 703 487 736.5 497 c 128,-1,283
 770 507 770 507 779 510 c 0,284,285
 825 526 825 526 835 544 c 0,286,287
 859 583 859 583 883 637 c 0,288,289
 896 668 896 668 900 685 c 0,290,291
 900 687 900 687 901 691 c 1,292,293
 896 686 896 686 895 684 c 0,294,295
 888 674 888 674 871 641 c 0,296,297
 853 607 853 607 843 590 c 0,298,299
 826 564 826 564 811 556 c 0,300,301
 761 526 761 526 711 503 c 0,302,303
 675 487 675 487 655 482 c 0,304,305
 642 479 642 479 633 480 c 0,306,307
 620 481 620 481 614 490 c 0,308,309
 611 495 611 495 612 503 c 0,310,311
 613 508 613 508 615 516 c 0,312,313
 619 529 619 529 629 550 c 0,314,315
 635 563 635 563 650.5 593.5 c 128,-1,316
 666 624 666 624 673 638 c 0,317,318
 699 692 699 692 706 723 c 0,319,320
 710 740 710 740 708 748 c 0,321,322
 707 753 707 753 702 754 c 0,323,324
 695 755 695 755 688 748 c 0,325,326
 678 738 678 738 666 716 c 0,327,328
 648 682 648 682 622 607 c 0,329,330
 619 597 619 597 604.5 554.5 c 128,-1,331
 590 512 590 512 583 494 c 0,332,333
 573 468 573 468 567 455 c 0,334,335
 562 445 562 445 559 443 c 0,336,337
 553 436 553 436 545 436 c 0,338,339
 540 436 540 436 536 439 c 0,340,341
 533 441 533 441 531 446 c 0,342,343
 528 452 528 452 527 460 c 0,344,345
 525 474 525 474 525 502 c 0,346,347
 525 517 525 517 525.5 537.5 c 128,-1,348
 526 558 526 558 527 585 c 128,-1,349
 528 612 528 612 529 628 c 0,350,351
 532 712 532 712 528 751 c 0,352,353
 525 777 525 777 520 789 c 0,354,355
 518 795 518 795 515 797 c 0,356,179
 514 798 514 798 512.5 798 c 128,-1,180
EndSplineSet
EndChar

StartChar: period
Encoding: 46 46 16
Width: 1024
GlyphClass: 2
Flags: W
LayerCount: 2
Fore
SplineSet
467 819 m 0,0,1
 471 819 471 819 487.5 818.5 c 128,-1,2
 504 818 504 818 512.5 818 c 128,-1,3
 521 818 521 818 534.5 818.5 c 128,-1,4
 548 819 548 819 557.5 819 c 128,-1,5
 567 819 567 819 579 819 c 128,-1,6
 591 819 591 819 602 818 c 0,7,8
 652 812 652 812 685 777 c 0,9,10
 741 721 741 721 780 634.5 c 128,-1,11
 819 548 819 548 833 442 c 0,12,13
 842 381 842 381 842 326 c 0,14,15
 842 320 842 320 841 293 c 2,16,17
 841 293 841 293 841 292 c 1,18,-1
 841 292 l 1,19,20
 833 93 833 93 747 -47 c 0,21,22
 717 -96 717 -96 680.5 -131 c 128,-1,23
 644 -166 644 -166 601 -185.5 c 128,-1,24
 558 -205 558 -205 512.5 -205 c 128,-1,25
 467 -205 467 -205 423.5 -185.5 c 128,-1,26
 380 -166 380 -166 343.5 -131 c 128,-1,27
 307 -96 307 -96 277 -47 c 0,28,29
 182 108 182 108 182 326 c 0,30,31
 182 420 182 420 201.5 506.5 c 128,-1,32
 221 593 221 593 256 662 c 128,-1,33
 291 731 291 731 338 778 c 0,34,35
 372 812 372 812 422 818 c 0,36,37
 441 820 441 820 467 819 c 0,0,1
467 798 m 0,38,39
 441 798 441 798 425 797 c 0,40,41
 416 796 416 796 407 794 c 1,42,43
 423 774 423 774 457 750 c 0,44,45
 458 749 458 749 511 720 c 1,46,47
 511 720 511 720 563 750 c 0,48,49
 598 774 598 774 614 794 c 1,50,51
 605 796 605 796 599 797 c 0,52,53
 587 798 587 798 573.5 798.5 c 128,-1,54
 560 799 560 799 541 798.5 c 128,-1,55
 522 798 522 798 512 798 c 0,56,57
 503 798 503 798 486 798 c 128,-1,58
 469 798 469 798 467 798 c 0,38,39
635 788 m 1,59,60
 620 763 620 763 575 733 c 0,61,62
 556 720 556 720 532 706 c 1,63,64
 542 701 542 701 567 688 c 0,65,66
 608 668 608 668 675 644 c 1,67,68
 707 678 707 678 720 701 c 1,69,70
 695 739 695 739 670 763 c 0,71,72
 655 780 655 780 635 788 c 1,59,60
387 787 m 1,73,74
 368 779 368 779 352 763 c 0,75,76
 328 739 328 739 303 700 c 1,77,78
 315 676 315 676 348 644 c 1,79,80
 399 662 399 662 452 687 c 0,81,82
 463 692 463 692 489 706 c 1,83,84
 460 723 460 723 446 733 c 0,85,86
 403 762 403 762 387 787 c 1,73,74
510 694 m 1,87,88
 491 684 491 684 461 669 c 0,89,90
 414 647 414 647 367 629 c 1,91,92
 418 586 418 586 480 551 c 0,93,94
 492 544 492 544 514 533 c 1,95,96
 540 547 540 547 546 550 c 0,97,98
 611 590 611 590 658 629 c 1,99,100
 609 646 609 646 558 670 c 0,101,102
 529 684 529 684 510 694 c 1,87,88
733 682 m 1,103,104
 716 654 716 654 697 636 c 1,105,106
 732 626 732 626 762 623 c 1,107,108
 748 658 748 658 733 682 c 1,103,104
290 680 m 1,109,110
 275 655 275 655 261 621 c 1,111,112
 290 625 290 625 326 637 c 1,113,114
 303 659 303 659 290 680 c 1,109,110
344 621 m 0,115,116
 343 621 343 621 341 620 c 128,-1,117
 339 619 339 619 338 619 c 0,118,119
 285 601 285 601 252 599 c 1,120,121
 245 581 245 581 241 571 c 1,122,123
 248 558 248 558 274.5 532 c 128,-1,124
 301 506 301 506 328 484 c 2,125,126
 328 484 328 484 347 469 c 1,127,128
 409 483 409 483 490 522 c 1,129,130
 490 522 490 522 480 527 c 0,131,132
 471 532 471 532 470 533 c 0,133,134
 398 574 398 574 344 621 c 0,115,116
680 620 m 1,135,136
 626 569 626 569 536 522 c 1,137,138
 611 487 611 487 676 471 c 1,139,140
 748 524 748 524 782 573 c 1,141,142
 779 582 779 582 771 601 c 1,143,144
 730 604 730 604 680 620 c 1,135,136
790 546 m 1,145,146
 755 502 755 502 700 464 c 1,147,148
 754 453 754 453 811 451 c 1,149,150
 804 498 804 498 790 546 c 1,145,146
233 544 m 1,151,152
 220 497 220 497 213 451 c 1,153,154
 262 452 262 452 321 463 c 1,155,156
 320 464 320 464 318 464.5 c 128,-1,157
 316 465 316 465 315 466 c 0,158,159
 256 515 256 515 233 544 c 1,151,152
514 510 m 1,160,161
 438 472 438 472 370 454 c 1,162,163
 423 421 423 421 449 406 c 0,164,165
 472 394 472 394 510 375 c 1,166,167
 542 390 542 390 573 407 c 128,-1,168
 604 424 604 424 652 455 c 1,169,170
 589 472 589 472 514 510 c 1,160,161
679 448 m 1,171,172
 649 425 649 425 583 389 c 0,173,174
 570 382 570 382 534 364 c 1,175,176
 608 332 608 332 668 318 c 1,177,178
 736 367 736 367 742 372 c 0,179,180
 789 411 789 411 801 430 c 1,181,182
 752 431 752 431 679 448 c 1,171,172
343 447 m 1,183,184
 291 432 291 432 220 430 c 1,185,186
 258 389 258 389 282 369 c 0,187,188
 296 357 296 357 352 317 c 1,189,190
 402 329 402 329 475 364 c 1,191,192
 469 367 469 367 456 376 c 128,-1,193
 443 385 443 385 439 388 c 0,194,195
 377 422 377 422 343 447 c 1,183,184
816 415 m 1,196,197
 791 386 791 386 755 356 c 0,198,199
 736 340 736 340 696 310 c 1,200,201
 763 296 763 296 820 295 c 1,202,203
 821 320 821 320 821 326 c 0,204,205
 821 366 821 366 816 415 c 1,196,197
208 413 m 1,206,207
 203 366 203 366 203 326 c 0,208,209
 203 320 203 320 204 295 c 1,210,211
 260 297 260 297 325 310 c 1,212,213
 291 335 291 335 269 354 c 0,214,215
 223 392 223 392 208 413 c 1,206,207
509 353 m 1,216,217
 436 319 436 319 375 302 c 1,218,219
 396 288 396 288 431 268 c 0,220,221
 472 245 472 245 510 226 c 1,222,223
 552 246 552 246 592 270 c 0,224,225
 623 288 623 288 644 302 c 1,226,227
 582 319 582 319 509 353 c 1,216,217
672 295 m 1,228,229
 649 279 649 279 603 252 c 0,230,231
 597 249 597 249 575.5 235.5 c 128,-1,232
 554 222 554 222 543 216 c 1,233,234
 552 212 552 212 566 205.5 c 128,-1,235
 580 199 580 199 587.5 195.5 c 128,-1,236
 595 192 595 192 607 187 c 128,-1,237
 619 182 619 182 628 179 c 128,-1,238
 637 176 637 176 648.5 172.5 c 128,-1,239
 660 169 660 169 673 166 c 1,240,241
 738 212 738 212 758 230 c 0,242,243
 786 254 786 254 804 274 c 1,244,245
 760 275 760 275 672 295 c 1,228,229
348 295 m 1,246,247
 287 278 287 278 219 275 c 1,248,249
 236 253 236 253 276 221 c 0,250,251
 297 204 297 204 349 166 c 1,252,253
 367 170 367 170 385 176 c 128,-1,254
 403 182 403 182 412 186 c 128,-1,255
 421 190 421 190 445 201 c 128,-1,256
 469 212 469 212 478 216 c 1,257,258
 472 219 472 219 463.5 224 c 128,-1,259
 455 229 455 229 448.5 233 c 128,-1,260
 442 237 442 237 434 242 c 128,-1,261
 426 247 426 247 420 250 c 0,262,263
 371 279 371 279 348 295 c 1,246,247
206 260 m 1,264,265
 211 201 211 201 223 146 c 1,266,267
 267 148 267 148 324 158 c 1,268,269
 272 196 272 196 263 204 c 0,270,271
 230 230 230 230 206 260 c 1,264,265
818 260 m 1,272,273
 805 243 805 243 771 215 c 0,274,275
 749 196 749 196 699 159 c 1,276,277
 758 148 758 148 801 146 c 1,278,279
 813 202 813 202 818 260 c 1,272,273
511 204 m 1,280,281
 434 167 434 167 373 151 c 1,282,283
 391 139 391 139 411 127 c 0,284,285
 454 102 454 102 511 76 c 1,286,287
 570 102 570 102 623 135 c 0,288,289
 637 143 637 143 648 150 c 1,290,291
 571 176 571 176 511 204 c 1,280,281
347 143 m 1,292,293
 290 127 290 127 228 125 c 1,294,295
 229 122 229 122 230.5 116.5 c 128,-1,296
 232 111 232 111 233 109 c 1,297,-1
 234 110 l 1,298,299
 243 96 243 96 274 69.5 c 128,-1,300
 305 43 305 43 335 21 c 1,301,302
 391 30 391 30 479 66 c 1,303,304
 462 74 462 74 401 109 c 0,305,306
 368 128 368 128 347 143 c 1,292,293
675 143 m 1,307,308
 665 136 665 136 634 117 c 0,309,310
 574 81 574 81 543 66 c 1,311,312
 631 30 631 30 689 21 c 1,313,314
 723 46 723 46 755.5 76.5 c 128,-1,315
 788 107 788 107 795 121 c 2,316,317
 795 121 795 121 796 123 c 2,318,-1
 796 125 l 1,319,320
 728 128 728 128 675 143 c 1,307,308
776 63 m 1,321,322
 755 42 755 42 722 16 c 1,323,324
 738 14 738 14 756 14 c 1,325,326
 767 37 767 37 776 63 c 1,321,322
248 62 m 1,327,328
 257 37 257 37 268 14 c 1,329,330
 287 15 287 15 304 17 c 1,331,332
 276 35 276 35 248 62 c 1,327,328
511 54 m 1,333,334
 444 24 444 24 363 6 c 1,335,336
 376 -2 376 -2 397 -13 c 0,337,338
 446 -37 446 -37 515 -58 c 1,339,340
 585 -36 585 -36 641 -7 c 0,341,342
 660 3 660 3 662 4 c 1,343,344
 593 17 593 17 511 54 c 1,333,334
331 -1 m 1,345,346
 308 -4 308 -4 278 -6 c 1,347,348
 288 -25 288 -25 295 -37 c 0,349,350
 310 -61 310 -61 330 -85 c 1,351,352
 404 -84 404 -84 471 -68 c 1,353,354
 440 -57 440 -57 388 -32 c 0,355,356
 348 -12 348 -12 331 -1 c 1,345,346
694 -2 m 1,357,358
 689 -6 689 -6 651 -25 c 0,359,360
 593 -55 593 -55 558 -68 c 1,361,362
 637 -83 637 -83 696 -83 c 1,363,364
 716 -59 716 -59 729 -37 c 0,365,366
 736 -26 736 -26 746 -6 c 1,367,368
 717 -5 717 -5 694 -2 c 1,357,358
514 -78 m 1,369,370
 433 -102 433 -102 347 -105 c 1,371,372
 423 -184 423 -184 512 -184 c 0,373,374
 602 -184 602 -184 678 -103 c 1,375,376
 591 -101 591 -101 514 -78 c 1,369,370
EndSplineSet
EndChar

StartChar: slash
Encoding: 47 47 17
Width: 1024
GlyphClass: 2
Flags: W
LayerCount: 2
Fore
SplineSet
9 819 m 1,0,-1
 40 812 l 2,1,2
 56 809 56 809 83.5 802 c 128,-1,3
 111 795 111 795 175.5 768 c 128,-1,4
 240 741 240 741 281 708 c 0,5,6
 371 638 371 638 496 471 c 1,7,8
 548 518 548 518 575 564 c 0,9,10
 595 596 595 596 592 676 c 0,11,12
 592 684 592 684 591 693 c 128,-1,13
 590 702 590 702 589.5 709 c 128,-1,14
 589 716 589 716 588.5 722.5 c 128,-1,15
 588 729 588 729 587 734 c 128,-1,16
 586 739 586 739 585.5 743 c 128,-1,17
 585 747 585 747 585 749 c 2,18,-1
 585 751 l 1,19,-1
 603 758 l 1,20,21
 673 669 673 669 706 608 c 1,22,-1
 706 607 l 1,23,24
 736 550 736 550 766 449 c 1,25,26
 832 476 832 476 872 510 c 0,27,28
 911 544 911 544 959 625 c 1,29,-1
 999 700 l 1,30,-1
 1013 729 l 1,31,-1
 1019 697 l 1,32,33
 1022 648 1022 648 1023 603.5 c 128,-1,34
 1024 559 1024 559 1014.5 510.5 c 128,-1,35
 1005 462 1005 462 986 421 c 0,36,37
 942 328 942 328 780 166 c 0,38,39
 744 130 744 130 706 94 c 128,-1,40
 668 58 668 58 648 40 c 2,41,-1
 628 22 l 1,42,-1
 625 20 l 1,43,-1
 164 -12 l 1,44,-1
 160 -5 l 1,45,46
 36 238 36 238 16 276 c 1,47,-1
 16 276 l 1,48,-1
 1 291 l 1,49,-1
 20 295 l 2,50,51
 65 304 65 304 113 327 c 0,52,53
 207 374 207 374 218 448 c 0,54,55
 230 523 230 523 132 667 c 0,56,57
 122 682 122 682 111 696.5 c 128,-1,58
 100 711 100 711 90.5 723.5 c 128,-1,59
 81 736 81 736 71.5 747.5 c 128,-1,60
 62 759 62 759 55 767.5 c 128,-1,61
 48 776 48 776 42 782.5 c 128,-1,62
 36 789 36 789 33 792 c 2,63,-1
 31 795 l 1,64,-1
 9 819 l 1,0,-1
71 777 m 1,65,66
 118 723 118 723 149 678 c 0,67,68
 251 529 251 529 238 446 c 0,69,70
 225 361 225 361 122 309 c 0,71,72
 81 288 81 288 37 279 c 1,73,74
 47 260 47 260 125 108 c 1,75,76
 159 118 159 118 186.5 140 c 128,-1,77
 214 162 214 162 247 196 c 0,78,79
 249 198 249 198 253 203 c 0,80,81
 269 220 269 220 278.5 229 c 128,-1,82
 288 238 288 238 302.5 249.5 c 128,-1,83
 317 261 317 261 330.5 266.5 c 128,-1,84
 344 272 344 272 359 272 c 0,85,86
 421 275 421 275 517 193 c 0,87,88
 603 120 603 120 628 50 c 1,89,90
 694 108 694 108 765 180 c 0,91,92
 924 340 924 340 967 430 c 0,93,94
 975 447 975 447 981.5 465.5 c 128,-1,95
 988 484 988 484 991.5 498 c 128,-1,96
 995 512 995 512 996.5 529.5 c 128,-1,97
 998 547 998 547 998.5 557.5 c 128,-1,98
 999 568 999 568 998.5 584 c 128,-1,99
 998 600 998 600 997 606.5 c 128,-1,100
 996 613 996 613 994.5 627 c 128,-1,101
 993 641 993 641 993 643 c 1,102,103
 980 619 980 619 977 614 c 0,104,105
 927 530 927 530 886 494 c 0,106,107
 864 475 864 475 833.5 458 c 128,-1,108
 803 441 803 441 784 433 c 2,109,-1
 764 425 l 1,110,-1
 754 420 l 1,111,-1
 751 431 l 2,112,113
 720 538 720 538 688 598 c 0,114,115
 667 637 667 637 609 714 c 1,116,117
 612 690 612 690 612 677 c 0,118,119
 615 591 615 591 592 553 c 0,120,121
 588 547 588 547 584 541 c 128,-1,122
 580 535 580 535 576.5 530.5 c 128,-1,123
 573 526 573 526 567.5 519 c 128,-1,124
 562 512 562 512 558.5 508 c 128,-1,125
 555 504 555 504 548 496.5 c 128,-1,126
 541 489 541 489 538.5 486 c 128,-1,127
 536 483 536 483 527.5 474 c 128,-1,128
 519 465 519 465 517 463 c 128,-1,129
 515 461 515 461 505.5 451.5 c 128,-1,130
 496 442 496 442 494 440 c 1,131,132
 453 494 453 494 423.5 530.5 c 128,-1,133
 394 567 394 567 351.5 612 c 128,-1,134
 309 657 309 657 269 692 c 0,135,136
 199 747 199 747 78 776 c 0,137,138
 73 776 73 776 71 777 c 1,65,66
360 252 m 0,139,140
 344 251 344 251 326.5 240 c 128,-1,141
 309 229 309 229 296.5 217.5 c 128,-1,142
 284 206 284 206 261 182 c 0,143,144
 239 159 239 159 224.5 145 c 128,-1,145
 210 131 210 131 185 114.5 c 128,-1,146
 160 98 160 98 135 90 c 1,147,148
 140 80 140 80 147 65.5 c 128,-1,149
 154 51 154 51 160 40 c 128,-1,150
 166 29 166 29 170.5 20 c 128,-1,151
 175 11 175 11 176 10 c 2,152,-1
 610 40 l 1,153,154
 599 72 599 72 570 108.5 c 128,-1,155
 541 145 541 145 504 177 c 0,156,157
 465 211 465 211 424.5 232 c 128,-1,158
 384 253 384 253 360 252 c 0,139,140
EndSplineSet
EndChar

StartChar: zero
Encoding: 48 48 18
Width: 1024
GlyphClass: 2
Flags: W
LayerCount: 2
Fore
SplineSet
494 819 m 1,0,1
 494 819 494 819 496 819 c 1,2,3
 496 819 496 819 496 818 c 1,4,-1
 497 818 l 2,5,6
 501 817 501 817 510 812 c 0,7,8
 533 800 533 800 558 784 c 0,9,10
 637 733 637 733 660 695 c 0,11,12
 660 694 660 694 668 680.5 c 128,-1,13
 676 667 676 667 678.5 662.5 c 128,-1,14
 681 658 681 658 687.5 644.5 c 128,-1,15
 694 631 694 631 697.5 623 c 128,-1,16
 701 615 701 615 704.5 603 c 128,-1,17
 708 591 708 591 710 580 c 0,18,19
 717 541 717 541 703 513 c 0,20,21
 690 487 690 487 646 466 c 1,22,-1
 644 463 l 1,23,24
 661 446 661 446 741 422 c 0,25,26
 768 413 768 413 783 398 c 0,27,28
 799 381 799 381 798 359 c 0,29,30
 797 317 797 317 735 278 c 1,31,32
 735 260 735 260 729 230 c 1,33,34
 761 227 761 227 767 225 c 0,35,36
 787 221 787 221 793 211 c 0,37,38
 798 203 798 203 799 181 c 0,39,40
 801 147 801 147 803 130 c 0,41,42
 810 63 810 63 718 -35 c 0,43,44
 680 -76 680 -76 638 -107.5 c 128,-1,45
 596 -139 596 -139 562 -149 c 0,46,47
 544 -154 544 -154 523.5 -163 c 128,-1,48
 503 -172 503 -172 482 -182 c 128,-1,49
 461 -192 461 -192 446 -197 c 0,50,51
 378 -220 378 -220 324 -176 c 0,52,53
 307 -162 307 -162 302 -148 c 128,-1,54
 297 -134 297 -134 303 -120 c 0,55,56
 311 -100 311 -100 341 -81 c 1,57,58
 323 -80 323 -80 310 -75 c 0,59,60
 268 -59 268 -59 233 4 c 0,61,62
 217 38 217 38 222 70 c 128,-1,63
 227 102 227 102 248 131 c 0,64,65
 284 180 284 180 337 195 c 1,66,67
 312 214 312 214 285 230 c 0,68,69
 266 241 266 241 256 262 c 128,-1,70
 246 283 246 283 247 305 c 0,71,72
 249 330 249 330 268 342 c 1,73,-1
 269 343 l 1,74,-1
 270 343 l 1,75,76
 251 422 251 422 291 488 c 0,77,78
 323 540 323 540 386 580 c 0,79,80
 427 606 427 606 537 593 c 0,81,82
 547 592 547 592 558 590.5 c 128,-1,83
 569 589 569 589 578 588 c 128,-1,84
 587 587 587 587 592 586 c 1,85,86
 580 604 580 604 579 611 c 0,87,88
 578 617 578 617 577.5 626.5 c 128,-1,89
 577 636 577 636 576 646 c 128,-1,90
 575 656 575 656 573 664 c 0,91,92
 560 742 560 742 488 798 c 1,93,94
 488 798 488 798 488 799 c 0,95,96
 487 800 487 800 486 800 c 0,97,98
 485 801 485 801 485 802 c 1,99,-1
 484 802 l 1,100,-1
 484 803 l 2,101,102
 483 804 483 804 483 805.5 c 128,-1,103
 483 807 483 807 483 808 c 2,104,105
 483 808 483 808 483 810 c 2,106,-1
 483 811 l 2,107,108
 483 813 483 813 484.5 814.5 c 128,-1,109
 486 816 486 816 487 817 c 0,110,111
 489 818 489 818 490 818 c 2,112,-1
 494 819 l 1,0,1
537 784 m 1,113,114
 538 783 538 783 539 781.5 c 128,-1,115
 540 780 540 780 540 779 c 1,116,117
 540 782 540 782 537 784 c 1,113,114
555 761 m 1,118,119
 585 718 585 718 593 667 c 0,120,121
 595 655 595 655 597 636.5 c 128,-1,122
 599 618 599 618 599 614 c 0,123,124
 602 595 602 595 610 590 c 0,125,126
 616 586 616 586 617 583 c 0,127,128
 618 582 618 582 619 580 c 2,129,-1
 619 577 l 1,130,-1
 619 574 l 2,131,132
 618 571 618 571 616 569 c 2,133,134
 616 569 616 569 615 568 c 2,135,-1
 614 568 l 2,136,137
 613 567 613 567 612 567 c 0,138,139
 608 565 608 565 604 565 c 128,-1,140
 600 565 600 565 594 565 c 0,141,142
 587 566 587 566 567 569 c 128,-1,143
 547 572 547 572 535 573 c 0,144,145
 432 585 432 585 397 563 c 0,146,147
 337 525 337 525 309 478 c 0,148,149
 277 425 277 425 292 352 c 1,150,-1
 293 352 l 2,151,152
 308 352 308 352 322 350 c 2,153,-1
 323 350 l 1,154,155
 377 339 377 339 417 357 c 0,156,157
 424 360 424 360 432 366 c 0,158,159
 449 378 449 378 479 406 c 0,160,161
 480 407 480 407 481 408.5 c 128,-1,162
 482 410 482 410 483.5 411 c 128,-1,163
 485 412 485 412 486 413 c 0,164,165
 518 445 518 445 579 467 c 0,166,167
 593 472 593 472 607 475.5 c 128,-1,168
 621 479 621 479 627 480 c 2,169,-1
 634 482 l 1,170,-1
 635 482 l 1,171,172
 673 498 673 498 685 522 c 0,173,174
 696 545 696 545 690 576 c 0,175,176
 684 610 684 610 642 684 c 0,177,178
 624 715 624 715 555 761 c 1,118,119
638 464 m 1,179,-1
 639 461 l 1,180,181
 639 462 639 462 640 462 c 1,182,-1
 638 464 l 1,179,-1
626 457 m 1,183,184
 604 452 604 452 585 446 c 0,185,186
 528 426 528 426 499 397 c 0,187,188
 457 354 457 354 425 339 c 1,189,-1
 425 339 l 1,190,-1
 423 338 l 1,191,-1
 422 337 l 1,192,193
 376 315 376 315 317 329 c 0,194,195
 292 334 292 334 279 325 c 0,196,197
 269 318 269 318 268 303 c 128,-1,198
 267 288 267 288 275 271 c 128,-1,199
 283 254 283 254 296 247 c 0,200,201
 336 224 336 224 362 201 c 1,202,203
 474 208 474 208 555 225 c 0,204,205
 584 231 584 231 623 244 c 0,206,207
 647 254 647 254 671 266 c 128,-1,208
 695 278 695 278 707 285 c 2,209,-1
 719 292 l 2,210,211
 777 325 777 325 778 359 c 0,212,213
 778 372 778 372 767 383 c 0,214,215
 755 395 755 395 735 403 c 0,216,217
 648 430 648 430 628 450 c 0,218,219
 627 451 627 451 626.5 453.5 c 128,-1,220
 626 456 626 456 626 457 c 1,183,184
710 264 m 1,221,222
 629 218 629 218 560 203 c 0,223,224
 476 185 476 185 364 179 c 1,225,-1
 364 179 l 1,226,-1
 362 179 l 1,227,-1
 359 178 l 1,228,229
 333 176 333 176 307.5 160 c 128,-1,230
 282 144 282 144 265 119 c 0,231,232
 225 63 225 63 251 14 c 0,233,234
 282 -42 282 -42 317 -56 c 0,235,236
 355 -70 355 -70 422 -44 c 0,237,238
 492 -18 492 -18 578 49 c 0,239,240
 663 116 663 116 685 160 c 0,241,242
 686 163 686 163 688 167 c 128,-1,243
 690 171 690 171 690 173 c 0,244,245
 698 193 698 193 700 199 c 2,246,-1
 701 200 l 1,247,248
 709 230 709 230 710 264 c 1,221,222
725 210 m 1,249,250
 721 194 721 194 721 193 c 2,251,-1
 720 192 l 1,252,253
 714 174 714 174 707 157 c 0,254,255
 707 156 707 156 705.5 153.5 c 128,-1,256
 704 151 704 151 704 149 c 1,257,-1
 704 149 l 1,258,259
 680 101 680 101 590 32 c 0,260,261
 502 -37 502 -37 430 -65 c 1,262,-1
 429 -65 l 1,263,264
 389 -76 389 -76 355 -97 c 0,265,266
 328 -113 328 -113 322 -127 c 0,267,268
 319 -134 319 -134 322 -141 c 0,269,270
 326 -151 326 -151 337 -161 c 0,271,272
 363 -182 363 -182 389 -185 c 128,-1,273
 415 -188 415 -188 439 -177 c 0,274,275
 453 -172 453 -172 473.5 -163 c 128,-1,276
 494 -154 494 -154 515.5 -144.5 c 128,-1,277
 537 -135 537 -135 556 -130 c 0,278,279
 585 -121 585 -121 626 -91 c 128,-1,280
 667 -61 667 -61 703 -22 c 0,281,282
 740 18 740 18 762.5 59.5 c 128,-1,283
 785 101 785 101 782 128 c 0,284,285
 780 143 780 143 779 180 c 0,286,287
 778 196 778 196 775 200 c 0,288,289
 773 203 773 203 763 205 c 0,290,291
 761 206 761 206 725 210 c 1,249,250
EndSplineSet
EndChar

StartChar: one
Encoding: 49 49 19
Width: 1024
GlyphClass: 2
Flags: W
LayerCount: 2
Fore
SplineSet
512 819 m 128,-1,1
 616 819 616 819 711 778.5 c 128,-1,2
 806 738 806 738 874.5 669.5 c 128,-1,3
 943 601 943 601 983.5 506 c 128,-1,4
 1024 411 1024 411 1024 307 c 0,5,6
 1024 224 1024 224 998 145.5 c 128,-1,7
 972 67 972 67 925 4.5 c 128,-1,8
 878 -58 878 -58 815 -105.5 c 128,-1,9
 752 -153 752 -153 673.5 -179 c 128,-1,10
 595 -205 595 -205 512 -205 c 0,11,12
 408 -205 408 -205 313 -164.5 c 128,-1,13
 218 -124 218 -124 149.5 -55.5 c 128,-1,14
 81 13 81 13 40.5 108 c 128,-1,15
 0 203 0 203 0 307 c 128,-1,16
 0 411 0 411 40.5 506 c 128,-1,17
 81 601 81 601 149.5 669.5 c 128,-1,18
 218 738 218 738 313 778.5 c 128,-1,0
 408 819 408 819 512 819 c 128,-1,1
512 799 m 0,19,20
 432 799 432 799 357 774 c 128,-1,21
 282 749 282 749 221.5 703.5 c 128,-1,22
 161 658 161 658 115.5 598 c 128,-1,23
 70 538 70 538 45 462.5 c 128,-1,24
 20 387 20 387 20 307 c 128,-1,25
 20 227 20 227 45 152 c 128,-1,26
 70 77 70 77 115.5 16.5 c 128,-1,27
 161 -44 161 -44 221.5 -89.5 c 128,-1,28
 282 -135 282 -135 357 -159.5 c 128,-1,29
 432 -184 432 -184 512 -184 c 0,30,31
 612 -184 612 -184 703 -145.5 c 128,-1,32
 794 -107 794 -107 860 -41 c 128,-1,33
 926 25 926 25 965 116 c 128,-1,34
 1004 207 1004 207 1004 307 c 128,-1,35
 1004 407 1004 407 965 498 c 128,-1,36
 926 589 926 589 860 655 c 128,-1,37
 794 721 794 721 703 760 c 128,-1,38
 612 799 612 799 512 799 c 0,19,20
494 807 m 1,39,-1
 514 807 l 1,40,-1
 514 562 l 1,41,-1
 494 562 l 1,42,-1
 494 807 l 1,39,-1
157 669 m 1,43,-1
 367 459 l 1,44,-1
 352 444 l 1,45,-1
 142 654 l 1,46,-1
 157 669 l 1,43,-1
850 669 m 1,47,-1
 864 654 l 1,48,-1
 654 444 l 1,49,-1
 639 459 l 1,50,-1
 850 669 l 1,47,-1
4 319 m 1,51,-1
 249 319 l 1,52,-1
 249 299 l 1,53,-1
 4 299 l 1,54,-1
 4 319 l 1,51,-1
757 319 m 1,55,-1
 1003 319 l 1,56,-1
 1003 299 l 1,57,-1
 757 299 l 1,58,-1
 757 319 l 1,55,-1
352 172 m 1,59,-1
 367 157 l 1,60,-1
 157 -53 l 1,61,-1
 142 -38 l 1,62,-1
 352 172 l 1,59,-1
654 172 m 1,63,-1
 864 -38 l 1,64,-1
 850 -53 l 1,65,-1
 639 157 l 1,66,-1
 654 172 l 1,63,-1
494 53 m 1,67,-1
 514 53 l 1,68,-1
 514 -193 l 1,69,-1
 494 -193 l 1,70,-1
 494 53 l 1,67,-1
EndSplineSet
EndChar

StartChar: two
Encoding: 50 50 20
Width: 1024
GlyphClass: 2
Flags: W
LayerCount: 2
Fore
SplineSet
512 819 m 128,-1,1
 616 819 616 819 711 778.5 c 128,-1,2
 806 738 806 738 874.5 669.5 c 128,-1,3
 943 601 943 601 983.5 506.5 c 128,-1,4
 1024 412 1024 412 1024 309 c 0,5,6
 1024 205 1024 205 983.5 110 c 128,-1,7
 943 15 943 15 874 -53.5 c 128,-1,8
 805 -122 805 -122 710.5 -162.5 c 128,-1,9
 616 -203 616 -203 512 -203 c 128,-1,10
 408 -203 408 -203 313 -162.5 c 128,-1,11
 218 -122 218 -122 149.5 -53.5 c 128,-1,12
 81 15 81 15 40.5 109.5 c 128,-1,13
 0 204 0 204 0 309 c 0,14,15
 0 413 0 413 40.5 507 c 128,-1,16
 81 601 81 601 150 669.5 c 128,-1,17
 219 738 219 738 313.5 778.5 c 128,-1,0
 408 819 408 819 512 819 c 128,-1,1
512 799 m 0,18,19
 432 799 432 799 357 774 c 128,-1,20
 282 749 282 749 221.5 703.5 c 128,-1,21
 161 658 161 658 115.5 598 c 128,-1,22
 70 538 70 538 45 463 c 128,-1,23
 20 388 20 388 20 309 c 0,24,25
 20 209 20 209 59 117.5 c 128,-1,26
 98 26 98 26 164 -39.5 c 128,-1,27
 230 -105 230 -105 321 -143.5 c 128,-1,28
 412 -182 412 -182 512 -182 c 128,-1,29
 612 -182 612 -182 703 -143.5 c 128,-1,30
 794 -105 794 -105 859.5 -39.5 c 128,-1,31
 925 26 925 26 964.5 117.5 c 128,-1,32
 1004 209 1004 209 1004 309 c 128,-1,33
 1004 409 1004 409 965 499.5 c 128,-1,34
 926 590 926 590 860 655.5 c 128,-1,35
 794 721 794 721 703 760 c 128,-1,36
 612 799 612 799 512 799 c 0,18,19
507 512 m 128,-1,38
 589 512 589 512 647.5 454 c 128,-1,39
 706 396 706 396 706 314 c 128,-1,40
 706 232 706 232 647.5 173.5 c 128,-1,41
 589 115 589 115 507 115 c 128,-1,42
 425 115 425 115 367 173.5 c 128,-1,43
 309 232 309 232 309 314 c 128,-1,44
 309 396 309 396 367 454 c 128,-1,37
 425 512 425 512 507 512 c 128,-1,38
EndSplineSet
EndChar

StartChar: three
Encoding: 51 51 21
Width: 1024
GlyphClass: 2
Flags: W
LayerCount: 2
Fore
SplineSet
431 819 m 1,0,-1
 443 807 l 1,1,-1
 396 744 l 1,2,-1
 458 787 l 1,3,-1
 470 775 l 1,4,-1
 383 649 l 1,5,-1
 325 579 l 1,6,-1
 320 527 l 1,7,-1
 339 490 l 1,8,9
 415 552 415 552 512 552 c 128,-1,10
 609 552 609 552 684 490 c 1,11,-1
 703 525 l 1,12,-1
 699 577 l 1,13,-1
 641 648 l 1,14,-1
 554 774 l 1,15,-1
 567 786 l 1,16,-1
 627 743 l 1,17,-1
 581 806 l 1,18,-1
 593 818 l 1,19,-1
 717 737 l 1,20,-1
 793 604 l 1,21,-1
 811 524 l 1,22,-1
 747 408 l 1,23,24
 749 399 749 399 749 393 c 0,25,26
 749 392 749 392 748 387 c 1,27,-1
 804 407 l 1,28,-1
 879 483 l 1,29,-1
 884 682 l 1,30,-1
 884 683 l 1,31,-1
 901 683 l 1,32,-1
 901 682 l 1,33,-1
 919 475 l 1,34,-1
 823 366 l 1,35,-1
 832 369 l 1,36,-1
 931 379 l 1,37,-1
 1018 313 l 1,38,-1
 1024 220 l 1,39,-1
 1007 217 l 1,40,-1
 986 287 l 1,41,-1
 920 334 l 1,42,-1
 842 326 l 1,43,-1
 732 290 l 1,44,-1
 792 294 l 1,45,-1
 881 267 l 1,46,-1
 954 206 l 1,47,-1
 978 97 l 1,48,-1
 978 95 l 1,49,-1
 963 90 l 1,50,-1
 962 92 l 1,51,-1
 920 178 l 1,52,-1
 856 219 l 1,53,-1
 776 247 l 1,54,-1
 658 240 l 1,55,-1
 665 233 l 1,56,-1
 766 189 l 1,57,-1
 838 124 l 1,58,-1
 872 62 l 1,59,-1
 774 3 l 1,60,-1
 791 98 l 1,61,-1
 730 125 l 1,62,-1
 644 181 l 1,63,-1
 512 188 l 1,64,-1
 380 181 l 1,65,-1
 294 125 l 1,66,-1
 233 98 l 1,67,-1
 250 3 l 1,68,-1
 152 62 l 1,69,-1
 186 124 l 1,70,-1
 257 189 l 1,71,-1
 359 233 l 1,72,-1
 366 240 l 1,73,-1
 247 247 l 1,74,-1
 168 219 l 1,75,-1
 104 178 l 1,76,-1
 62 92 l 1,77,-1
 61 90 l 1,78,-1
 46 95 l 1,79,-1
 46 97 l 1,80,-1
 70 206 l 1,81,-1
 143 267 l 1,82,-1
 232 294 l 1,83,-1
 292 290 l 1,84,-1
 182 326 l 1,85,-1
 104 334 l 1,86,-1
 38 287 l 1,87,-1
 17 217 l 1,88,-1
 0 220 l 1,89,-1
 6 313 l 1,90,-1
 93 379 l 1,91,-1
 192 369 l 1,92,-1
 201 366 l 1,93,-1
 105 475 l 1,94,-1
 123 682 l 1,95,-1
 123 683 l 1,96,-1
 140 683 l 1,97,-1
 140 682 l 1,98,-1
 145 483 l 1,99,-1
 220 407 l 1,100,-1
 276 387 l 1,101,-1
 275 393 l 2,102,103
 275 400 275 400 278 410 c 1,104,-1
 213 525 l 1,105,-1
 232 605 l 1,106,-1
 307 738 l 1,107,-1
 431 819 l 1,0,-1
402 780 m 1,108,-1
 329 733 l 1,109,-1
 357 718 l 1,110,-1
 402 780 l 1,108,-1
623 778 m 1,111,-1
 667 718 l 1,112,-1
 693 732 l 1,113,-1
 623 778 l 1,111,-1
429 746 m 1,114,-1
 368 703 l 1,115,-1
 378 672 l 1,116,-1
 429 746 l 1,114,-1
596 744 m 1,117,-1
 646 672 l 1,118,-1
 656 702 l 1,119,-1
 596 744 l 1,117,-1
316 721 m 1,120,-1
 247 599 l 1,121,-1
 231 527 l 1,122,-1
 286 429 l 1,123,124
 292 440 292 440 308 459 c 0,125,126
 321 474 321 474 323 475 c 0,127,128
 324 476 324 476 325 477 c 128,-1,129
 326 478 326 478 326 479 c 2,130,-1
 303 523 l 1,131,-1
 309 586 l 1,132,-1
 366 655 l 1,133,-1
 350 702 l 1,134,-1
 316 721 l 1,120,-1
707 720 m 1,135,-1
 674 702 l 1,136,-1
 658 655 l 1,137,-1
 715 584 l 1,138,-1
 721 522 l 1,139,-1
 698 478 l 1,140,-1
 699 476 l 2,141,142
 700 475 700 475 701 475 c 0,143,144
 703 473 703 473 715 458 c 1,145,-1
 716 459 l 1,146,-1
 722 451 l 1,147,-1
 722 450 l 1,148,-1
 723 450 l 1,149,150
 733 437 733 437 738 428 c 1,151,-1
 793 526 l 1,152,-1
 776 598 l 1,153,-1
 707 720 l 1,135,-1
512 535 m 0,154,155
 408 535 408 535 334 463 c 0,156,157
 307 437 307 437 296 411 c 0,158,159
 292 400 292 400 292 393 c 0,160,161
 292 389 292 389 293 388 c 1,162,-1
 293 388 l 1,163,164
 325 369 325 369 352 320 c 0,165,166
 381 266 381 266 395 252 c 0,167,168
 407 240 407 240 424 231 c 1,169,-1
 425 230 l 2,170,171
 426 230 426 230 427 229 c 0,172,173
 431 227 431 227 438 224 c 0,174,175
 439 224 439 224 440 224 c 0,176,177
 442 223 442 223 443 223 c 0,178,179
 446 222 446 222 452 220 c 2,180,-1
 454 219 l 2,181,182
 457 218 457 218 459 218 c 0,183,184
 465 217 465 217 478 215 c 0,185,186
 479 215 479 215 481 214.5 c 128,-1,187
 483 214 483 214 485 214 c 128,-1,188
 487 214 487 214 489 213 c 0,189,190
 499 212 499 212 512 213 c 0,191,192
 527 213 527 213 547 215 c 0,193,194
 561 217 561 217 566 218 c 2,195,-1
 571 220 l 2,196,197
 577 222 577 222 581 223 c 0,198,199
 582 223 582 223 584 224 c 2,200,-1
 586 224 l 2,201,202
 592 227 592 227 597 229 c 2,203,-1
 601 231 l 2,204,205
 608 235 608 235 614 239 c 1,206,-1
 614 239 l 1,207,208
 622 245 622 245 629 252 c 0,209,210
 644 267 644 267 673 321 c 0,211,212
 673 322 673 322 674 323 c 2,213,-1
 674 324 l 1,214,-1
 675 326 l 2,215,216
 678 331 678 331 681 336 c 128,-1,217
 684 341 684 341 691 350 c 2,218,-1
 692 351 l 2,219,220
 692 352 692 352 692 352.5 c 128,-1,221
 692 353 692 353 693 353 c 0,222,223
 698 360 698 360 706 368 c 2,224,-1
 709 372 l 1,225,-1
 710 373 l 1,226,-1
 711 373 l 1,227,228
 721 382 721 382 731 388 c 0,229,230
 732 389 732 389 732 393 c 0,231,232
 732 400 732 400 728 410 c 0,233,234
 717 436 717 436 689 463 c 0,235,236
 614 535 614 535 512 535 c 0,154,155
127 530 m 1,237,-1
 123 481 l 1,238,-1
 213 378 l 1,239,-1
 320 338 l 1,240,241
 319 339 319 339 319 339.5 c 128,-1,242
 319 340 319 340 318 341.5 c 128,-1,243
 317 343 317 343 317 344 c 0,244,245
 313 349 313 349 309 354 c 128,-1,246
 305 359 305 359 304 359 c 2,247,-1
 211 392 l 1,248,-1
 128 476 l 1,249,-1
 127 530 l 1,237,-1
897 530 m 1,250,-1
 896 476 l 1,251,-1
 813 392 l 1,252,-1
 720 358 l 1,253,-1
 717 355 l 2,254,255
 711 349 711 349 706 343 c 0,256,257
 706 342 706 342 705 341 c 128,-1,258
 704 340 704 340 704 339.5 c 128,-1,259
 704 339 704 339 703 338 c 1,260,-1
 812 378 l 1,261,-1
 901 481 l 1,262,-1
 897 530 l 1,250,-1
98 361 m 1,263,-1
 22 304 l 1,264,-1
 21 289 l 1,265,-1
 24 298 l 1,266,-1
 100 352 l 1,267,-1
 185 342 l 1,268,-1
 348 290 l 1,269,-1
 343 299 l 1,270,-1
 188 352 l 1,271,-1
 98 361 l 1,263,-1
926 361 m 1,272,-1
 836 352 l 1,273,-1
 681 299 l 1,274,-1
 676 290 l 1,275,-1
 839 342 l 1,276,-1
 924 352 l 1,277,-1
 1000 298 l 1,278,-1
 1003 289 l 1,279,-1
 1002 304 l 1,280,-1
 926 361 l 1,272,-1
234 277 m 1,281,-1
 151 251 l 1,282,-1
 86 197 l 1,283,-1
 78 163 l 1,284,-1
 91 190 l 1,285,-1
 161 235 l 1,286,-1
 245 264 l 1,287,-1
 367 257 l 1,288,-1
 367 257 l 1,289,-1
 367 257 l 1,290,291
 365 260 365 260 361 268 c 1,292,-1
 360 268 l 1,293,-1
 234 277 l 1,281,-1
790 277 m 1,294,-1
 664 268 l 1,295,-1
 663 268 l 1,296,297
 659 261 659 261 657 257 c 1,298,-1
 656 257 l 1,299,-1
 657 257 l 1,300,-1
 779 264 l 1,301,-1
 863 235 l 1,302,-1
 933 190 l 1,303,-1
 946 163 l 1,304,-1
 938 197 l 1,305,-1
 873 251 l 1,306,-1
 790 277 l 1,294,-1
637 236 m 1,307,-1
 634 233 l 2,308,309
 625 225 625 225 613 219 c 0,310,311
 593 208 593 208 572 202 c 1,312,-1
 650 198 l 1,313,-1
 738 140 l 1,314,-1
 810 108 l 1,315,-1
 797 37 l 1,316,-1
 849 68 l 1,317,-1
 824 114 l 1,318,-1
 757 174 l 1,319,-1
 656 218 l 1,320,-1
 637 236 l 1,307,-1
387 236 m 1,321,-1
 368 218 l 1,322,-1
 267 174 l 1,323,-1
 200 114 l 1,324,-1
 175 68 l 1,325,-1
 227 37 l 1,326,-1
 214 108 l 1,327,-1
 286 140 l 1,328,-1
 374 198 l 1,329,-1
 453 202 l 1,330,331
 429 208 429 208 407 221 c 0,332,333
 403 223 403 223 401 225 c 0,334,335
 400 225 400 225 397 227 c 0,336,337
 391 231 391 231 390 233 c 2,338,-1
 387 236 l 1,321,-1
EndSplineSet
EndChar

StartChar: four
Encoding: 52 52 22
Width: 1024
GlyphClass: 2
Flags: W
LayerCount: 2
Fore
SplineSet
501 694 m 0,0,1
 644 699 644 699 823 591 c 0,2,3
 893 549 893 549 947 502.5 c 128,-1,4
 1001 456 1001 456 1021 423 c 2,5,-1
 1024 418 l 1,6,-1
 1021 412 l 2,7,8
 1001 379 1001 379 947.5 333 c 128,-1,9
 894 287 894 287 823 245 c 0,10,11
 644 137 644 137 501 141 c 0,12,13
 349 146 349 146 189 239 c 0,14,15
 119 280 119 280 69 326 c 128,-1,16
 19 372 19 372 2 414 c 2,17,-1
 0 418 l 1,18,-1
 2 422 l 2,19,20
 19 464 19 464 68.5 510 c 128,-1,21
 118 556 118 556 188 597 c 0,22,23
 348 689 348 689 501 694 c 0,0,1
502 673 m 0,24,25
 355 668 355 668 198 578 c 0,26,27
 134 541 134 541 88 497.5 c 128,-1,28
 42 454 42 454 25 418 c 1,29,30
 41 382 41 382 88 338.5 c 128,-1,31
 135 295 135 295 199 257 c 0,32,33
 356 166 356 166 502 162 c 0,34,35
 640 158 640 158 813 262 c 0,36,37
 877 301 877 301 927 344.5 c 128,-1,38
 977 388 977 388 996 418 c 1,39,40
 977 448 977 448 927 491.5 c 128,-1,41
 877 535 877 535 813 573 c 0,42,43
 640 677 640 677 502 673 c 0,24,25
147 436 m 1,44,-1
 391 427 l 1,45,-1
 391 406 l 1,46,-1
 146 415 l 1,47,-1
 147 436 l 1,44,-1
630 427 m 1,48,-1
 863 427 l 1,49,-1
 863 406 l 1,50,-1
 630 406 l 1,51,-1
 630 427 l 1,48,-1
EndSplineSet
EndChar

StartChar: five
Encoding: 53 53 23
Width: 1024
GlyphClass: 2
Flags: W
LayerCount: 2
Fore
SplineSet
516 819 m 1,0,-1
 537 819 l 1,1,-1
 537 695 l 1,2,3
 590 624 590 624 647 535 c 0,4,5
 763 351 763 351 780 256 c 0,6,7
 788 213 788 213 788 164.5 c 128,-1,8
 788 116 788 116 785.5 84.5 c 128,-1,9
 783 53 783 53 773 6.5 c 128,-1,10
 763 -40 763 -40 760.5 -50 c 128,-1,11
 758 -60 758 -60 748 -95 c 0,12,13
 737 -134 737 -134 715 -161 c 0,14,15
 694 -187 694 -187 674 -190 c 2,16,-1
 673 -190 l 2,17,18
 667 -191 667 -191 658 -187 c 0,19,20
 650 -184 650 -184 641 -180 c 0,21,22
 624 -172 624 -172 602 -159 c 0,23,24
 588 -150 588 -150 559 -131 c 1,25,26
 541 -152 541 -152 526 -165 c 0,27,28
 477 -205 477 -205 436 -205 c 0,29,30
 392 -205 392 -205 332 -162 c 0,31,32
 275 -122 275 -122 264 -89 c 0,33,34
 259 -75 259 -75 252 -26 c 0,35,36
 246 23 246 23 243 73 c 0,37,38
 234 202 234 202 238 243 c 0,39,40
 244 288 244 288 268.5 353 c 128,-1,41
 293 418 293 418 324 465 c 0,42,43
 368 529 368 529 516 696 c 1,44,-1
 516 819 l 1,0,-1
526 674 m 1,45,46
 380 508 380 508 342 453 c 0,47,48
 313 410 313 410 288.5 345.5 c 128,-1,49
 264 281 264 281 259 241 c 0,50,51
 257 222 257 222 259 153 c 1,52,53
 363 115 363 115 485 115 c 0,54,55
 553 115 553 115 621 123 c 0,56,57
 718 135 718 135 767 161 c 1,58,59
 767 211 767 211 759 252 c 0,60,61
 743 342 743 342 629 523 c 0,62,63
 577 605 577 605 526 674 c 1,45,46
515 383 m 128,-1,65
 542 383 542 383 561 364 c 128,-1,66
 580 345 580 345 580 318 c 128,-1,67
 580 291 580 291 561 272 c 128,-1,68
 542 253 542 253 515 253 c 128,-1,69
 488 253 488 253 469 272 c 128,-1,70
 450 291 450 291 450 318 c 128,-1,71
 450 345 450 345 469 364 c 128,-1,64
 488 383 488 383 515 383 c 128,-1,65
515 362 m 128,-1,73
 497 362 497 362 484 349 c 128,-1,74
 471 336 471 336 471 318 c 128,-1,75
 471 300 471 300 484 287 c 128,-1,76
 497 274 497 274 515 274 c 128,-1,77
 533 274 533 274 546 287 c 128,-1,78
 559 300 559 300 559 318 c 128,-1,79
 559 336 559 336 546 349 c 128,-1,72
 533 362 533 362 515 362 c 128,-1,73
767 138 m 1,80,81
 715 113 715 113 624 102 c 0,82,83
 556 94 556 94 485 94 c 0,84,85
 364 94 364 94 261 130 c 1,86,87
 263 81 263 81 264 74 c 0,88,89
 264 70 264 70 264.5 62.5 c 128,-1,90
 265 55 265 55 266 52 c 0,91,92
 344 23 344 23 510 23 c 0,93,94
 515 23 515 23 524 23 c 0,95,96
 572 23 572 23 599.5 24 c 128,-1,97
 627 25 627 25 673 34 c 128,-1,98
 719 43 719 43 761 62 c 1,99,100
 766 101 766 101 767 138 c 1,80,81
757 38 m 1,101,102
 713 20 713 20 663 11.5 c 128,-1,103
 613 3 613 3 589 2.5 c 128,-1,104
 565 2 565 2 510 2 c 0,105,106
 464 2 464 2 430.5 3 c 128,-1,107
 397 4 397 4 350 10.5 c 128,-1,108
 303 17 303 17 268 29 c 1,109,110
 272 -18 272 -18 273 -24 c 0,111,112
 278 -68 278 -68 283 -82 c 0,113,114
 287 -93 287 -93 304.5 -111 c 128,-1,115
 322 -129 322 -129 344 -145 c 0,116,117
 398 -184 398 -184 436 -184 c 0,118,119
 468 -184 468 -184 512 -148 c 0,120,121
 522 -140 522 -140 531.5 -131 c 128,-1,122
 541 -122 541 -122 545 -116 c 2,123,-1
 550 -111 l 1,124,-1
 556 -104 l 1,125,-1
 564 -110 l 2,126,127
 587 -125 587 -125 613 -140 c 0,128,129
 633 -152 633 -152 650 -161 c 0,130,131
 660 -166 660 -166 665 -167.5 c 128,-1,132
 670 -169 670 -169 671 -169 c 0,133,134
 683 -167 683 -167 699 -147 c 0,135,136
 718 -124 718 -124 728 -89 c 0,137,138
 748 -14 748 -14 757 38 c 1,101,102
EndSplineSet
EndChar

StartChar: six
Encoding: 54 54 24
Width: 1024
GlyphClass: 2
Flags: W
LayerCount: 2
Fore
SplineSet
502 788 m 1,0,-1
 522 788 l 1,1,2
 522 788 522 788 522 786 c 0,3,4
 531 698 531 698 548 598 c 0,5,6
 562 512 562 512 577 460 c 0,7,8
 585 430 585 430 594 410 c 0,9,10
 602 392 602 392 609 387 c 128,-1,11
 616 382 616 382 638 380 c 0,12,13
 659 378 659 378 690 380 c 0,14,15
 742 383 742 383 830 395 c 0,16,17
 936 411 936 411 1016 427 c 1,18,-1
 1018 428 l 1,19,-1
 1024 409 l 1,20,21
 1022 409 1022 409 1022 408 c 0,22,23
 939 374 939 374 848 329 c 0,24,25
 771 291 771 291 725 260 c 0,26,27
 699 242 699 242 684 227 c 0,28,29
 670 213 670 213 669 204 c 0,30,31
 666 182 666 182 691 119 c 0,32,33
 711 68 711 68 748 -9 c 0,34,35
 793 -101 793 -101 834 -172 c 1,36,-1
 835 -174 l 1,37,-1
 819 -185 l 1,38,39
 818 -183 818 -183 817 -184 c 1,40,41
 762 -119 762 -119 693 -47 c 0,42,43
 634 13 634 13 589 47 c 0,44,45
 536 89 536 89 511.5 89.5 c 128,-1,46
 487 90 487 90 435 49 c 0,47,48
 390 14 390 14 331 -46 c 0,49,50
 263 -116 263 -116 207 -184 c 1,51,-1
 207 -184 l 1,52,-1
 206 -185 l 1,53,-1
 190 -173 l 1,54,55
 191 -172 191 -172 190 -172 c 1,56,57
 238 -98 238 -98 285 -11 c 0,58,59
 325 64 325 64 344 116 c 0,60,61
 366 178 366 178 356 201 c 0,62,63
 346 225 346 225 289 263 c 0,64,65
 243 294 243 294 168 332 c 0,66,67
 81 376 81 376 2 408 c 1,68,-1
 0 409 l 1,69,-1
 6 428 l 2,70,71
 8 428 8 428 8 427 c 0,72,73
 95 408 95 408 194 393 c 0,74,75
 279 380 279 380 334 377 c 0,76,77
 366 376 366 376 386.5 378.5 c 128,-1,78
 407 381 407 381 414 387 c 1,79,-1
 415 387 l 1,80,81
 422 392 422 392 430 411.5 c 128,-1,82
 438 431 438 431 447 462 c 0,83,84
 462 515 462 515 476 599 c 0,85,86
 493 699 493 699 502 786 c 1,87,-1
 502 788 l 1,0,-1
512 713 m 1,88,89
 502 631 502 631 496 596 c 0,90,91
 482 511 482 511 467 457 c 0,92,93
 458 426 458 426 449 404 c 0,94,95
 438 380 438 380 426 371 c 128,-1,96
 414 362 414 362 389 358 c 0,97,98
 367 355 367 355 333 357 c 0,99,100
 276 359 276 359 191 373 c 0,101,102
 154 379 154 379 83 393 c 1,103,104
 153 362 153 362 177 350 c 0,105,106
 252 312 252 312 301 280 c 0,107,108
 362 239 362 239 375 209 c 128,-1,109
 388 179 388 179 363 109 c 0,110,111
 345 58 345 58 303 -20 c 0,112,113
 292 -41 292 -41 256 -99 c 1,114,115
 300 -49 300 -49 317 -32 c 0,116,117
 377 30 377 30 422 65 c 0,118,119
 480 110 480 110 512 109.5 c 128,-1,120
 544 109 544 109 602 63 c 0,121,122
 647 28 647 28 707 -33 c 0,123,124
 731 -57 731 -57 781 -114 c 1,125,126
 748 -53 748 -53 730 -18 c 0,127,128
 690 62 690 62 672 111 c 0,129,130
 646 179 646 179 649 206 c 0,131,132
 651 222 651 222 670 242 c 0,133,134
 686 258 686 258 714 277 c 0,135,136
 760 308 760 308 838 347 c 0,137,138
 873 364 873 364 943 394 c 1,139,140
 868 380 868 380 833 375 c 0,141,142
 747 362 747 362 691 359 c 0,143,144
 658 357 658 357 636 360 c 0,145,146
 610 362 610 362 598 370 c 128,-1,147
 586 378 586 378 575 402 c 0,148,149
 566 422 566 422 558 455 c 0,150,151
 543 509 543 509 528 594 c 0,152,153
 521 639 521 639 512 713 c 1,88,89
500 445 m 1,154,-1
 520 445 l 1,155,-1
 520 251 l 1,156,-1
 704 321 l 1,157,-1
 711 303 l 1,158,-1
 527 233 l 1,159,-1
 638 101 l 1,160,-1
 623 88 l 1,161,-1
 511 221 l 1,162,-1
 405 82 l 1,163,-1
 389 94 l 1,164,-1
 494 232 l 1,165,-1
 318 300 l 1,166,-1
 325 318 l 1,167,-1
 500 251 l 1,168,-1
 500 445 l 1,154,-1
EndSplineSet
EndChar

StartChar: seven
Encoding: 55 55 25
Width: 1024
GlyphClass: 2
Flags: W
LayerCount: 2
Fore
SplineSet
512 819 m 128,-1,1
 616 819 616 819 711 778.5 c 128,-1,2
 806 738 806 738 874.5 669.5 c 128,-1,3
 943 601 943 601 983.5 506 c 128,-1,4
 1024 411 1024 411 1024 307 c 0,5,6
 1024 223 1024 223 998.5 145 c 128,-1,7
 973 67 973 67 925.5 4.5 c 128,-1,8
 878 -58 878 -58 815 -105.5 c 128,-1,9
 752 -153 752 -153 674 -179 c 128,-1,10
 596 -205 596 -205 512 -205 c 0,11,12
 408 -205 408 -205 313 -164.5 c 128,-1,13
 218 -124 218 -124 149.5 -55.5 c 128,-1,14
 81 13 81 13 40.5 108 c 128,-1,15
 0 203 0 203 0 307 c 128,-1,16
 0 411 0 411 40.5 505.5 c 128,-1,17
 81 600 81 600 149.5 669 c 128,-1,18
 218 738 218 738 313 778.5 c 128,-1,0
 408 819 408 819 512 819 c 128,-1,1
512 799 m 128,-1,20
 412 799 412 799 321 759.5 c 128,-1,21
 230 720 230 720 164 654.5 c 128,-1,22
 98 589 98 589 59.5 498 c 128,-1,23
 21 407 21 407 21 307 c 0,24,25
 21 227 21 227 45.5 152 c 128,-1,26
 70 77 70 77 115.5 16.5 c 128,-1,27
 161 -44 161 -44 221.5 -89.5 c 128,-1,28
 282 -135 282 -135 357 -159.5 c 128,-1,29
 432 -184 432 -184 512 -184 c 0,30,31
 612 -184 612 -184 703 -145 c 128,-1,32
 794 -106 794 -106 860 -40.5 c 128,-1,33
 926 25 926 25 964.5 116 c 128,-1,34
 1003 207 1003 207 1003 307 c 128,-1,35
 1003 407 1003 407 964.5 498 c 128,-1,36
 926 589 926 589 860 655 c 128,-1,37
 794 721 794 721 703 760 c 128,-1,19
 612 799 612 799 512 799 c 128,-1,20
467 654 m 1,38,-1
 480 638 l 1,39,40
 452 615 452 615 449 566 c 0,41,42
 447 525 447 525 463 466 c 0,43,44
 468 447 468 447 474.5 427.5 c 128,-1,45
 481 408 481 408 487 393 c 128,-1,46
 493 378 493 378 498.5 366 c 128,-1,47
 504 354 504 354 507 347 c 2,48,-1
 510 341 l 1,49,-1
 491 332 l 1,50,51
 461 392 461 392 443 461 c 0,52,53
 426 523 426 523 429 567 c 0,54,55
 432 625 432 625 467 654 c 1,38,-1
561 654 m 1,56,57
 596 625 596 625 599 567 c 0,58,59
 601 523 601 523 584 461 c 0,60,61
 576 430 576 430 564 398 c 128,-1,62
 552 366 552 366 544 349 c 2,63,-1
 536 332 l 1,64,-1
 517 341 l 1,65,66
 546 399 546 399 564 466 c 0,67,68
 580 525 580 525 578 566 c 0,69,70
 575 615 575 615 547 638 c 1,71,-1
 561 654 l 1,56,57
801 382 m 0,72,73
 815 383 815 383 827 382 c 0,74,75
 886 379 886 379 915 343 c 1,76,-1
 898 330 l 1,77,78
 875 358 875 358 826 361 c 0,79,80
 784 363 784 363 726 348 c 0,81,82
 696 340 696 340 665 328.5 c 128,-1,83
 634 317 634 317 617 309 c 2,84,-1
 601 301 l 1,85,-1
 592 320 l 1,86,87
 652 350 652 350 721 368 c 0,88,89
 764 380 764 380 801 382 c 0,72,73
200 380 m 0,90,91
 245 383 245 383 306 366 c 0,92,93
 337 358 337 358 369.5 346 c 128,-1,94
 402 334 402 334 419 326 c 2,95,-1
 435 318 l 1,96,-1
 426 300 l 1,97,98
 368 329 368 329 301 347 c 0,99,100
 244 362 244 362 201 359 c 0,101,102
 151 356 151 356 129 328 c 1,103,-1
 112 341 l 1,104,105
 141 377 141 377 200 380 c 0,90,91
601 294 m 1,106,107
 659 265 659 265 726 247 c 0,108,109
 785 231 785 231 826 233 c 0,110,111
 876 236 876 236 898 263 c 1,112,-1
 914 251 l 1,113,114
 885 216 885 216 827 213 c 0,115,116
 783 211 783 211 721 227 c 0,117,118
 690 235 690 235 657.5 247 c 128,-1,119
 625 259 625 259 609 267 c 2,120,-1
 592 275 l 1,121,-1
 601 294 l 1,106,107
426 292 m 1,122,-1
 435 274 l 1,123,124
 375 244 375 244 306 225 c 0,125,126
 244 208 244 208 200 211 c 0,127,128
 141 214 141 214 112 249 c 1,129,-1
 129 262 l 1,130,131
 152 234 152 234 201 231 c 0,132,133
 243 229 243 229 301 245 c 0,134,135
 331 253 331 253 362 264.5 c 128,-1,136
 393 276 393 276 410 284 c 2,137,-1
 426 292 l 1,122,-1
565 240 m 1,138,139
 629 219 629 219 691 184 c 0,140,141
 745 153 745 153 776 118 c 0,142,143
 815 75 815 75 811 30 c 1,144,-1
 791 32 l 1,145,146
 794 68 794 68 761 105 c 0,147,148
 733 136 733 136 681 166 c 0,149,150
 654 181 654 181 623.5 195 c 128,-1,151
 593 209 593 209 576 215 c 2,152,-1
 559 221 l 1,153,-1
 565 240 l 1,138,139
467 237 m 1,154,-1
 473 218 l 1,155,156
 411 198 411 198 351 163 c 0,157,158
 299 133 299 133 271 102 c 0,159,160
 238 65 238 65 241 29 c 1,161,-1
 221 27 l 1,162,163
 217 72 217 72 256 115 c 0,164,165
 287 149 287 149 341 181 c 0,166,167
 369 197 369 197 400 211 c 128,-1,168
 431 225 431 225 449 231 c 2,169,-1
 467 237 l 1,154,-1
554 215 m 1,170,171
 574 153 574 153 609 93 c 0,172,173
 639 41 639 41 671 13 c 0,174,175
 708 -20 708 -20 743 -17 c 1,176,-1
 745 -38 l 1,177,178
 700 -42 700 -42 657 -3 c 0,179,180
 623 28 623 28 591 82 c 0,181,182
 584 95 584 95 577 109 c 128,-1,183
 570 123 570 123 564.5 135 c 128,-1,184
 559 147 559 147 554 158 c 128,-1,185
 549 169 549 169 545.5 178 c 128,-1,186
 542 187 542 187 539.5 194 c 128,-1,187
 537 201 537 201 536 205 c 2,188,-1
 535 208 l 1,189,-1
 554 215 l 1,170,171
478 211 m 1,190,-1
 497 205 l 1,191,192
 476 141 476 141 441 79 c 0,193,194
 410 25 410 25 375 -6 c 0,195,196
 332 -45 332 -45 287 -41 c 1,197,-1
 289 -20 l 1,198,199
 325 -23 325 -23 361 10 c 0,200,201
 392 38 392 38 423 90 c 0,202,203
 438 117 438 117 452 147 c 128,-1,204
 466 177 466 177 472 194 c 2,205,-1
 478 211 l 1,190,-1
EndSplineSet
EndChar

StartChar: eight
Encoding: 56 56 26
Width: 1024
GlyphClass: 2
Flags: W
LayerCount: 2
Fore
SplineSet
884 686 m 1,0,-1
 902 676 l 1,1,-1
 723 372 l 1,2,-1
 1024 172 l 1,3,-1
 1013 155 l 1,4,-1
 708 358 l 1,5,-1
 5 185 l 1,6,-1
 0 205 l 1,7,-1
 703 378 l 1,8,-1
 884 686 l 1,0,-1
EndSplineSet
EndChar

StartChar: nine
Encoding: 57 57 27
Width: 1024
GlyphClass: 2
Flags: W
LayerCount: 2
Fore
SplineSet
918 819 m 0,0,1
 946 820 946 820 977 795 c 0,2,3
 1007 771 1007 771 1019 740 c 0,4,5
 1026 723 1026 723 1023 691 c 0,6,7
 1020 666 1020 666 1010 627 c 0,8,9
 996 574 996 574 974 511 c 0,10,11
 965 486 965 486 944 452 c 128,-1,12
 923 418 923 418 897 386 c 128,-1,13
 871 354 871 354 844 328 c 0,14,15
 836 320 836 320 828 309 c 128,-1,16
 820 298 820 298 817 293 c 128,-1,17
 814 288 814 288 805.5 271.5 c 128,-1,18
 797 255 797 255 796 254 c 0,19,20
 771 207 771 207 732 191 c 0,21,22
 697 176 697 176 648 107 c 0,23,24
 639 94 639 94 625 73 c 128,-1,25
 611 52 611 52 601.5 38 c 128,-1,26
 592 24 592 24 584 17 c 0,27,28
 576 9 576 9 575 4 c 0,29,30
 575 3 575 3 576 2 c 0,31,32
 582 -3 582 -3 603 -6 c 0,33,34
 605 -6 605 -6 615 -6 c 0,35,36
 626 -5 626 -5 636 -7 c 0,37,38
 666 -14 666 -14 736 -55 c 0,39,40
 756 -66 756 -66 765 -74 c 0,41,42
 769 -77 769 -77 772 -81 c 0,43,44
 773 -83 773 -83 773 -84 c 0,45,46
 774 -86 774 -86 774 -87 c 2,47,48
 774 -87 774 -87 774 -90 c 2,49,-1
 773 -92 l 2,50,51
 772 -95 772 -95 771 -96 c 128,-1,52
 770 -97 770 -97 767 -99 c 0,53,54
 766 -100 766 -100 764.5 -100 c 128,-1,55
 763 -100 763 -100 760 -100 c 128,-1,56
 757 -100 757 -100 752 -100 c 0,57,58
 747 -99 747 -99 732 -96 c 128,-1,59
 717 -93 717 -93 701 -92 c 1,60,61
 711 -102 711 -102 714 -107 c 0,62,63
 715 -109 715 -109 715 -112 c 0,64,65
 715 -113 715 -113 715 -116 c 0,66,67
 715 -118 715 -118 714 -119.5 c 128,-1,68
 713 -121 713 -121 712 -123 c 0,69,70
 711 -124 711 -124 709 -125 c 128,-1,71
 707 -126 707 -126 704 -126 c 0,72,73
 699 -127 699 -127 688 -124 c 0,74,75
 672 -120 672 -120 667 -119 c 0,76,77
 596 -99 596 -99 569 -114 c 0,78,79
 527 -135 527 -135 476 -123 c 0,80,81
 439 -115 439 -115 413 -98 c 0,82,83
 408 -96 408 -96 402 -95 c 0,84,85
 392 -94 392 -94 379 -93 c 0,86,87
 353 -92 353 -92 316 -92 c 0,88,89
 274 -92 274 -92 258 -91 c 0,90,91
 244 -90 244 -90 240 -90 c 0,92,93
 239 -90 239 -90 236 -88 c 0,94,95
 235 -87 235 -87 234 -87 c 0,96,97
 232 -86 232 -86 231 -85 c 128,-1,98
 230 -84 230 -84 229 -81 c 2,99,-1
 229 -78 l 1,100,-1
 229 -76 l 2,101,102
 229 -74 229 -74 230 -72 c 0,103,104
 231 -71 231 -71 232 -69 c 0,105,106
 237 -64 237 -64 255 -58 c 0,107,108
 272 -52 272 -52 287 -48 c 0,109,110
 295 -46 295 -46 312 -42 c 1,111,112
 311 -42 311 -42 305 -39 c 128,-1,113
 299 -36 299 -36 296.5 -34.5 c 128,-1,114
 294 -33 294 -33 288.5 -29.5 c 128,-1,115
 283 -26 283 -26 279 -22 c 128,-1,116
 275 -18 275 -18 269.5 -11.5 c 128,-1,117
 264 -5 264 -5 259 3 c 0,118,119
 255 10 255 10 248.5 18 c 128,-1,120
 242 26 242 26 236.5 31.5 c 128,-1,121
 231 37 231 37 220.5 48 c 128,-1,122
 210 59 210 59 205 65 c 0,123,124
 163 110 163 110 149 147 c 0,125,126
 135 186 135 186 105 206 c 0,127,128
 87 217 87 217 46 228 c 0,129,130
 28 233 28 233 15 252 c 0,131,132
 4 269 4 269 1 293 c 0,133,134
 -7 349 -7 349 29 381 c 0,135,136
 48 396 48 396 69 393 c 0,137,138
 81 391 81 391 102 381 c 0,139,140
 122 371 122 371 129 369 c 0,141,142
 141 366 141 366 151 373 c 128,-1,143
 161 380 161 380 164 396 c 0,144,145
 166 411 166 411 161 438 c 0,146,147
 160 443 160 443 154.5 469 c 128,-1,148
 149 495 149 495 147 513.5 c 128,-1,149
 145 532 145 532 145 551 c 0,150,151
 146 582 146 582 160 596 c 128,-1,152
 174 610 174 610 193 605 c 0,153,154
 209 601 209 601 222 587 c 0,155,156
 235 572 235 572 233 553 c 0,157,158
 232 529 232 529 257 338 c 0,159,160
 262 302 262 302 280.5 264 c 128,-1,161
 299 226 299 226 323.5 188 c 128,-1,162
 348 150 348 150 356 129 c 0,163,164
 363 112 363 112 374 104 c 0,165,166
 381 99 381 99 385 101 c 0,167,168
 387 102 387 102 387 108 c 0,169,170
 386 121 386 121 372 140 c 0,171,172
 355 162 355 162 355 177 c 0,173,174
 354 184 354 184 360 198 c 0,175,176
 363 205 363 205 362 215 c 0,177,178
 358 232 358 232 339 261 c 0,179,180
 301 319 301 319 324 393 c 0,181,182
 327 403 327 403 333 419.5 c 128,-1,183
 339 436 339 436 342 445.5 c 128,-1,184
 345 455 345 455 347 466.5 c 128,-1,185
 349 478 349 478 347 487 c 0,186,187
 340 524 340 524 378 596 c 0,188,189
 382 603 382 603 388.5 616 c 128,-1,190
 395 629 395 629 399.5 637.5 c 128,-1,191
 404 646 404 646 410 659 c 128,-1,192
 416 672 416 672 420.5 682 c 128,-1,193
 425 692 425 692 430 704.5 c 128,-1,194
 435 717 435 717 439 728 c 0,195,196
 451 765 451 765 473 783 c 0,197,198
 494 799 494 799 520 798 c 0,199,200
 561 796 561 796 599 758 c 0,201,202
 614 744 614 744 617 711 c 0,203,204
 620 683 620 683 616 647 c 0,205,206
 606 573 606 573 575 508 c 0,207,208
 552 460 552 460 538 357 c 0,209,210
 535 336 535 336 524 226 c 0,211,212
 523 212 523 212 528 202 c 0,213,214
 532 194 532 194 538 193 c 0,215,216
 545 193 545 193 553 204 c 0,217,218
 564 220 564 220 571 251 c 0,219,220
 578 286 578 286 590 301 c 0,221,222
 595 307 595 307 612 316 c 0,223,224
 620 320 620 320 625 331 c 0,225,226
 633 349 633 349 637 393 c 0,227,228
 643 471 643 471 700 545 c 0,229,230
 705 551 705 551 718 567.5 c 128,-1,231
 731 584 731 584 737 592.5 c 128,-1,232
 743 601 743 601 752.5 615 c 128,-1,233
 762 629 762 629 768.5 643 c 128,-1,234
 775 657 775 657 780 671 c 0,235,236
 807 746 807 746 845 781.5 c 128,-1,237
 883 817 883 817 918 819 c 0,0,1
919 799 m 0,238,239
 892 798 892 798 858 766 c 128,-1,240
 824 734 824 734 799 665 c 0,241,242
 792 645 792 645 780.5 624 c 128,-1,243
 769 603 769 603 763.5 594.5 c 128,-1,244
 758 586 758 586 737.5 560 c 128,-1,245
 717 534 717 534 716 533 c 0,246,247
 699 511 699 511 688.5 493 c 128,-1,248
 678 475 678 475 668.5 448.5 c 128,-1,249
 659 422 659 422 657 391 c 0,250,251
 652 344 652 344 644 323 c 0,252,253
 637 306 637 306 621 299 c 0,254,255
 608 292 608 292 605 288 c 0,256,257
 596 277 596 277 590 247 c 0,258,259
 582 211 582 211 568 191.5 c 128,-1,260
 554 172 554 172 537 173 c 128,-1,261
 520 174 520 174 510 192 c 0,262,263
 501 208 501 208 504 228 c 0,264,265
 515 340 515 340 517 360 c 0,266,267
 532 465 532 465 557 517 c 0,268,269
 586 578 586 578 595 649 c 0,270,271
 600 685 600 685 598 709 c 0,272,273
 595 734 595 734 585 743 c 0,274,275
 552 776 552 776 519 778 c 0,276,277
 501 779 501 779 486 768 c 0,278,279
 468 754 468 754 458 722 c 0,280,281
 453 708 453 708 447.5 693.5 c 128,-1,282
 442 679 442 679 434.5 663.5 c 128,-1,283
 427 648 427 648 422 638 c 128,-1,284
 417 628 417 628 408 610.5 c 128,-1,285
 399 593 399 593 396 587 c 0,286,287
 361 520 361 520 367 491 c 0,288,289
 370 475 370 475 367 459.5 c 128,-1,290
 364 444 364 444 354.5 419 c 128,-1,291
 345 394 345 394 343 387 c 0,292,293
 323 322 323 322 356 272 c 0,294,295
 377 240 377 240 382 220 c 0,296,297
 385 205 385 205 379 190 c 0,298,299
 375 180 375 180 375 178 c 0,300,301
 376 169 376 169 388 152 c 1,302,-1
 389 152 l 1,303,304
 406 128 406 128 407 110 c 0,305,306
 409 89 409 89 393 82 c 0,307,308
 379 76 379 76 363 88 c 0,309,310
 348 99 348 99 338 121 c 0,311,312
 331 138 331 138 306 176.5 c 128,-1,313
 281 215 281 215 261.5 255.5 c 128,-1,314
 242 296 242 296 237 335 c 0,315,316
 235 353 235 353 230.5 386 c 128,-1,317
 226 419 226 419 223.5 438.5 c 128,-1,318
 221 458 221 458 218 482.5 c 128,-1,319
 215 507 215 507 214 524.5 c 128,-1,320
 213 542 213 542 213 554 c 0,321,322
 213 564 213 564 205.5 573.5 c 128,-1,323
 198 583 198 583 188 586 c 0,324,325
 179 588 179 588 174 582 c 0,326,327
 166 573 166 573 165 550 c 0,328,329
 165 533 165 533 167 516 c 128,-1,330
 169 499 169 499 174.5 473 c 128,-1,331
 180 447 180 447 181 441 c 0,332,333
 186 410 186 410 184 394 c 0,334,335
 181 369 181 369 163 356 c 0,336,337
 146 344 146 344 124 349 c 0,338,339
 116 351 116 351 93 363 c 0,340,341
 76 372 76 372 67 373 c 0,342,343
 55 375 55 375 43 365 c 0,344,345
 15 341 15 341 21 296 c 0,346,347
 24 276 24 276 33 263 c 0,348,349
 41 251 41 251 51 248 c 1,350,-1
 52 247 l 1,351,352
 97 234 97 234 116 223 c 0,353,354
 152 200 152 200 168 154 c 0,355,356
 180 121 180 121 219 79 c 0,357,358
 223 75 223 75 234.5 63 c 128,-1,359
 246 51 246 51 251 45.5 c 128,-1,360
 256 40 256 40 263.5 30.5 c 128,-1,361
 271 21 271 21 276 13 c 128,-1,362
 281 5 281 5 287 -2 c 128,-1,363
 293 -9 293 -9 298.5 -14 c 128,-1,364
 304 -19 304 -19 310 -23 c 128,-1,365
 316 -27 316 -27 321 -30 c 128,-1,366
 326 -33 326 -33 329.5 -35 c 128,-1,367
 333 -37 333 -37 336 -37 c 2,368,-1
 338 -38 l 1,369,-1
 335 -58 l 1,370,-1
 332 -58 l 2,371,372
 319 -61 319 -61 292 -68 c 0,373,374
 280 -71 280 -71 279 -71 c 1,375,376
 282 -71 282 -71 294.5 -71.5 c 128,-1,377
 307 -72 307 -72 316 -72 c 0,378,379
 354 -72 354 -72 380 -73 c 0,380,381
 396 -74 396 -74 405 -75 c 0,382,383
 418 -77 418 -77 424 -80 c 2,384,-1
 425 -80 l 1,385,386
 448 -96 448 -96 480 -104 c 0,387,388
 524 -113 524 -113 560 -95 c 1,389,-1
 560 -96 l 1,390,391
 595 -78 595 -78 672 -100 c 0,392,393
 674 -101 674 -101 678 -101.5 c 128,-1,394
 682 -102 682 -102 683 -102 c 1,395,396
 678 -97 678 -97 678 -95 c 0,397,398
 674 -89 674 -89 674 -84 c 0,399,400
 675 -76 675 -76 683 -73 c 0,401,402
 686 -71 686 -71 692 -71 c 0,403,404
 703 -70 703 -70 732 -76 c 1,405,406
 731 -75 731 -75 730 -74 c 2,407,-1
 726 -72 l 2,408,409
 688 -50 688 -50 665.5 -39.5 c 128,-1,410
 643 -29 643 -29 631 -27 c 0,411,412
 624 -25 624 -25 616 -26 c 0,413,414
 605 -27 605 -27 600 -26 c 0,415,416
 573 -22 573 -22 563 -13.5 c 128,-1,417
 553 -5 553 -5 555 8 c 0,418,419
 557 19 557 19 570 31 c 0,420,421
 576 37 576 37 585 50 c 128,-1,422
 594 63 594 63 608 84 c 128,-1,423
 622 105 622 105 632 119 c 0,424,425
 683 192 683 192 724 209 c 0,426,427
 744 218 744 218 756 230.5 c 128,-1,428
 768 243 768 243 779 264 c 0,429,430
 781 268 781 268 785 276 c 128,-1,431
 789 284 789 284 792 289 c 128,-1,432
 795 294 795 294 799.5 302 c 128,-1,433
 804 310 804 310 808 316 c 128,-1,434
 812 322 812 322 818 329 c 128,-1,435
 824 336 824 336 830 342 c 0,436,437
 868 380 868 380 905.5 432 c 128,-1,438
 943 484 943 484 955 518 c 0,439,440
 977 579 977 579 990 632 c 0,441,442
 1000 670 1000 670 1002 694 c 0,443,444
 1005 721 1005 721 1001 732 c 0,445,446
 990 758 990 758 964.5 779 c 128,-1,447
 939 800 939 800 919 799 c 0,238,239
888 793 m 0,448,449
 894 799 894 799 909 798 c 128,-1,450
 924 797 924 797 940.5 791 c 128,-1,451
 957 785 957 785 972 776 c 128,-1,452
 987 767 987 767 993 755.5 c 128,-1,453
 999 744 999 744 993 733 c 0,454,455
 978 717 978 717 949.5 725.5 c 128,-1,456
 921 734 921 734 898 757 c 128,-1,457
 875 780 875 780 888 793 c 0,448,449
479 747 m 0,458,459
 484 777 484 777 527 769 c 0,460,461
 568 762 568 762 584 736 c 0,462,463
 592 724 592 724 588 712 c 0,464,465
 582 696 582 696 563.5 694 c 128,-1,466
 545 692 545 692 525.5 699.5 c 128,-1,467
 506 707 506 707 491.5 720.5 c 128,-1,468
 477 734 477 734 479 747 c 0,458,459
165 571 m 0,469,470
 166 584 166 584 178 586 c 128,-1,471
 190 588 190 588 201 581 c 128,-1,472
 212 574 212 574 211 565 c 128,-1,473
 210 556 210 556 198 554 c 128,-1,474
 186 552 186 552 175 557 c 128,-1,475
 164 562 164 562 165 571 c 0,469,470
25 274 m 1,476,477
 12 284 12 284 14.5 305.5 c 128,-1,478
 17 327 17 327 29 348 c 128,-1,479
 41 369 41 369 49 365 c 0,480,481
 64 358 64 358 52 312 c 0,482,483
 42 272 42 272 28 274 c 2,484,-1
 25 274 l 1,476,477
406 0 m 0,485,486
 413 -6 413 -6 415.5 -13 c 128,-1,487
 418 -20 418 -20 414 -24 c 0,488,489
 406 -32 406 -32 390 -16 c 0,490,491
 383 -10 383 -10 380.5 -3 c 128,-1,492
 378 4 378 4 382 8 c 0,493,494
 389 14 389 14 406 0 c 0,485,486
328 56 m 0,495,496
 344 40 344 40 336 32 c 128,-1,497
 328 24 328 24 312 40 c 0,498,499
 298 57 298 57 304 63 c 0,500,501
 307 67 307 67 314.5 65 c 128,-1,502
 322 63 322 63 328 56 c 0,495,496
317 116 m 0,503,504
 324 110 324 110 326.5 102.5 c 128,-1,505
 329 95 329 95 325 92 c 0,506,507
 317 84 317 84 301 100 c 0,508,509
 294 106 294 106 292 113 c 128,-1,510
 290 120 290 120 293 124 c 0,511,512
 301 132 301 132 317 116 c 0,503,504
347 0 m 128,-1,514
 363 -16 363 -16 355 -24 c 128,-1,515
 347 -32 347 -32 331 -16 c 128,-1,516
 315 0 315 0 323 8 c 128,-1,513
 331 16 331 16 347 0 c 128,-1,514
222 135 m 0,517,518
 236 118 236 118 230 111 c 0,519,520
 227 107 227 107 219.5 109.5 c 128,-1,521
 212 112 212 112 206 119 c 0,522,523
 192 136 192 136 198 143 c 0,524,525
 206 151 206 151 222 135 c 0,517,518
269 90 m 0,526,527
 276 84 276 84 278.5 77 c 128,-1,528
 281 70 281 70 277 67 c 0,529,530
 271 61 271 61 254 75 c 0,531,532
 238 91 238 91 245.5 98.5 c 128,-1,533
 253 106 253 106 269 90 c 0,526,527
387 63 m 0,534,535
 394 57 394 57 396 50 c 128,-1,536
 398 43 398 43 395 40 c 0,537,538
 387 32 387 32 371 47.5 c 128,-1,539
 355 63 355 63 363 71 c 128,-1,540
 371 79 371 79 387 63 c 0,534,535
212 343 m 0,541,542
 213 334 213 334 210.5 326.5 c 128,-1,543
 208 319 208 319 204 319 c 0,544,545
 199 319 199 319 195 325 c 128,-1,546
 191 331 191 331 190 340 c 0,547,548
 187 361 187 361 198 363 c 0,549,550
 201 363 201 363 204 360.5 c 128,-1,551
 207 358 207 358 209 353 c 128,-1,552
 211 348 211 348 212 343 c 0,541,542
496 13 m 0,553,554
 499 -8 499 -8 488 -11 c 0,555,556
 485 -11 485 -11 482 -8 c 128,-1,557
 479 -5 479 -5 477 -0.5 c 128,-1,558
 475 4 475 4 474 10 c 0,559,560
 473 19 473 19 476 26 c 128,-1,561
 479 33 479 33 484 33 c 0,562,563
 489 34 489 34 492.5 28 c 128,-1,564
 496 22 496 22 496 13 c 0,553,554
201 508 m 1,565,566
 204 487 204 487 192 484 c 0,567,568
 187 484 187 484 183 490 c 128,-1,569
 179 496 179 496 177 505 c 0,570,571
 174 525 174 525 185 528 c 0,572,573
 190 528 190 528 194 522 c 128,-1,574
 198 516 198 516 200 508 c 1,575,-1
 201 508 l 1,565,566
201 251 m 0,576,577
 210 231 210 231 200 225.5 c 128,-1,578
 190 220 190 220 181 241 c 0,579,580
 172 261 172 261 182 266.5 c 128,-1,581
 192 272 192 272 201 251 c 0,576,577
236 257 m 0,582,583
 245 237 245 237 235 232 c 0,584,585
 231 230 231 230 225 234.5 c 128,-1,586
 219 239 219 239 216 248 c 0,587,588
 207 268 207 268 217 273 c 0,589,590
 221 275 221 275 226.5 270 c 128,-1,591
 232 265 232 265 236 257 c 0,582,583
285 163 m 0,592,593
 294 143 294 143 284 138 c 128,-1,594
 274 133 274 133 265 154 c 0,595,596
 256 174 256 174 266 179 c 0,597,598
 277 182 277 182 285 163 c 0,592,593
242 176 m 0,599,600
 251 156 251 156 241 151 c 0,601,602
 230 148 230 148 222 167 c 0,603,604
 213 187 213 187 223 192 c 128,-1,605
 233 197 233 197 242 176 c 0,599,600
176 317 m 0,606,607
 184 298 184 298 174 292 c 0,608,609
 164 287 164 287 155 308 c 0,610,611
 146 328 146 328 156.5 333 c 128,-1,612
 167 338 167 338 176 317 c 0,606,607
97 338 m 0,613,614
 113 322 113 322 105 314 c 128,-1,615
 97 306 97 306 81 322 c 128,-1,616
 65 338 65 338 73 346 c 0,617,618
 80 352 80 352 97 338 c 0,613,614
136 278 m 0,619,620
 143 272 143 272 145.5 264.5 c 128,-1,621
 148 257 148 257 144 254 c 0,622,623
 136 246 136 246 120 262 c 0,624,625
 106 279 106 279 112 286 c 0,626,627
 120 294 120 294 136 278 c 0,619,620
180.5 208 m 128,-1,629
 196 192 196 192 188.5 184 c 128,-1,630
 181 176 181 176 165 192 c 0,631,632
 158 198 158 198 155.5 205 c 128,-1,633
 153 212 153 212 157 216 c 0,634,628
 165 224 165 224 180.5 208 c 128,-1,629
79 279 m 0,635,636
 95 263 95 263 87 255 c 0,637,638
 84 251 84 251 76.5 253.5 c 128,-1,639
 69 256 69 256 63 263 c 0,640,641
 49 280 49 280 55 287 c 0,642,643
 58 291 58 291 65.5 288.5 c 128,-1,644
 73 286 73 286 79 279 c 0,635,636
488 92 m 128,-1,646
 488 70 488 70 477 70 c 128,-1,647
 466 70 466 70 466 92 c 128,-1,648
 466 114 466 114 477 114 c 128,-1,645
 488 114 488 114 488 92 c 128,-1,646
212 414 m 128,-1,650
 212 392 212 392 201 392 c 128,-1,651
 190 392 190 392 190 414 c 128,-1,652
 190 436 190 436 201 436 c 128,-1,649
 212 436 212 436 212 414 c 128,-1,650
485 677 m 0,653,654
 476 657 476 657 466 660 c 0,655,656
 456 665 456 665 465 685 c 0,657,658
 469 693 469 693 473.5 698.5 c 128,-1,659
 478 704 478 704 482 703 c 0,660,661
 493 699 493 699 485 677 c 0,653,654
963 684 m 0,662,663
 954 664 954 664 944 666 c 0,664,665
 936 670 936 670 941 692 c 1,666,667
 950 712 950 712 960 709 c 0,668,669
 969 707 969 707 963 684 c 0,662,663
876 712 m 1,670,671
 867 692 867 692 856 695 c 0,672,673
 847 697 847 697 853 720 c 0,674,675
 857 728 857 728 862 733.5 c 128,-1,676
 867 739 867 739 871 738 c 0,677,678
 876 737 876 737 877 729 c 128,-1,679
 878 721 878 721 874 712 c 1,680,-1
 876 712 l 1,670,671
841 650 m 0,681,682
 833 630 833 630 822 633 c 0,683,684
 810 639 810 639 818 658 c 0,685,686
 827 678 827 678 837 676 c 0,687,688
 847 671 847 671 841 650 c 0,681,682
906 670 m 0,689,690
 897 650 897 650 887 652 c 0,691,692
 879 656 879 656 883 677 c 1,693,694
 892 697 892 697 902 695 c 0,695,696
 914 690 914 690 906 670 c 0,689,690
960 620 m 1,697,698
 952 600 952 600 941 603 c 0,699,700
 932 605 932 605 937 628 c 1,701,702
 946 648 946 648 956 646 c 0,703,704
 965 644 965 644 960 622 c 1,705,-1
 960 620 l 1,697,698
845 589 m 1,706,707
 837 569 837 569 826 571 c 0,708,709
 816 574 816 574 825 597 c 0,710,711
 829 605 829 605 834 610 c 128,-1,712
 839 615 839 615 842 614 c 0,713,714
 851 612 851 612 845 590 c 1,715,-1
 845 589 l 1,706,707
918 574 m 1,716,717
 909 554 909 554 899 557 c 0,718,719
 890 559 890 559 896 581 c 0,720,721
 898 586 898 586 901.5 590.5 c 128,-1,722
 905 595 905 595 908 597 c 128,-1,723
 911 599 911 599 914 598 c 0,724,725
 926 595 926 595 917 573 c 1,726,-1
 918 574 l 1,716,717
761 462 m 0,727,728
 752 442 752 442 742 444 c 128,-1,729
 732 446 732 446 739 470 c 0,730,731
 748 490 748 490 758 487 c 0,732,733
 767 483 767 483 761 462 c 0,727,728
782 536 m 1,734,735
 773 516 773 516 763 519 c 0,736,737
 755 523 755 523 760 544 c 1,738,739
 769 564 769 564 779 562 c 0,740,741
 784 561 784 561 784.5 553.5 c 128,-1,742
 785 546 785 546 782 538 c 2,743,-1
 782 536 l 1,734,735
599 171 m 0,744,745
 590 151 590 151 580 154 c 0,746,747
 570 159 570 159 579 179 c 0,748,749
 583 187 583 187 588 192.5 c 128,-1,750
 593 198 593 198 596 197 c 0,751,752
 605 194 605 194 599 171 c 0,744,745
872 430 m 1,753,754
 868 422 868 422 863 416.5 c 128,-1,755
 858 411 858 411 855 413 c 0,756,757
 846 418 846 418 852 438 c 0,758,759
 861 458 861 458 871 455 c 0,760,761
 880 450 880 450 874 430 c 1,762,-1
 872 430 l 1,753,754
630 248 m 0,763,764
 621 228 621 228 611 230 c 0,765,766
 601 235 601 235 609 255 c 0,767,768
 613 263 613 263 618 268.5 c 128,-1,769
 623 274 623 274 626 273 c 0,770,771
 637 271 637 271 630 248 c 0,763,764
742 333 m 0,772,773
 733 313 733 313 723 316 c 0,774,775
 715 320 715 320 720 341 c 1,776,777
 729 361 729 361 739 359 c 0,778,779
 748 356 748 356 742 333 c 0,772,773
814 366 m 0,780,781
 808 359 808 359 800.5 356 c 128,-1,782
 793 353 793 353 790 357 c 0,783,784
 781 363 781 363 796 381 c 0,785,786
 802 388 802 388 809 391 c 128,-1,787
 816 394 816 394 820 390.5 c 128,-1,788
 824 387 824 387 822 379.5 c 128,-1,789
 820 372 820 372 814 366 c 0,780,781
657 190 m 0,790,791
 651 183 651 183 644 180 c 128,-1,792
 637 177 637 177 634 181 c 0,793,794
 625 187 625 187 641 205 c 0,795,796
 655 222 655 222 663 214 c 0,797,798
 672 208 672 208 657 190 c 0,790,791
737 252 m 1,799,800
 723 235 723 235 715 243 c 0,801,802
 708 250 708 250 722 267 c 0,803,804
 728 274 728 274 735 277 c 128,-1,805
 742 280 742 280 745 276 c 0,806,807
 752 269 752 269 739 252 c 1,808,-1
 737 252 l 1,799,800
706 430 m 2,809,810
 705 421 705 421 700 415.5 c 128,-1,811
 695 410 695 410 690 411 c 128,-1,812
 685 412 685 412 683 419 c 128,-1,813
 681 426 681 426 684 435 c 0,814,815
 689 456 689 456 699 455 c 0,816,817
 704 454 704 454 706 447 c 128,-1,818
 708 440 708 440 706 432 c 2,819,-1
 706 430 l 2,809,810
541 57 m 0,820,821
 539 47 539 47 534.5 42 c 128,-1,822
 530 37 530 37 525 38 c 128,-1,823
 520 39 520 39 518 46.5 c 128,-1,824
 516 54 516 54 519 62 c 0,825,826
 521 72 521 72 525.5 77 c 128,-1,827
 530 82 530 82 534.5 81 c 128,-1,828
 539 80 539 80 541 72.5 c 128,-1,829
 543 65 543 65 541 57 c 0,820,821
585 103 m 0,830,831
 584 94 584 94 579 88.5 c 128,-1,832
 574 83 574 83 569 84 c 0,833,834
 557 87 557 87 563 108 c 0,835,836
 565 114 565 114 567.5 118.5 c 128,-1,837
 570 123 570 123 573 125.5 c 128,-1,838
 576 128 576 128 579 127 c 0,839,840
 584 126 584 126 585.5 118.5 c 128,-1,841
 587 111 587 111 585 103 c 0,830,831
757 395 m 1,842,843
 748 375 748 375 737 378 c 0,844,845
 728 380 728 380 734 403 c 0,846,847
 738 411 738 411 743 416.5 c 128,-1,848
 748 422 748 422 752 420 c 0,849,850
 764 417 764 417 755 395 c 1,851,-1
 757 395 l 1,842,843
925 501 m 1,852,853
 916 481 916 481 906 484 c 0,854,855
 901 485 901 485 900.5 493 c 128,-1,856
 900 501 900 501 904 509 c 0,857,858
 906 517 906 517 912 522.5 c 128,-1,859
 918 528 918 528 923 527 c 0,860,861
 932 525 932 525 926 501 c 1,862,-1
 925 501 l 1,852,853
687 271 m 0,863,864
 678 251 678 251 668 254 c 0,865,866
 664 255 664 255 663.5 262.5 c 128,-1,867
 663 270 663 270 666 279 c 0,868,869
 675 299 675 299 685 297 c 1,870,871
 695 290 695 290 687 271 c 0,863,864
482 546 m 0,872,873
 473 526 473 526 463 528 c 0,874,875
 454 530 454 530 460 554 c 0,876,877
 469 574 469 574 479 571 c 0,878,879
 490 568 490 568 482 546 c 0,872,873
869 525 m 1,880,881
 860 505 860 505 850 508 c 0,882,883
 841 510 841 510 847 533 c 0,884,885
 856 554 856 554 866 549 c 0,886,887
 875 547 875 547 869 524 c 1,888,-1
 869 525 l 1,880,881
817 457 m 1,889,890
 808 437 808 437 798 439 c 0,891,892
 793 440 793 440 792.5 448.5 c 128,-1,893
 792 457 792 457 796 465 c 0,894,895
 798 470 798 470 801 474.5 c 128,-1,896
 804 479 804 479 808 481 c 128,-1,897
 812 483 812 483 815 482 c 0,898,899
 824 477 824 477 818 457 c 1,900,-1
 817 457 l 1,889,890
455 478 m 0,901,902
 453 473 453 473 449.5 468 c 128,-1,903
 446 463 446 463 443 461 c 128,-1,904
 440 459 440 459 438 460 c 0,905,906
 429 462 429 462 434 485 c 1,907,908
 443 505 443 505 453 503 c 0,909,910
 462 497 462 497 455 478 c 0,901,902
403 446 m 0,911,912
 394 426 394 426 384 428 c 0,913,914
 375 430 375 430 381 454 c 0,915,916
 390 474 390 474 400 471 c 0,917,918
 411 468 411 468 403 446 c 0,911,912
538 -17 m 0,919,920
 529 -37 529 -37 519 -35 c 0,921,922
 510 -33 510 -33 515 -10 c 1,923,924
 524 10 524 10 534 8 c 128,-1,925
 544 6 544 6 538 -17 c 0,919,920
406 522 m 0,926,927
 402 514 402 514 397 508.5 c 128,-1,928
 392 503 392 503 388 505 c 0,929,930
 379 507 379 507 385 530 c 0,931,932
 394 550 394 550 404 547 c 0,933,934
 415 545 415 545 406 522 c 0,926,927
544 574 m 1,935,936
 540 566 540 566 535 561 c 128,-1,937
 530 556 530 556 526 557 c 0,938,939
 517 559 517 559 523 582 c 0,940,941
 532 602 532 602 542 600 c 0,942,943
 551 598 551 598 546 574 c 1,944,-1
 544 574 l 1,935,936
523 503 m 0,945,946
 514 483 514 483 504 485 c 0,947,948
 495 487 495 487 501 511 c 0,949,950
 510 531 510 531 520 528 c 0,951,952
 529 526 529 526 523 503 c 0,945,946
379 368 m 0,953,954
 378 358 378 358 374 352 c 128,-1,955
 370 346 370 346 365 347 c 0,956,957
 354 347 354 347 357 371 c 0,958,959
 358 380 358 380 362 386.5 c 128,-1,960
 366 393 366 393 369 392 c 0,961,962
 379 392 379 392 379 368 c 0,953,954
446 311 m 1,963,964
 445 306 445 306 443.5 302 c 128,-1,965
 442 298 442 298 440.5 295.5 c 128,-1,966
 439 293 439 293 437 291.5 c 128,-1,967
 435 290 435 290 433 290 c 0,968,969
 422 290 422 290 425 314 c 0,970,971
 426 323 426 323 430 329.5 c 128,-1,972
 434 336 434 336 438 335 c 0,973,974
 441 335 441 335 443.5 331.5 c 128,-1,975
 446 328 446 328 447 322.5 c 128,-1,976
 448 317 448 317 447 311 c 1,977,-1
 446 311 l 1,963,964
441 389 m 0,978,979
 440 379 440 379 436.5 373 c 128,-1,980
 433 367 433 367 428 368 c 0,981,982
 418 368 418 368 419 392 c 0,983,984
 420 398 420 398 422 403 c 128,-1,985
 424 408 424 408 427 410.5 c 128,-1,986
 430 413 430 413 433 413 c 0,987,988
 444 413 444 413 441 389 c 0,978,979
493 428 m 1,989,990
 492 422 492 422 490 417 c 128,-1,991
 488 412 488 412 485.5 409.5 c 128,-1,992
 483 407 483 407 480 408 c 0,993,994
 470 408 470 408 471 432 c 0,995,996
 472 442 472 442 475.5 447.5 c 128,-1,997
 479 453 479 453 484 452 c 0,998,999
 495 452 495 452 492 428 c 1,1000,-1
 493 428 l 1,989,990
523 124 m 0,1001,1002
 522 115 522 115 518 108.5 c 128,-1,1003
 514 102 514 102 511 103 c 0,1004,1005
 500 103 500 103 503 127 c 0,1006,1007
 504 136 504 136 508 142.5 c 128,-1,1008
 512 149 512 149 515 148 c 0,1009,1010
 526 148 526 148 523 124 c 0,1001,1002
490 349 m 0,1011,1012
 489 339 489 339 484.5 333 c 128,-1,1013
 480 327 480 327 476 328 c 0,1014,1015
 466 330 466 330 466 352 c 0,1016,1017
 467 362 467 362 471.5 368 c 128,-1,1018
 476 374 476 374 480 373 c 0,1019,1020
 490 373 490 373 490 349 c 0,1011,1012
479 162 m 1,1021,1022
 478 153 478 153 474 146.5 c 128,-1,1023
 470 140 470 140 466 141 c 0,1024,1025
 461 141 461 141 458 148.5 c 128,-1,1026
 455 156 455 156 456.5 165.5 c 128,-1,1027
 458 175 458 175 462 181 c 128,-1,1028
 466 187 466 187 471 186 c 0,1029,1030
 481 186 481 186 480 162 c 1,1031,-1
 479 162 l 1,1021,1022
484 259 m 0,1032,1033
 483 250 483 250 479 243.5 c 128,-1,1034
 475 237 475 237 471 238 c 0,1035,1036
 460 238 460 238 463 262 c 0,1037,1038
 464 271 464 271 468 277.5 c 128,-1,1039
 472 284 472 284 476 282 c 0,1040,1041
 481 282 481 282 483.5 275 c 128,-1,1042
 486 268 486 268 484 259 c 0,1032,1033
690 344 m 0,1043,1044
 689 335 689 335 685 328.5 c 128,-1,1045
 681 322 681 322 677 324 c 0,1046,1047
 667 324 667 324 668 347 c 0,1048,1049
 669 352 669 352 670 356 c 128,-1,1050
 671 360 671 360 673 363 c 128,-1,1051
 675 366 675 366 677.5 367.5 c 128,-1,1052
 680 369 680 369 682 368 c 0,1053,1054
 693 368 693 368 690 344 c 0,1043,1044
427 235 m 1,1055,1056
 433 212 433 212 422 209 c 0,1057,1058
 417 208 417 208 412 213.5 c 128,-1,1059
 407 219 407 219 404 228 c 0,1060,1061
 398 251 398 251 409 254 c 0,1062,1063
 414 255 414 255 419 250 c 128,-1,1064
 424 245 424 245 427 236 c 2,1065,-1
 427 235 l 1,1055,1056
392 298 m 1,1066,1067
 398 278 398 278 387 273 c 0,1068,1069
 382 272 382 272 377 277 c 128,-1,1070
 372 282 372 282 369 290 c 0,1071,1072
 364 310 364 310 373 316 c 0,1073,1074
 376 317 376 317 379.5 314.5 c 128,-1,1075
 383 312 383 312 385.5 308 c 128,-1,1076
 388 304 388 304 390 298 c 1,1077,-1
 392 298 l 1,1066,1067
428 152 m 1,1078,1079
 433 131 433 131 423 129 c 0,1080,1081
 418 128 418 128 413 133 c 128,-1,1082
 408 138 408 138 406 146 c 0,1083,1084
 400 169 400 169 411 171 c 0,1085,1086
 416 172 416 172 421 167 c 128,-1,1087
 426 162 426 162 428 154 c 2,1088,-1
 428 152 l 1,1078,1079
461 -5 m 0,1089,1090
 466 -25 466 -25 457 -30 c 0,1091,1092
 452 -31 452 -31 447 -26 c 128,-1,1093
 442 -21 442 -21 439 -13 c 0,1094,1095
 434 7 434 7 444 13 c 0,1096,1097
 449 14 449 14 454 8.5 c 128,-1,1098
 459 3 459 3 461 -5 c 0,1089,1090
446 73 m 0,1099,1100
 453 54 453 54 442 48 c 0,1101,1102
 437 47 437 47 432 52 c 128,-1,1103
 427 57 427 57 425 65 c 0,1104,1105
 422 74 422 74 423 81 c 128,-1,1106
 424 88 424 88 428 90 c 0,1107,1108
 433 91 433 91 438.5 86 c 128,-1,1109
 444 81 444 81 446 73 c 0,1099,1100
514 627 m 0,1110,1111
 510 619 510 619 505 613.5 c 128,-1,1112
 500 608 500 608 496 609 c 0,1113,1114
 484 612 484 612 493 635 c 0,1115,1116
 502 655 502 655 512 652 c 0,1117,1118
 523 650 523 650 514 627 c 0,1110,1111
449 593 m 0,1119,1120
 440 573 440 573 430 576 c 0,1121,1122
 421 578 421 578 427 601 c 0,1123,1124
 436 621 436 621 446 619 c 0,1125,1126
 457 615 457 615 449 593 c 0,1119,1120
574 652 m 128,-1,1128
 574 630 574 630 563 630 c 128,-1,1129
 552 630 552 630 552 652 c 128,-1,1130
 552 674 552 674 563 674 c 128,-1,1127
 574 674 574 674 574 652 c 128,-1,1128
EndSplineSet
EndChar

StartChar: colon
Encoding: 58 58 28
Width: 1024
GlyphClass: 2
Flags: W
LayerCount: 2
Fore
SplineSet
510 755 m 2,0,-1
 515 755 l 2,1,2
 713 755 713 755 837 647 c 0,3,4
 937 561 937 561 984 412 c 0,5,6
 1008 336 1008 336 1017.5 251 c 128,-1,7
 1027 166 1027 166 1024 119 c 2,8,-1
 1021 72 l 1,9,-1
 1002 74 l 1,10,11
 1003 81 1003 81 1003.5 93 c 128,-1,12
 1004 105 1004 105 1004 142.5 c 128,-1,13
 1004 180 1004 180 1001.5 217.5 c 128,-1,14
 999 255 999 255 990 307.5 c 128,-1,15
 981 360 981 360 966 406 c 0,16,17
 920 551 920 551 825 633 c 0,18,19
 706 736 706 736 515 735 c 2,20,-1
 510 735 l 2,21,22
 319 735 319 735 200 633 c 0,23,24
 104 551 104 551 58 406 c 0,25,26
 34 332 34 332 25 249 c 128,-1,27
 16 166 16 166 19 120 c 2,28,-1
 22 74 l 1,29,-1
 2 72 l 1,30,31
 1 79 1 79 0.5 91.5 c 128,-1,32
 0 104 0 104 0 142.5 c 128,-1,33
 0 181 0 181 3 219 c 128,-1,34
 6 257 6 257 15 310.5 c 128,-1,35
 24 364 24 364 40 412 c 0,36,37
 88 562 88 562 187 647 c 0,38,39
 312 755 312 755 510 755 c 2,0,-1
510 586 m 2,40,-1
 514 586 l 2,41,42
 663 586 663 586 758 505 c 0,43,44
 834 440 834 440 869 327 c 0,45,46
 887 270 887 270 894 206.5 c 128,-1,47
 901 143 901 143 899 107 c 2,48,-1
 896 72 l 1,49,-1
 877 74 l 1,50,51
 878 88 878 88 879.5 112 c 128,-1,52
 881 136 881 136 874.5 201 c 128,-1,53
 868 266 868 266 850 321 c 0,54,55
 816 429 816 429 745 490 c 0,56,57
 656 566 656 566 514 567 c 2,58,-1
 510 567 l 2,59,60
 368 567 368 567 279 490 c 0,61,62
 208 429 208 429 173 321 c 0,63,64
 155 266 155 266 148.5 204.5 c 128,-1,65
 142 143 142 143 145 108 c 2,66,-1
 147 74 l 1,67,-1
 127 72 l 1,68,69
 126 86 126 86 125 110.5 c 128,-1,70
 124 135 124 135 130.5 202.5 c 128,-1,71
 137 270 137 270 155 327 c 0,72,73
 191 440 191 440 266 505 c 0,74,75
 361 586 361 586 510 586 c 2,40,-1
511 423 m 2,76,-1
 514 423 l 2,77,78
 616 423 616 423 680 367 c 0,79,80
 731 323 731 323 756 246 c 0,81,82
 764 221 764 221 769 194.5 c 128,-1,83
 774 168 774 168 775 147 c 128,-1,84
 776 126 776 126 776 108.5 c 128,-1,85
 776 91 776 91 776 81 c 2,86,-1
 775 72 l 1,87,-1
 756 74 l 1,88,89
 764 158 764 158 738 240 c 0,90,91
 715 312 715 312 668 353 c 0,92,93
 610 404 610 404 514 404 c 2,94,-1
 511 404 l 2,95,96
 416 404 416 404 358 353 c 0,97,98
 311 312 311 312 288 240 c 0,99,100
 276 203 276 203 271.5 161.5 c 128,-1,101
 267 120 267 120 268 97 c 2,102,-1
 270 74 l 1,103,-1
 251 72 l 1,104,105
 250 82 250 82 249 98.5 c 128,-1,106
 248 115 248 115 252.5 161 c 128,-1,107
 257 207 257 207 269 246 c 0,108,109
 293 323 293 323 345 367 c 0,110,111
 409 423 409 423 511 423 c 2,76,-1
EndSplineSet
EndChar

StartChar: semicolon
Encoding: 59 59 29
Width: 1024
GlyphClass: 2
Flags: W
LayerCount: 2
Fore
SplineSet
512 819 m 1,0,-1
 520 808 l 2,1,2
 571 732 571 732 622 635 c 0,3,4
 725 441 725 441 725 338 c 0,5,6
 725 277 725 277 707 209 c 128,-1,7
 689 141 689 141 658 83 c 0,8,9
 627 23 627 23 590 -13 c 0,10,11
 550 -52 550 -52 512 -52 c 0,12,13
 475 -52 475 -52 434 -12 c 0,14,15
 397 24 397 24 366 83 c 128,-1,16
 335 142 335 142 317 210 c 128,-1,17
 299 278 299 278 299 338 c 0,18,19
 299 442 299 442 402 635 c 0,20,21
 425 678 425 678 450.5 721 c 128,-1,22
 476 764 476 764 490 786 c 2,23,-1
 504 808 l 1,24,-1
 512 819 l 1,0,-1
512 784 m 1,25,26
 461 708 461 708 419 627 c 0,27,28
 318 437 318 437 318 338 c 0,29,30
 318 281 318 281 336 215 c 128,-1,31
 354 149 354 149 383 92 c 0,32,33
 413 35 413 35 447 1 c 0,34,35
 482 -34 482 -34 512 -33 c 0,36,37
 543 -33 543 -33 578 1 c 0,38,39
 612 35 612 35 641 91 c 128,-1,40
 670 147 670 147 688 213.5 c 128,-1,41
 706 280 706 280 706 338 c 0,42,43
 706 437 706 437 605 627 c 0,44,45
 560 711 560 711 512 784 c 1,25,26
503 718 m 1,46,-1
 521 718 l 1,47,-1
 521 -205 l 1,48,-1
 503 -205 l 1,49,-1
 503 718 l 1,46,-1
427 622 m 1,50,51
 450 608 450 608 473 590 c 0,52,53
 493 574 493 574 505 559 c 0,54,55
 507 557 507 557 508.5 552 c 128,-1,56
 510 547 510 547 511 545 c 1,57,58
 512 547 512 547 513.5 551.5 c 128,-1,59
 515 556 515 556 517 559 c 0,60,61
 529 573 529 573 550 590 c 0,62,63
 560 598 560 598 571.5 606 c 128,-1,64
 583 614 583 614 589 618 c 2,65,-1
 596 622 l 1,66,-1
 605 606 l 1,67,68
 583 593 583 593 561 575 c 0,69,70
 542 560 542 560 532 547.5 c 128,-1,71
 522 535 522 535 521 524 c 1,72,-1
 521 524 l 1,73,-1
 521 523 l 1,74,-1
 520 523 l 1,75,-1
 503 523 l 1,76,-1
 501 523 l 1,77,-1
 502 524 l 1,78,-1
 502 524 l 1,79,80
 501 535 501 535 491 547 c 0,81,82
 482 558 482 558 461 575 c 2,83,-1
 417 606 l 1,84,-1
 427 622 l 1,50,51
349 415 m 1,85,86
 392 389 392 389 434 360 c 0,87,88
 471 334 471 334 492 313 c 0,89,90
 504 302 504 302 511 292 c 1,91,92
 518 302 518 302 530 313 c 0,93,94
 552 333 552 333 589 360 c 0,95,96
 598 366 598 366 607 372.5 c 128,-1,97
 616 379 616 379 624.5 384 c 128,-1,98
 633 389 633 389 640.5 394 c 128,-1,99
 648 399 648 399 654 403 c 128,-1,100
 660 407 660 407 664.5 410 c 128,-1,101
 669 413 669 413 672 414 c 2,102,-1
 674 415 l 1,103,-1
 684 399 l 1,104,105
 642 374 642 374 600 345 c 0,106,107
 563 319 563 319 543 300 c 0,108,109
 532 290 532 290 525 280 c 0,110,111
 522 275 522 275 521 270 c 1,112,-1
 521 270 l 1,113,-1
 521 269 l 1,114,-1
 520 269 l 1,115,-1
 503 269 l 1,116,-1
 501 269 l 1,117,-1
 502 270 l 1,118,-1
 502 270 l 1,119,120
 501 275 501 275 497 280 c 0,121,122
 490 289 490 289 479 300 c 0,123,124
 458 320 458 320 422 345 c 0,125,126
 403 358 403 358 382.5 371.5 c 128,-1,127
 362 385 362 385 351 392 c 2,128,-1
 339 399 l 1,129,-1
 349 415 l 1,85,86
369 185 m 1,130,131
 406 163 406 163 444 137 c 0,132,133
 477 113 477 113 495 94 c 0,134,135
 499 90 499 90 511 68 c 1,136,137
 523 90 523 90 527 94 c 0,138,139
 546 113 546 113 579 137 c 0,140,141
 596 149 596 149 614.5 161 c 128,-1,142
 633 173 633 173 643 179 c 2,143,-1
 653 185 l 1,144,-1
 662 169 l 1,145,146
 625 147 625 147 590 121 c 0,147,148
 559 98 559 98 540 81 c 0,149,150
 522 63 522 63 521 53 c 1,151,-1
 521 53 l 1,152,-1
 520 52 l 1,153,-1
 503 52 l 1,154,-1
 501 52 l 1,155,-1
 502 52 l 1,156,-1
 502 53 l 2,157,158
 501 63 501 63 482 81 c 0,159,160
 465 97 465 97 433 121 c 2,161,-1
 360 169 l 1,162,-1
 369 185 l 1,130,131
EndSplineSet
EndChar

StartChar: less
Encoding: 60 60 30
Width: 1024
GlyphClass: 2
Flags: W
LayerCount: 2
Fore
SplineSet
767 370 m 0,0,1
 873 370 873 370 948.5 295.5 c 128,-1,2
 1024 221 1024 221 1024 114 c 0,3,4
 1024 8 1024 8 949 -67.5 c 128,-1,5
 874 -143 874 -143 767 -143 c 0,6,7
 661 -143 661 -143 585.5 -68 c 128,-1,8
 510 7 510 7 510 114 c 0,9,10
 510 220 510 220 585 295 c 128,-1,11
 660 370 660 370 767 370 c 0,0,1
767 350 m 0,12,13
 669 350 669 350 600 281 c 128,-1,14
 531 212 531 212 531 114 c 128,-1,15
 531 16 531 16 600.5 -53 c 128,-1,16
 670 -122 670 -122 767 -122 c 0,17,18
 865 -122 865 -122 934 -53 c 128,-1,19
 1003 16 1003 16 1003 114 c 0,20,21
 1003 179 1003 179 971.5 233 c 128,-1,22
 940 287 940 287 885.5 318.5 c 128,-1,23
 831 350 831 350 767 350 c 0,12,13
509 819 m 0,24,25
 615 819 615 819 690.5 743.5 c 128,-1,26
 766 668 766 668 766 562.5 c 128,-1,27
 766 457 766 457 690.5 381.5 c 128,-1,28
 615 306 615 306 509.5 306 c 128,-1,29
 404 306 404 306 328.5 381.5 c 128,-1,30
 253 457 253 457 253 563 c 128,-1,31
 253 669 253 669 327.5 744 c 128,-1,32
 402 819 402 819 509 819 c 0,24,25
509 798 m 0,33,34
 461 798 461 798 417 779.5 c 128,-1,35
 373 761 373 761 342 729.5 c 128,-1,36
 311 698 311 698 292 654.5 c 128,-1,37
 273 611 273 611 273 563 c 0,38,39
 273 466 273 466 342.5 396 c 128,-1,40
 412 326 412 326 509.5 326 c 128,-1,41
 607 326 607 326 676.5 395.5 c 128,-1,42
 746 465 746 465 746 562.5 c 128,-1,43
 746 660 746 660 676 729 c 128,-1,44
 606 798 606 798 509 798 c 0,33,34
256 369 m 128,-1,46
 362 369 362 369 438 294 c 128,-1,47
 514 219 514 219 514 112 c 0,48,49
 514 43 514 43 479.5 -16 c 128,-1,50
 445 -75 445 -75 386 -110 c 128,-1,51
 327 -145 327 -145 256 -145 c 0,52,53
 150 -145 150 -145 75 -69 c 128,-1,54
 0 7 0 7 0 112.5 c 128,-1,55
 0 218 0 218 75 293.5 c 128,-1,45
 150 369 150 369 256 369 c 128,-1,46
256 348 m 0,56,57
 159 348 159 348 90 279 c 128,-1,58
 21 210 21 210 21 112.5 c 128,-1,59
 21 15 21 15 90 -54.5 c 128,-1,60
 159 -124 159 -124 256 -124 c 0,61,62
 354 -124 354 -124 423.5 -54.5 c 128,-1,63
 493 15 493 15 493 112 c 0,64,65
 493 210 493 210 423.5 279 c 128,-1,66
 354 348 354 348 256 348 c 0,56,57
EndSplineSet
EndChar

StartChar: equal
Encoding: 61 61 31
Width: 1024
GlyphClass: 2
Flags: W
LayerCount: 2
Fore
SplineSet
0 314 m 1,0,-1
 21 314 l 1,1,2
 21 234 21 234 45.5 159 c 128,-1,3
 70 84 70 84 115.5 23.5 c 128,-1,4
 161 -37 161 -37 221.5 -82.5 c 128,-1,5
 282 -128 282 -128 357 -152.5 c 128,-1,6
 432 -177 432 -177 512 -177 c 0,7,8
 612 -177 612 -177 703 -138 c 128,-1,9
 794 -99 794 -99 859.5 -33.5 c 128,-1,10
 925 32 925 32 964 123 c 128,-1,11
 1003 214 1003 214 1003 314 c 1,12,-1
 1024 314 l 1,13,14
 1024 210 1024 210 983.5 115 c 128,-1,15
 943 20 943 20 874.5 -48.5 c 128,-1,16
 806 -117 806 -117 711.5 -157.5 c 128,-1,17
 617 -198 617 -198 512.5 -198 c 128,-1,18
 408 -198 408 -198 313 -157.5 c 128,-1,19
 218 -117 218 -117 149.5 -48.5 c 128,-1,20
 81 20 81 20 40.5 115 c 128,-1,21
 0 210 0 210 0 314 c 1,0,-1
753 414 m 0,22,23
 816 414 816 414 869.5 382.5 c 128,-1,24
 923 351 923 351 954.5 297.5 c 128,-1,25
 986 244 986 244 986 181 c 0,26,27
 986 85 986 85 917.5 16.5 c 128,-1,28
 849 -52 849 -52 752.5 -52 c 128,-1,29
 656 -52 656 -52 588 16 c 128,-1,30
 520 84 520 84 520 180.5 c 128,-1,31
 520 277 520 277 588.5 345.5 c 128,-1,32
 657 414 657 414 753 414 c 0,22,23
753 393 m 128,-1,34
 665 393 665 393 603 331 c 128,-1,35
 541 269 541 269 541 181 c 128,-1,36
 541 93 541 93 603 31 c 128,-1,37
 665 -31 665 -31 753 -31 c 128,-1,38
 841 -31 841 -31 903 31 c 128,-1,39
 965 93 965 93 965 181 c 128,-1,40
 965 269 965 269 903 331 c 128,-1,33
 841 393 841 393 753 393 c 128,-1,34
518.5 819 m 128,-1,42
 615 819 615 819 683.5 751 c 128,-1,43
 752 683 752 683 752 586.5 c 128,-1,44
 752 490 752 490 683.5 421.5 c 128,-1,45
 615 353 615 353 518.5 353 c 128,-1,46
 422 353 422 353 354 421.5 c 128,-1,47
 286 490 286 490 286 586.5 c 128,-1,48
 286 683 286 683 354 751 c 128,-1,41
 422 819 422 819 518.5 819 c 128,-1,42
519 798 m 128,-1,50
 431 798 431 798 369 736 c 128,-1,51
 307 674 307 674 307 586 c 128,-1,52
 307 498 307 498 369 436 c 128,-1,53
 431 374 431 374 519 374 c 128,-1,54
 607 374 607 374 669 436 c 128,-1,55
 731 498 731 498 731 586 c 128,-1,56
 731 674 731 674 669 736 c 128,-1,49
 607 798 607 798 519 798 c 128,-1,50
291.5 412 m 128,-1,58
 388 412 388 412 456 344 c 128,-1,59
 524 276 524 276 524 179.5 c 128,-1,60
 524 83 524 83 456 14.5 c 128,-1,61
 388 -54 388 -54 291.5 -54 c 128,-1,62
 195 -54 195 -54 126.5 14.5 c 128,-1,63
 58 83 58 83 58 179.5 c 128,-1,64
 58 276 58 276 126.5 344 c 128,-1,57
 195 412 195 412 291.5 412 c 128,-1,58
291 391 m 128,-1,66
 203 391 203 391 141 329 c 128,-1,67
 79 267 79 267 79 179 c 128,-1,68
 79 91 79 91 141 29 c 128,-1,69
 203 -33 203 -33 291 -33 c 128,-1,70
 379 -33 379 -33 441 29 c 128,-1,71
 503 91 503 91 503 179 c 128,-1,72
 503 267 503 267 441 329 c 128,-1,65
 379 391 379 391 291 391 c 128,-1,66
EndSplineSet
EndChar

StartChar: greater
Encoding: 62 62 32
Width: 1024
GlyphClass: 2
Flags: W
LayerCount: 2
Fore
SplineSet
505 819 m 1,0,-1
 512 812 l 2,1,2
 521 803 521 803 535.5 787 c 128,-1,3
 550 771 550 771 587.5 716 c 128,-1,4
 625 661 625 661 654.5 601 c 128,-1,5
 684 541 684 541 709.5 447.5 c 128,-1,6
 735 354 735 354 738 259 c 0,7,8
 745 45 745 45 628 -98 c 0,9,10
 602 -130 602 -130 572.5 -154.5 c 128,-1,11
 543 -179 543 -179 526 -189 c 2,12,-1
 509 -198 l 1,13,-1
 502 -195 l 1,14,-1
 494 -191 l 1,15,16
 444 -158 444 -158 396 -88 c 0,17,18
 351 -23 351 -23 320 64.5 c 128,-1,19
 289 152 289 152 286 266 c 0,20,21
 284 334 284 334 294 400.5 c 128,-1,22
 304 467 304 467 322.5 519.5 c 128,-1,23
 341 572 341 572 364 620 c 128,-1,24
 387 668 387 668 410.5 702 c 128,-1,25
 434 736 434 736 453.5 761.5 c 128,-1,26
 473 787 473 787 485 800 c 2,27,-1
 498 812 l 1,28,-1
 505 819 l 1,0,-1
504 788 m 1,29,30
 492 776 492 776 476.5 758.5 c 128,-1,31
 461 741 461 741 426.5 689 c 128,-1,32
 392 637 392 637 366.5 580.5 c 128,-1,33
 341 524 341 524 322 439 c 128,-1,34
 303 354 303 354 306 267 c 0,35,36
 312 66 312 66 412 -77 c 0,37,38
 460 -145 460 -145 507 -175 c 1,39,40
 561 -148 561 -148 613 -85 c 0,41,42
 725 51 725 51 718 258 c 0,43,44
 715 349 715 349 692 436.5 c 128,-1,45
 669 524 669 524 642.5 580.5 c 128,-1,46
 616 637 616 637 581 689.5 c 128,-1,47
 546 742 546 742 531 759 c 128,-1,48
 516 776 516 776 504 788 c 1,29,30
494 805 m 1,49,-1
 515 805 l 1,50,-1
 515 -177 l 1,51,-1
 494 -177 l 1,52,-1
 494 805 l 1,49,-1
EndSplineSet
EndChar

StartChar: question
Encoding: 63 63 33
Width: 1024
GlyphClass: 2
Flags: W
LayerCount: 2
Fore
SplineSet
512 819 m 128,-1,1
 616 819 616 819 711 778.5 c 128,-1,2
 806 738 806 738 874.5 669.5 c 128,-1,3
 943 601 943 601 983.5 506.5 c 128,-1,4
 1024 412 1024 412 1024 307.5 c 128,-1,5
 1024 203 1024 203 983.5 108 c 128,-1,6
 943 13 943 13 874.5 -55.5 c 128,-1,7
 806 -124 806 -124 711 -164.5 c 128,-1,8
 616 -205 616 -205 512 -205 c 128,-1,9
 408 -205 408 -205 313 -164.5 c 128,-1,10
 218 -124 218 -124 149.5 -55.5 c 128,-1,11
 81 13 81 13 40.5 108 c 128,-1,12
 0 203 0 203 0 307.5 c 128,-1,13
 0 412 0 412 40.5 506.5 c 128,-1,14
 81 601 81 601 149.5 669.5 c 128,-1,15
 218 738 218 738 313 778.5 c 128,-1,0
 408 819 408 819 512 819 c 128,-1,1
512 798 m 128,-1,17
 412 798 412 798 321 759.5 c 128,-1,18
 230 721 230 721 164.5 655 c 128,-1,19
 99 589 99 589 60 498 c 128,-1,20
 21 407 21 407 21 307 c 128,-1,21
 21 207 21 207 60 116 c 128,-1,22
 99 25 99 25 164.5 -40.5 c 128,-1,23
 230 -106 230 -106 321 -145 c 128,-1,24
 412 -184 412 -184 512 -184 c 128,-1,25
 612 -184 612 -184 703 -145 c 128,-1,26
 794 -106 794 -106 859.5 -40.5 c 128,-1,27
 925 25 925 25 964 116 c 128,-1,28
 1003 207 1003 207 1003 307 c 128,-1,29
 1003 407 1003 407 964 498 c 128,-1,30
 925 589 925 589 859.5 655 c 128,-1,31
 794 721 794 721 703 759.5 c 128,-1,16
 612 798 612 798 512 798 c 128,-1,17
744.5 409 m 128,-1,33
 841 409 841 409 909 340.5 c 128,-1,34
 977 272 977 272 977 176 c 128,-1,35
 977 80 977 80 909 11.5 c 128,-1,36
 841 -57 841 -57 744.5 -57 c 128,-1,37
 648 -57 648 -57 579.5 11.5 c 128,-1,38
 511 80 511 80 511 176 c 128,-1,39
 511 272 511 272 579.5 340.5 c 128,-1,32
 648 409 648 409 744.5 409 c 128,-1,33
744.5 388 m 128,-1,41
 657 388 657 388 595 326 c 128,-1,42
 533 264 533 264 533 176 c 128,-1,43
 533 88 533 88 595 26 c 128,-1,44
 657 -36 657 -36 744.5 -36 c 128,-1,45
 832 -36 832 -36 894 26 c 128,-1,46
 956 88 956 88 956 176 c 128,-1,47
 956 264 956 264 894 326 c 128,-1,40
 832 388 832 388 744.5 388 c 128,-1,41
510.5 814 m 128,-1,49
 607 814 607 814 675 745.5 c 128,-1,50
 743 677 743 677 743 581 c 0,51,52
 743 518 743 518 712 464 c 128,-1,53
 681 410 681 410 627.5 379 c 128,-1,54
 574 348 574 348 510 348 c 0,55,56
 414 348 414 348 345.5 416 c 128,-1,57
 277 484 277 484 277 580.5 c 128,-1,58
 277 677 277 677 345.5 745.5 c 128,-1,48
 414 814 414 814 510.5 814 c 128,-1,49
510 793 m 0,59,60
 452 793 452 793 403.5 764.5 c 128,-1,61
 355 736 355 736 326.5 687 c 128,-1,62
 298 638 298 638 298 581 c 0,63,64
 298 493 298 493 360 431 c 128,-1,65
 422 369 422 369 510 369 c 128,-1,66
 598 369 598 369 660 431 c 128,-1,67
 722 493 722 493 722 581 c 128,-1,68
 722 669 722 669 660 731 c 128,-1,69
 598 793 598 793 510 793 c 0,59,60
282.5 406 m 128,-1,71
 379 406 379 406 447.5 337.5 c 128,-1,72
 516 269 516 269 516 172.5 c 128,-1,73
 516 76 516 76 447.5 8 c 128,-1,74
 379 -60 379 -60 282.5 -60 c 128,-1,75
 186 -60 186 -60 118 8 c 128,-1,76
 50 76 50 76 50 172.5 c 128,-1,77
 50 269 50 269 118 337.5 c 128,-1,70
 186 406 186 406 282.5 406 c 128,-1,71
283 385 m 128,-1,79
 195 385 195 385 133 323 c 128,-1,80
 71 261 71 261 71 173 c 128,-1,81
 71 85 71 85 133 23 c 128,-1,82
 195 -39 195 -39 283 -39 c 128,-1,83
 371 -39 371 -39 433 23 c 128,-1,84
 495 85 495 85 495 173 c 128,-1,85
 495 261 495 261 433 323 c 128,-1,78
 371 385 371 385 283 385 c 128,-1,79
EndSplineSet
EndChar

StartChar: at
Encoding: 64 64 34
Width: 1024
GlyphClass: 2
Flags: W
LayerCount: 2
Fore
SplineSet
512 819 m 128,-1,1
 640 819 640 819 749 769 c 128,-1,2
 858 719 858 719 923 632 c 128,-1,3
 988 545 988 545 991 442 c 0,4,5
 991 441 991 441 991 440 c 0,6,7
 991 438 991 438 991 436 c 2,8,-1
 989 429 l 1,9,-1
 986 422 l 2,10,11
 985 421 985 421 983 418.5 c 128,-1,12
 981 416 981 416 979 415 c 128,-1,13
 977 414 977 414 967 411 c 0,14,15
 963 409 963 409 947 405 c 0,16,17
 946 405 946 405 941.5 403.5 c 128,-1,18
 937 402 937 402 934 401 c 0,19,20
 924 399 924 399 910 397 c 0,21,22
 898 395 898 395 887 393 c 0,23,24
 886 393 886 393 883.5 392.5 c 128,-1,25
 881 392 881 392 880 392 c 0,26,27
 797 380 797 380 651 375 c 0,28,29
 648 375 648 375 642.5 374.5 c 128,-1,30
 637 374 637 374 635 374 c 1,31,32
 640 223 640 223 612 114 c 1,33,-1
 612 113 l 1,34,35
 591 54 591 54 528 -72 c 0,36,37
 480 -168 480 -168 481 -194 c 2,38,-1
 481 -205 l 1,39,-1
 263 -205 l 1,40,-1
 262 -195 l 2,41,42
 261 -179 261 -179 269 -155 c 128,-1,43
 277 -131 277 -131 284.5 -114 c 128,-1,44
 292 -97 292 -97 311 -59 c 0,45,46
 376 71 376 71 395 124 c 0,47,48
 423 203 423 203 416 374 c 1,49,50
 410 374 410 374 399 374 c 128,-1,51
 388 374 388 374 385 375 c 0,52,53
 313 377 313 377 277 379 c 0,54,55
 276 379 276 379 274.5 379.5 c 128,-1,56
 273 380 273 380 272 380 c 0,57,58
 207 384 207 384 159 390 c 0,59,60
 157 390 157 390 154.5 390.5 c 128,-1,61
 152 391 152 391 150 391.5 c 128,-1,62
 148 392 148 392 145 392 c 128,-1,63
 142 392 142 392 140 392 c 0,64,65
 137 392 137 392 133.5 393 c 128,-1,66
 130 394 130 394 125.5 395 c 128,-1,67
 121 396 121 396 119 396 c 0,68,69
 107 398 107 398 92 401 c 0,70,71
 83 403 83 403 79 404 c 0,72,73
 67 407 67 407 58 411 c 0,74,75
 49 414 49 414 48 415 c 0,76,77
 46 416 46 416 42 419 c 0,78,79
 40 421 40 421 39 422 c 2,80,-1
 34 430 l 1,81,-1
 33 439 l 1,82,-1
 33 441 l 1,83,-1
 33 444 l 1,84,85
 37 547 37 547 101.5 633.5 c 128,-1,86
 166 720 166 720 275 769.5 c 128,-1,0
 384 819 384 819 512 819 c 128,-1,1
512 799 m 128,-1,88
 394 799 394 799 291.5 752.5 c 128,-1,89
 189 706 189 706 126 628.5 c 128,-1,90
 63 551 63 551 52 459 c 1,91,92
 60 461 60 461 68 464 c 0,93,94
 97 473 97 473 150 479 c 0,95,96
 252 493 252 493 409 497 c 0,97,98
 467 500 467 500 514 500 c 0,99,100
 550 499 550 499 628 497 c 0,101,102
 783 492 783 492 880 479 c 0,103,104
 928 472 928 472 958 463 c 2,105,-1
 966 460 l 1,106,-1
 974 458 l 1,107,108
 963 550 963 550 899.5 628 c 128,-1,109
 836 706 836 706 733 752.5 c 128,-1,87
 630 799 630 799 512 799 c 128,-1,88
512 478 m 0,110,111
 484 478 484 478 432 477 c 0,112,113
 432 473 432 473 434 457 c 0,114,115
 435 441 435 441 437 393 c 0,116,117
 443 228 443 228 414 118 c 1,118,119
 396 66 396 66 329 -69 c 0,120,121
 289 -150 289 -150 286 -184 c 1,122,-1
 465 -184 l 1,123,124
 468 -147 468 -147 510 -62 c 0,125,126
 573 63 573 63 593 120 c 1,127,128
 624 244 624 244 615 394 c 0,129,130
 613 431 613 431 611 455 c 0,131,132
 611 459 611 459 610.5 466.5 c 128,-1,133
 610 474 610 474 610 477 c 0,134,135
 547 478 547 478 512 478 c 0,110,111
412 477 m 1,136,137
 256 473 256 473 153 459 c 0,138,139
 100 452 100 452 74 444 c 0,140,141
 62 440 62 440 54 436 c 0,142,143
 53 435 53 435 53 436 c 1,144,145
 55 434 55 434 57 433 c 0,146,147
 60 431 60 431 65 430 c 0,148,149
 69 428 69 428 84 424 c 0,150,151
 91 422 91 422 97 421 c 0,152,153
 107 419 107 419 122 416 c 0,154,155
 124 416 124 416 131.5 414.5 c 128,-1,156
 139 413 139 413 144 413 c 0,157,158
 146 413 146 413 148 412.5 c 128,-1,159
 150 412 150 412 152 412 c 128,-1,160
 154 412 154 412 156.5 411.5 c 128,-1,161
 159 411 159 411 161 411 c 0,162,163
 217 404 217 404 274 400 c 0,164,165
 275 400 275 400 276 400 c 128,-1,166
 277 400 277 400 278 400 c 0,167,168
 315 398 315 398 385 395 c 0,169,170
 387 395 387 395 399 395 c 128,-1,171
 411 395 411 395 417 394 c 1,172,173
 416 414 416 414 413 456 c 0,174,175
 413 459 413 459 412.5 466.5 c 128,-1,176
 412 474 412 474 412 477 c 1,136,137
630 476 m 1,177,178
 631 460 631 460 632 457 c 0,179,180
 634 435 634 435 635 395 c 0,181,182
 636 395 636 395 651 396 c 0,183,184
 793 401 793 401 877 412 c 0,185,186
 879 412 879 412 884 413 c 128,-1,187
 889 414 889 414 906 417 c 0,188,189
 907 417 907 417 916.5 418.5 c 128,-1,190
 926 420 926 420 930 421 c 0,191,192
 932 421 932 421 934 422 c 128,-1,193
 936 423 936 423 938.5 423.5 c 128,-1,194
 941 424 941 424 942 424 c 0,195,196
 950 426 950 426 960 430 c 0,197,198
 967 433 967 433 969 434 c 128,-1,199
 971 435 971 435 972 436 c 1,200,-1
 972 436 l 1,201,202
 966 440 966 440 952 444 c 0,203,204
 926 452 926 452 877 458 c 0,205,206
 785 471 785 471 630 476 c 1,177,178
EndSplineSet
EndChar

StartChar: A
Encoding: 65 65 35
Width: 1024
GlyphClass: 2
Flags: W
LayerCount: 2
Fore
SplineSet
540 818 m 2,0,1
 547 821 547 821 555 818 c 0,2,3
 561 815 561 815 565 808 c 0,4,5
 571 799 571 799 576 779 c 0,6,7
 582 752 582 752 591 680 c 0,8,9
 613 501 613 501 637 436 c 0,10,11
 667 358 667 358 730 245 c 0,12,13
 762 187 762 187 767 179 c 0,14,15
 778 160 778 160 779 157 c 0,16,17
 784 146 784 146 784 139 c 0,18,19
 784 120 784 120 765 99 c 0,20,21
 752 85 752 85 726 65 c 0,22,23
 715 56 715 56 698 44 c 128,-1,24
 681 32 681 32 670 24 c 128,-1,25
 659 16 659 16 655 12 c 0,26,27
 650 7 650 7 637 -5 c 128,-1,28
 624 -17 624 -17 616 -25 c 128,-1,29
 608 -33 608 -33 592 -53 c 128,-1,30
 576 -73 576 -73 557 -100 c 1,31,32
 562 -109 562 -109 560 -131 c 0,33,34
 557 -168 557 -168 515 -188 c 0,35,36
 477 -207 477 -207 423 -204 c 0,37,38
 363 -201 363 -201 332 -188 c 0,39,40
 289 -169 289 -169 257 -119 c 1,41,-1
 257 -119 l 1,42,43
 241 -92 241 -92 240 -28 c 0,44,45
 240 27 240 27 252 106 c 0,46,47
 275 253 275 253 323 401 c 0,48,49
 365 530 365 530 435 665 c 0,50,51
 467 727 467 727 493 766 c 0,52,53
 506 786 506 786 518 799 c 0,54,55
 530 813 530 813 539 818 c 1,56,-1
 540 818 l 2,0,1
546 798 m 0,57,58
 541 795 541 795 533 786 c 0,59,60
 525 776 525 776 511 754 c 0,61,62
 485 715 485 715 454 656 c 0,63,64
 385 521 385 521 343 394 c 0,65,66
 295 246 295 246 273 103 c 0,67,68
 261 27 261 27 261 -28 c 0,69,70
 261 -85 261 -85 275 -108 c 0,71,72
 302 -152 302 -152 340 -169 c 0,73,74
 368 -181 368 -181 424 -184 c 0,75,76
 473 -186 473 -186 506 -170 c 0,77,78
 537 -155 537 -155 540 -129 c 1,79,-1
 536 -106 l 1,80,81
 530 -103 530 -103 524 -99 c 128,-1,82
 518 -95 518 -95 514 -92.5 c 128,-1,83
 510 -90 510 -90 507 -88 c 2,84,-1
 396 -24 l 1,85,-1
 438 -24 l 2,86,87
 459 -25 459 -25 470 -28 c 0,88,89
 493 -34 493 -34 514 -45 c 0,90,91
 520 -48 520 -48 525.5 -52.5 c 128,-1,92
 531 -57 531 -57 535 -61 c 128,-1,93
 539 -65 539 -65 541.5 -69 c 128,-1,94
 544 -73 544 -73 546 -75 c 2,95,-1
 547 -77 l 1,96,97
 564 -53 564 -53 579 -35 c 128,-1,98
 594 -17 594 -17 602.5 -8.5 c 128,-1,99
 611 0 611 0 623 11.5 c 128,-1,100
 635 23 635 23 640 27 c 0,101,102
 648 35 648 35 676 54.5 c 128,-1,103
 704 74 704 74 713 81 c 0,104,105
 736 98 736 98 749 113 c 0,106,107
 763 129 763 129 763 139 c 2,108,-1
 763 141 l 1,109,-1
 760 147 l 2,110,111
 755 158 755 158 749 169 c 0,112,113
 745 176 745 176 739 186.5 c 128,-1,114
 733 197 733 197 725.5 211 c 128,-1,115
 718 225 718 225 712 235 c 0,116,117
 649 347 649 347 618 428 c 0,118,119
 592 497 592 497 570 677 c 0,120,121
 561 749 561 749 556 774 c 0,122,123
 552 791 552 791 548 797 c 0,124,125
 547 797 547 797 546 798 c 0,57,58
499 644 m 0,126,127
 566 644 566 644 586 640 c 1,128,-1
 580 619 l 1,129,130
 563 623 563 623 499 623 c 0,131,132
 452 623 452 623 421 588 c 1,133,-1
 406 602 l 1,134,135
 443 644 443 644 499 644 c 0,126,127
615 487 m 1,136,-1
 610 466 l 1,137,138
 553 483 553 483 471 461 c 0,139,140
 444 456 444 456 402 432 c 0,141,142
 355 405 355 405 338 380 c 1,143,-1
 321 392 l 1,144,145
 340 421 340 421 392 450 c 0,146,147
 436 475 436 475 465 482 c 0,148,149
 553 505 553 505 615 487 c 1,136,-1
667 353 m 1,150,-1
 663 333 l 1,151,152
 612 342 612 342 590.5 341 c 128,-1,153
 569 340 569 340 516 330 c 0,154,155
 482 324 482 324 408 292 c 0,156,157
 316 250 316 250 290 193 c 1,158,-1
 271 202 l 1,159,160
 301 267 301 267 399 312 c 0,161,162
 473 344 473 344 512 350 c 0,163,164
 565 360 565 360 589.5 361 c 128,-1,165
 614 362 614 362 667 353 c 1,150,-1
720 247 m 1,166,-1
 719 226 l 1,167,168
 667 228 667 228 627.5 223.5 c 128,-1,169
 588 219 588 219 532 204 c 0,170,171
 489 192 489 192 438 172 c 0,172,173
 390 154 390 154 387 153 c 0,174,175
 382 151 382 151 365 142 c 0,176,177
 345 131 345 131 329 117 c 0,178,179
 280 79 280 79 269 42 c 1,180,-1
 249 47 l 1,181,182
 262 90 262 90 316 133 c 0,183,184
 336 148 336 148 355 160 c 0,185,186
 373 170 373 170 381 173 c 0,187,188
 384 174 384 174 390.5 176.5 c 128,-1,189
 397 179 397 179 408.5 183.5 c 128,-1,190
 420 188 420 188 430 192 c 0,191,192
 476 210 476 210 526 223 c 0,193,194
 584 239 584 239 625.5 244.5 c 128,-1,195
 667 250 667 250 720 247 c 1,166,-1
766 135 m 1,196,-1
 765 114 l 1,197,198
 703 118 703 118 644.5 109.5 c 128,-1,199
 586 101 586 101 556 91 c 128,-1,200
 526 81 526 81 473 61 c 0,201,202
 387 29 387 29 349 7 c 0,203,204
 275 -34 275 -34 266 -76 c 1,205,-1
 246 -72 l 1,206,207
 257 -19 257 -19 338 26 c 0,208,209
 374 46 374 46 466 80 c 0,210,211
 520 101 520 101 550.5 111 c 128,-1,212
 581 121 581 121 642 130 c 128,-1,213
 703 139 703 139 766 135 c 1,196,-1
EndSplineSet
EndChar

StartChar: B
Encoding: 66 66 36
Width: 1024
GlyphClass: 2
Flags: W
LayerCount: 2
Fore
SplineSet
393 532 m 1,0,-1
 408 519 l 1,1,-1
 230 312 l 1,2,-1
 470 312 l 1,3,-1
 616 495 l 1,4,-1
 631 482 l 1,5,-1
 496 312 l 1,6,-1
 770 312 l 1,7,-1
 876 456 l 1,8,-1
 893 444 l 1,9,-1
 796 312 l 1,10,-1
 1024 312 l 1,11,-1
 1024 291 l 1,12,-1
 0 291 l 1,13,-1
 0 312 l 1,14,-1
 202 312 l 1,15,-1
 393 532 l 1,0,-1
EndSplineSet
EndChar

StartChar: C
Encoding: 67 67 37
Width: 1024
GlyphClass: 2
Flags: W
LayerCount: 2
Fore
SplineSet
514 702 m 2,0,-1
 515 702 l 1,1,-1
 516 702 l 2,2,3
 550 699 550 699 581 669 c 0,4,5
 597 653 597 653 596 638 c 0,6,7
 595 628 595 628 587 621 c 0,8,9
 584 618 584 618 574 614 c 1,10,11
 574 614 574 614 576 613 c 0,12,13
 612 593 612 593 625 559 c 0,14,15
 627 554 627 554 631.5 541 c 128,-1,16
 636 528 636 528 637.5 524 c 128,-1,17
 639 520 639 520 643 509.5 c 128,-1,18
 647 499 647 499 648 495 c 128,-1,19
 649 491 649 491 651.5 482.5 c 128,-1,20
 654 474 654 474 655 469.5 c 128,-1,21
 656 465 656 465 657 458 c 128,-1,22
 658 451 658 451 658 446 c 128,-1,23
 658 441 658 441 658 435 c 0,24,25
 658 431 658 431 662 426 c 0,26,27
 674 414 674 414 680 403 c 0,28,29
 705 357 705 357 704 229 c 0,30,31
 703 154 703 154 695 105.5 c 128,-1,32
 687 57 687 57 673 28 c 0,33,34
 664 11 664 11 652 -1 c 128,-1,35
 640 -13 640 -13 631 -18 c 128,-1,36
 622 -23 622 -23 609 -29 c 1,37,-1
 609 -29 l 1,38,39
 598 -33 598 -33 585 -38.5 c 128,-1,40
 572 -44 572 -44 561 -48.5 c 128,-1,41
 550 -53 550 -53 541 -56.5 c 128,-1,42
 532 -60 532 -60 526 -62.5 c 128,-1,43
 520 -65 520 -65 519 -65 c 1,44,-1
 519 -67 l 1,45,-1
 514 -67 l 1,46,-1
 513 -66 l 1,47,-1
 513 -66 l 1,48,49
 459 -45 459 -45 421 -29 c 0,50,51
 377 -10 377 -10 357 28 c 0,52,53
 327 89 327 89 326 229 c 0,54,55
 325 357 325 357 350 404 c 0,56,57
 355 414 355 414 368 427 c 0,58,59
 372 431 372 431 372 435 c 0,60,61
 372 440 372 440 372 445.5 c 128,-1,62
 372 451 372 451 373 458 c 128,-1,63
 374 465 374 465 375 469.5 c 128,-1,64
 376 474 376 474 378.5 482.5 c 128,-1,65
 381 491 381 491 382 495 c 128,-1,66
 383 499 383 499 387 509.5 c 128,-1,67
 391 520 391 520 392.5 524 c 128,-1,68
 394 528 394 528 398.5 541 c 128,-1,69
 403 554 403 554 405 559 c 0,70,71
 418 593 418 593 454 613 c 1,72,73
 454 613 454 613 454 614 c 1,74,-1
 455 614 l 1,75,76
 445 619 445 619 442 622 c 0,77,78
 435 629 435 629 434 639 c 0,79,80
 433 654 433 654 449 670 c 0,81,82
 479 699 479 699 514 702 c 2,0,-1
515 683 m 0,83,84
 504 682 504 682 488 674 c 128,-1,85
 472 666 472 666 462.5 656.5 c 128,-1,86
 453 647 453 647 453 640 c 0,87,88
 453 637 453 637 455 635 c 0,89,90
 459 631 459 631 468 629 c 0,91,92
 475 627 475 627 478 623 c 0,93,94
 479 622 479 622 480 621 c 0,95,96
 482 618 482 618 482 616 c 128,-1,97
 482 614 482 614 481 611 c 0,98,99
 481 610 481 610 480 609 c 128,-1,100
 479 608 479 608 479 607 c 0,101,102
 477 604 477 604 471 602 c 0,103,104
 470 601 470 601 468.5 600 c 128,-1,105
 467 599 467 599 465.5 598.5 c 128,-1,106
 464 598 464 598 463 597 c 0,107,108
 433 580 433 580 423 553 c 0,109,110
 410 518 410 518 404.5 502 c 128,-1,111
 399 486 399 486 394.5 467.5 c 128,-1,112
 390 449 390 449 390.5 436.5 c 128,-1,113
 391 424 391 424 381 414 c 0,114,115
 370 403 370 403 366 395 c 0,116,117
 343 353 343 353 345 229 c 0,118,119
 346 93 346 93 374 37 c 0,120,121
 382 22 382 22 392 12 c 128,-1,122
 402 2 402 2 408.5 -2 c 128,-1,123
 415 -6 415 -6 428 -11 c 0,124,125
 469 -29 469 -29 515 -47 c 1,126,127
 537 -38 537 -38 602 -11 c 0,128,129
 614 -6 614 -6 621 -2 c 128,-1,130
 628 2 628 2 638 12 c 128,-1,131
 648 22 648 22 656 37 c 0,132,133
 685 94 685 94 685 229 c 0,134,135
 686 352 686 352 663 394 c 0,136,137
 659 401 659 401 648 413 c 0,138,139
 638 423 638 423 639 436 c 128,-1,140
 640 449 640 449 635.5 467.5 c 128,-1,141
 631 486 631 486 625.5 501.5 c 128,-1,142
 620 517 620 517 607 553 c 0,143,144
 597 579 597 579 567 596 c 0,145,146
 565 597 565 597 562 598.5 c 128,-1,147
 559 600 559 600 557 601 c 0,148,149
 552 604 552 604 550 607 c 0,150,151
 549 608 549 608 549 609 c 0,152,153
 548 610 548 610 548 611 c 2,154,-1
 548 614 l 1,155,-1
 547 616 l 1,156,-1
 548 619 l 1,157,-1
 549 621 l 2,158,159
 550 622 550 622 552 623 c 0,160,161
 556 626 556 626 562 629 c 0,162,163
 571 632 571 632 574 635 c 0,164,165
 576 637 576 637 577 640 c 0,166,167
 577 646 577 646 567.5 655.5 c 128,-1,168
 558 665 558 665 541.5 673.5 c 128,-1,169
 525 682 525 682 515 683 c 0,83,84
338 225 m 1,170,-1
 340 184 l 1,171,-1
 342 159 l 1,172,-1
 340 160 l 1,173,-1
 340 159 l 1,174,-1
 337 156 l 2,175,176
 298 116 298 116 284 102 c 0,177,178
 284 101 284 101 285 100 c 0,179,180
 286 97 286 97 293 85 c 0,181,182
 303 68 303 68 322 42 c 2,183,-1
 369 -19 l 1,184,-1
 371 -22 l 1,185,-1
 370 -133 l 1,186,-1
 303 -204 l 1,187,-1
 302 -205 l 1,188,-1
 287 -193 l 1,189,-1
 288 -192 l 1,190,-1
 327 -134 l 2,191,192
 327 -133 327 -133 327 -129.5 c 128,-1,193
 327 -126 327 -126 327 -121.5 c 128,-1,194
 327 -117 327 -117 327 -110 c 128,-1,195
 327 -103 327 -103 327 -96 c 0,196,197
 327 -54 327 -54 329 -42 c 1,198,-1
 327 -39 l 2,199,200
 325 -35 325 -35 319 -27 c 0,201,202
 315 -22 315 -22 305.5 -10.5 c 128,-1,203
 296 1 296 1 291 8 c 0,204,205
 247 64 247 64 244 99 c 0,206,207
 241 139 241 139 283 182 c 0,208,209
 289 188 289 188 295 193.5 c 128,-1,210
 301 199 301 199 306 203 c 128,-1,211
 311 207 311 207 315 210 c 128,-1,212
 319 213 319 213 322 215 c 2,213,-1
 324 216 l 1,214,-1
 338 225 l 1,170,-1
320 188 m 1,215,-1
 321 166 l 2,216,217
 320 165 320 165 309 153.5 c 128,-1,218
 298 142 298 142 286 129.5 c 128,-1,219
 274 117 274 117 269 112 c 0,220,221
 265 108 265 108 265 102 c 0,222,223
 265 99 265 99 267 94 c 0,224,225
 269 88 269 88 275 78 c 1,226,227
 274 81 274 81 268.5 89 c 128,-1,228
 263 97 263 97 263 101 c 0,229,230
 261 132 261 132 296 169 c 0,231,232
 304 176 304 176 320 188 c 1,215,-1
277 75 m 1,233,234
 294 34 294 34 306 20 c 0,235,236
 311 14 311 14 320.5 1.5 c 128,-1,237
 330 -11 330 -11 334 -16 c 0,238,239
 341 -25 341 -25 343 -29 c 0,240,241
 348 -37 348 -37 348 -43 c 0,242,243
 347 -55 347 -55 346 -96 c 0,244,245
 346 -106 346 -106 346 -111.5 c 128,-1,246
 346 -117 346 -117 346 -123 c 128,-1,247
 346 -129 346 -129 346 -130 c 1,248,-1
 351 -125 l 1,249,-1
 352 -27 l 1,250,251
 327 4 327 4 307 31 c 0,252,253
 286 59 286 59 277 75 c 1,233,234
323 428 m 0,254,255
 331 429 331 429 343 428 c 2,256,-1
 366 424 l 1,257,-1
 380 421 l 1,258,-1
 366 402 l 1,259,-1
 360 392 l 1,260,-1
 357 387 l 1,261,-1
 356 387 l 1,262,-1
 349 370 l 1,263,-1
 340 373 l 2,264,265
 338 374 338 374 335.5 375 c 128,-1,266
 333 376 333 376 325.5 377 c 128,-1,267
 318 378 318 378 316 375 c 1,268,-1
 316 375 l 1,269,270
 314 373 314 373 312.5 371.5 c 128,-1,271
 311 370 311 370 308 365.5 c 128,-1,272
 305 361 305 361 304 360 c 0,273,274
 288 339 288 339 279 327 c 2,275,-1
 248 281 l 1,276,-1
 247 279 l 1,277,-1
 146 213 l 1,278,-1
 144 212 l 1,279,-1
 133 227 l 1,280,-1
 134 228 l 1,281,-1
 134 229 l 1,282,-1
 220 306 l 1,283,284
 239 333 239 333 257 358 c 0,285,286
 272 379 272 379 286 397 c 0,287,288
 301 417 301 417 305 420 c 0,289,290
 311 427 311 427 323 428 c 0,254,255
326 408.5 m 128,-1,292
 320 408 320 408 318 406 c 0,293,294
 317 405 317 405 304 389 c 1,295,-1
 305 390 l 2,296,297
 306 391 306 391 307 392 c 1,298,-1
 307 392 l 1,299,300
 320 399 320 399 338 391 c 1,301,-1
 344 406 l 1,302,-1
 346 406 l 1,303,-1
 347 408 l 1,304,305
 346 408 346 408 344.5 408.5 c 128,-1,306
 343 409 343 409 341 409 c 0,307,291
 332 409 332 409 326 408.5 c 128,-1,292
278 692 m 1,308,-1
 279 691 l 1,309,-1
 359 637 l 1,310,-1
 372 550 l 1,311,-1
 400 543 l 1,312,-1
 401 543 l 1,313,-1
 415 543 l 1,314,-1
 395 485 l 1,315,-1
 384 494 l 2,316,317
 359 516 359 516 346 529 c 0,318,319
 341 534 341 534 337 552 c 0,320,321
 334 566 334 566 331 584 c 0,322,323
 329 602 329 602 328 621 c 1,324,-1
 268 675 l 1,325,-1
 267 676 l 1,326,-1
 266 677 l 1,327,-1
 278 692 l 1,308,-1
371 531 m 1,328,329
 376 526 376 526 386 518 c 1,330,-1
 390 527 l 1,331,-1
 371 531 l 1,328,329
289 819 m 1,332,-1
 290 819 l 1,333,334
 331 790 331 790 377 774 c 0,335,336
 411 764 411 764 452 724 c 2,337,-1
 487 687 l 1,338,-1
 493 678 l 1,339,-1
 470 664 l 1,340,-1
 466 669 l 2,341,342
 447 687 447 687 424 706 c 0,343,344
 379 743 379 743 361 749 c 0,345,346
 339 756 339 756 306 781 c 0,347,348
 291 792 291 792 278 804 c 1,349,-1
 278 804 l 1,350,-1
 289 819 l 1,332,-1
501 727 m 1,351,-1
 502 708 l 1,352,353
 497 708 497 708 495 707 c 0,354,355
 494 706 494 706 495 702 c 2,356,-1
 498 690 l 1,357,-1
 482 681 l 1,358,359
 477 690 477 690 476 700 c 128,-1,360
 475 710 475 710 481 718 c 0,361,362
 488 726 488 726 501 727 c 1,351,-1
686 225 m 1,363,-1
 700 216 l 2,364,365
 721 203 721 203 741 182 c 0,366,367
 783 139 783 139 780 99 c 0,368,369
 777 63 777 63 733 8 c 0,370,371
 728 1 728 1 718 -11 c 128,-1,372
 708 -23 708 -23 705 -27 c 0,373,374
 699 -35 699 -35 697 -39 c 0,375,376
 696 -40 696 -40 695.5 -41 c 128,-1,377
 695 -42 695 -42 695 -43 c 1,378,-1
 695 -42 l 1,379,380
 696 -47 696 -47 696 -96 c 0,381,382
 696 -103 696 -103 696 -110.5 c 128,-1,383
 696 -118 696 -118 696.5 -122.5 c 128,-1,384
 697 -127 697 -127 697 -130.5 c 128,-1,385
 697 -134 697 -134 697 -135 c 2,386,-1
 735 -192 l 1,387,-1
 736 -192 l 1,388,-1
 736 -193 l 1,389,-1
 722 -205 l 1,390,-1
 721 -204 l 1,391,-1
 654 -133 l 1,392,-1
 653 -22 l 1,393,-1
 655 -19 l 1,394,395
 680 11 680 11 702 42 c 0,396,397
 721 68 721 68 731 85 c 0,398,399
 736 94 736 94 739 100 c 0,400,401
 739 101 739 101 739 102 c 2,402,-1
 687 156 l 1,403,-1
 684 159 l 1,404,-1
 684 160 l 1,405,-1
 682 159 l 1,406,-1
 686 225 l 1,363,-1
704 188 m 1,407,408
 720 176 720 176 728 169 c 0,409,410
 764 132 764 132 761 101 c 0,411,412
 761 97 761 97 755.5 89 c 128,-1,413
 750 81 750 81 749 78 c 1,414,415
 755 88 755 88 757 94 c 0,416,417
 759 99 759 99 759 102 c 0,418,419
 759 108 759 108 755 112 c 0,420,421
 750 117 750 117 738 129.5 c 128,-1,422
 726 142 726 142 714 154 c 2,423,-1
 703 166 l 1,424,-1
 704 188 l 1,407,408
747 75 m 1,425,426
 738 59 738 59 717 31 c 0,427,428
 697 4 697 4 672 -27 c 1,429,-1
 673 -125 l 1,430,-1
 678 -130 l 1,431,432
 678 -128 678 -128 677.5 -117 c 128,-1,433
 677 -106 677 -106 677 -96 c 0,434,435
 677 -49 677 -49 676 -43 c 128,-1,436
 675 -37 675 -37 681 -29 c 0,437,438
 684 -25 684 -25 690 -16 c 0,439,440
 694 -11 694 -11 704 1 c 128,-1,441
 714 13 714 13 718 20 c 0,442,443
 730 34 730 34 747 75 c 1,425,426
681 428 m 0,444,445
 692 429 692 429 701 428 c 0,446,447
 712 427 712 427 718 420 c 0,448,449
 724 415 724 415 738 397 c 0,450,451
 751 380 751 380 767 358 c 0,452,453
 784 335 784 335 804 306 c 1,454,-1
 890 229 l 1,455,-1
 890 228 l 1,456,-1
 891 227 l 1,457,-1
 879 212 l 1,458,-1
 878 213 l 1,459,-1
 777 279 l 1,460,-1
 776 281 l 2,461,462
 761 304 761 304 744 327 c 0,463,464
 730 346 730 346 720 360 c 0,465,466
 714 368 714 368 711 372 c 0,467,468
 710 373 710 373 708 375 c 1,469,-1
 708 375 l 1,470,471
 706 376 706 376 702.5 376.5 c 128,-1,472
 699 377 699 377 696 376.5 c 128,-1,473
 693 376 693 376 690 375.5 c 128,-1,474
 687 375 687 375 685 374 c 2,475,-1
 684 373 l 1,476,-1
 675 370 l 1,477,-1
 668 387 l 1,478,-1
 667 387 l 1,479,-1
 658 402 l 1,480,-1
 643 421 l 1,481,-1
 658 424 l 2,482,483
 669 427 669 427 681 428 c 0,444,445
683 409 m 0,484,485
 681 409 681 409 679.5 408.5 c 128,-1,486
 678 408 678 408 677 408 c 1,487,-1
 678 406 l 1,488,-1
 680 406 l 1,489,-1
 686 391 l 1,490,491
 704 399 704 399 717 392 c 0,492,493
 718 391 718 391 721 388 c 1,494,495
 708 404 708 404 706 406 c 128,-1,496
 704 408 704 408 698 409 c 128,-1,497
 692 410 692 410 683 409 c 0,484,485
747 692 m 1,498,-1
 759 677 l 1,499,-1
 758 676 l 1,500,-1
 699 621 l 1,501,502
 698 601 698 601 696 583.5 c 128,-1,503
 694 566 694 566 690 552 c 0,504,505
 686 534 686 534 681 529 c 2,506,-1
 643 494 l 1,507,-1
 632 485 l 1,508,-1
 618 524 l 1,509,-1
 623 524 l 1,510,-1
 621 543 l 1,511,-1
 623 543 l 1,512,-1
 652 550 l 1,513,-1
 665 637 l 1,514,-1
 746 691 l 1,515,-1
 747 692 l 1,498,-1
677 592 m 1,516,-1
 672 557 l 1,517,518
 675 568 675 568 677 586 c 0,519,520
 677 588 677 588 677 589.5 c 128,-1,521
 677 591 677 591 677 592 c 1,516,-1
657 532 m 1,522,-1
 637 527 l 1,523,-1
 641 517 l 1,524,525
 644 519 644 519 649 524 c 128,-1,526
 654 529 654 529 657 532 c 1,522,-1
737 819 m 1,527,-1
 748 804 l 1,528,-1
 747 804 l 1,529,530
 733 792 733 792 719 781 c 0,531,532
 686 756 686 756 665 749 c 0,533,534
 647 743 647 743 602 706 c 2,535,-1
 560 669 l 1,536,-1
 555 664 l 1,537,-1
 541 673 l 1,538,-1
 532 678 l 1,539,-1
 539 687 l 2,540,541
 553 705 553 705 573 724 c 0,542,543
 614 764 614 764 648 774 c 0,544,545
 695 790 695 790 736 819 c 1,546,-1
 737 819 l 1,527,-1
524 727 m 1,547,548
 538 726 538 726 545 718 c 0,549,550
 551 711 551 711 550 700 c 0,551,552
 550 697 550 697 549 694 c 128,-1,553
 548 691 548 691 547.5 689 c 128,-1,554
 547 687 547 687 546 685 c 128,-1,555
 545 683 545 683 544 682 c 2,556,-1
 544 681 l 1,557,-1
 527 690 l 1,558,559
 530 697 530 697 531 702 c 0,560,561
 531 706 531 706 530 707 c 0,562,563
 529 709 529 709 523 708 c 1,564,-1
 524 727 l 1,547,548
482 669 m 1,565,-1
 482 667 l 1,566,567
 486 662 486 662 483.5 654 c 128,-1,568
 481 646 481 646 473.5 638 c 128,-1,569
 466 630 466 630 457 628 c 128,-1,570
 448 626 448 626 443.5 630.5 c 128,-1,571
 439 635 439 635 442 643.5 c 128,-1,572
 445 652 445 652 453 660 c 0,573,574
 461 669 461 669 469.5 671.5 c 128,-1,575
 478 674 478 674 482 669 c 1,565,-1
543 669 m 1,576,-1
 543 670 l 1,577,578
 548 674 548 674 556.5 671.5 c 128,-1,579
 565 669 565 669 573 661 c 0,580,581
 582 653 582 653 584 644.5 c 128,-1,582
 586 636 586 636 582 632 c 0,583,584
 577 627 577 627 568.5 629 c 128,-1,585
 560 631 560 631 552 639 c 0,586,587
 543 647 543 647 540.5 656 c 128,-1,588
 538 665 538 665 543 669 c 1,576,-1
512 634 m 0,589,590
 524 634 524 634 537 630 c 128,-1,591
 550 626 550 626 557 623 c 2,592,-1
 564 619 l 1,593,-1
 555 603 l 1,594,595
 532 615 532 615 512 615 c 0,596,597
 501 615 501 615 485 609 c 2,598,-1
 470 603 l 1,599,-1
 462 620 l 1,600,601
 469 623 469 623 479 626 c 0,602,603
 498 634 498 634 512 634 c 0,589,590
569 456 m 1,604,-1
 648 456 l 1,605,-1
 648 437 l 1,606,-1
 577 437 l 1,607,-1
 556 416 l 1,608,-1
 523 416 l 1,609,-1
 523 69 l 1,610,-1
 645 9 l 1,611,-1
 637 -8 l 1,612,-1
 513 52 l 1,613,-1
 391 -8 l 1,614,-1
 383 9 l 1,615,-1
 504 68 l 1,616,-1
 504 416 l 1,617,-1
 472 416 l 1,618,-1
 454 434 l 1,619,-1
 377 434 l 1,620,-1
 377 453 l 1,621,-1
 462 453 l 1,622,-1
 480 435 l 1,623,-1
 548 435 l 1,624,-1
 569 456 l 1,604,-1
EndSplineSet
EndChar

StartChar: D
Encoding: 68 68 38
Width: 1024
GlyphClass: 2
Flags: W
LayerCount: 2
Fore
SplineSet
310 690 m 0,0,1
 434 690 434 690 608 550 c 0,2,3
 657 510 657 510 722 450 c 0,4,5
 752 422 752 422 761 413 c 0,6,7
 778 397 778 397 782 394 c 0,8,9
 818 373 818 373 876 380 c 0,10,11
 951 389 951 389 1008 450 c 1,12,-1
 1024 435 l 1,13,14
 1023 434 1023 434 1023 435 c 1,15,16
 1018 430 1018 430 1011.5 422 c 128,-1,17
 1005 414 1005 414 983.5 394 c 128,-1,18
 962 374 962 374 940 357.5 c 128,-1,19
 918 341 918 341 885.5 323 c 128,-1,20
 853 305 853 305 821 297 c 0,21,22
 779 286 779 286 734 285 c 128,-1,23
 689 284 689 284 656.5 288.5 c 128,-1,24
 624 293 624 293 585 304.5 c 128,-1,25
 546 316 546 316 529.5 322.5 c 128,-1,26
 513 329 513 329 487 341 c 1,27,28
 487 326 487 326 482 310 c 128,-1,29
 477 294 477 294 470 280.5 c 128,-1,30
 463 267 463 267 450.5 250.5 c 128,-1,31
 438 234 438 234 428.5 222.5 c 128,-1,32
 419 211 419 211 404 195 c 0,33,34
 320 125 320 125 235 127 c 0,35,36
 191 128 191 128 149.5 146 c 128,-1,37
 108 164 108 164 74.5 195.5 c 128,-1,38
 41 227 41 227 20.5 277.5 c 128,-1,39
 0 328 0 328 0 389 c 0,40,41
 0 522 0 522 80 604 c 0,42,43
 164 690 164 690 310 690 c 0,0,1
310 669 m 0,44,45
 173 669 173 669 95 589 c 0,46,47
 21 513 21 513 21 389 c 0,48,49
 21 332 21 332 39.5 285 c 128,-1,50
 58 238 58 238 89 209.5 c 128,-1,51
 120 181 120 181 157.5 165.5 c 128,-1,52
 195 150 195 150 235 148 c 0,53,54
 273 147 273 147 314 164.5 c 128,-1,55
 355 182 355 182 390 211 c 0,56,57
 412 229 412 229 428.5 250.5 c 128,-1,58
 445 272 445 272 454.5 293.5 c 128,-1,59
 464 315 464 315 464 335 c 1,60,-1
 308 274 l 1,61,62
 258 287 258 287 230 317 c 0,63,64
 195 357 195 357 195 402 c 0,65,66
 195 448 195 448 227 477 c 0,67,68
 260 507 260 507 315 508 c 0,69,70
 375 508 375 508 429 460 c 1,71,72
 460 426 460 426 467 404 c 2,73,-1
 483 361 l 1,74,75
 672 279 672 279 816 317 c 0,76,77
 863 330 863 330 922 370 c 1,78,79
 891 359 891 359 858.5 358.5 c 128,-1,80
 826 358 826 358 805 363 c 128,-1,81
 784 368 784 368 771 376 c 1,82,-1
 771 377 l 1,83,84
 763 382 763 382 746 397 c 0,85,86
 739 403 739 403 707 434 c 0,87,88
 645 493 645 493 595 533 c 0,89,90
 427 669 427 669 310 669 c 0,44,45
315 487 m 0,91,92
 268 487 268 487 242 462 c 0,93,94
 217 439 217 439 217 402 c 128,-1,95
 217 365 217 365 247 331 c 128,-1,96
 277 297 277 297 308 299 c 2,97,-1
 313 299 l 1,98,-1
 458 355 l 1,99,100
 448 413 448 413 415 444 c 0,101,102
 366 487 366 487 315 487 c 0,91,92
EndSplineSet
EndChar

StartChar: E
Encoding: 69 69 39
Width: 1024
GlyphClass: 2
Flags: W
LayerCount: 2
Fore
SplineSet
485 819 m 1,0,1
 485 818 485 818 485 819 c 1,2,-1
 486 819 l 1,3,4
 486 819 486 819 486 818 c 0,5,6
 487 817 487 817 487 816 c 0,7,8
 493 811 493 811 500 805 c 128,-1,9
 507 799 507 799 527.5 777.5 c 128,-1,10
 548 756 548 756 564 734.5 c 128,-1,11
 580 713 580 713 598 680.5 c 128,-1,12
 616 648 616 648 624 617 c 0,13,14
 651 513 651 513 636 411 c 0,15,16
 622 319 622 319 585 291 c 1,17,-1
 577 282 l 1,18,19
 578 282 578 282 579.5 282.5 c 128,-1,20
 581 283 581 283 582 283 c 0,21,22
 606 283 606 283 632.5 272 c 128,-1,23
 659 261 659 261 682 242.5 c 128,-1,24
 705 224 705 224 726 199 c 0,25,26
 796 115 796 115 794 30 c 0,27,28
 793 -14 793 -14 775 -55.5 c 128,-1,29
 757 -97 757 -97 725 -130.5 c 128,-1,30
 693 -164 693 -164 643 -184.5 c 128,-1,31
 593 -205 593 -205 532 -205 c 0,32,33
 399 -205 399 -205 317 -125 c 0,34,35
 230 -41 230 -41 230 105 c 0,36,37
 230 229 230 229 370 404 c 0,38,39
 410 453 410 453 471 517 c 0,40,41
 476 523 476 523 489 536.5 c 128,-1,42
 502 550 502 550 508 556 c 0,43,44
 523 572 523 572 526 577 c 0,45,46
 548 613 548 613 541 672 c 0,47,48
 532 747 532 747 471 803 c 1,49,-1
 485 819 l 1,0,1
568 688 m 2,50,-1
 550 714 l 1,51,52
 564 676 564 676 560 631 c 128,-1,53
 556 586 556 586 544 566 c 0,54,55
 539 559 539 559 523 541 c 0,56,57
 517 535 517 535 504.5 521.5 c 128,-1,58
 492 508 492 508 486 503 c 0,59,60
 427 440 427 440 387 390 c 0,61,62
 251 221 251 221 252 105 c 0,63,64
 252 -32 252 -32 332 -110 c 0,65,66
 408 -184 408 -184 532 -183 c 0,67,68
 589 -183 589 -183 635.5 -165 c 128,-1,69
 682 -147 682 -147 711 -116 c 128,-1,70
 740 -85 740 -85 755.5 -47.5 c 128,-1,71
 771 -10 771 -10 772 30 c 0,72,73
 773 68 773 68 756 109.5 c 128,-1,74
 739 151 739 151 710 186 c 0,75,76
 699 200 699 200 686 211.5 c 128,-1,77
 673 223 673 223 660 232 c 128,-1,78
 647 241 647 241 633.5 248 c 128,-1,79
 620 255 620 255 607 258.5 c 128,-1,80
 594 262 594 262 582 262 c 0,81,82
 568 262 568 262 552 258 c 2,83,-1
 545 257 l 1,84,-1
 542 278 l 1,85,86
 566 302 566 302 572 308 c 0,87,88
 580 315 580 315 588 328.5 c 128,-1,89
 596 342 596 342 603.5 365 c 128,-1,90
 611 388 611 388 615 414 c 0,91,92
 629 507 629 507 602 610 c 0,93,94
 599 622 599 622 595 633 c 128,-1,95
 591 644 591 644 588.5 649.5 c 128,-1,96
 586 655 586 655 578.5 668 c 128,-1,97
 571 681 571 681 568 688 c 2,50,-1
EndSplineSet
EndChar

StartChar: F
Encoding: 70 70 40
Width: 1024
GlyphClass: 2
Flags: W
LayerCount: 2
Fore
SplineSet
422 621 m 0,0,1
 479 623 479 623 539 597 c 0,2,3
 565 586 565 586 584 573 c 0,4,5
 602 560 602 560 609 546 c 1,6,7
 609 546 609 546 609 546 c 1,8,9
 609 545 609 545 610 545 c 0,10,11
 617 525 617 525 611 481 c 0,12,13
 609 463 609 463 608 454 c 1,14,15
 846 454 846 454 909 453 c 0,16,17
 961 452 961 452 994 411 c 0,18,19
 1021 378 1021 378 1024 336 c 1,20,-1
 1024 336 l 1,21,22
 1026 294 1026 294 1007 261 c 0,23,24
 983 220 983 220 933 219 c 0,25,26
 897 218 897 218 544 218 c 0,27,28
 472 218 472 218 375 218.5 c 128,-1,29
 278 219 278 219 218 219 c 128,-1,30
 158 219 158 219 139 219 c 0,31,32
 70 219 70 219 36 250 c 128,-1,33
 2 281 2 281 1 344 c 1,34,-1
 0 344 l 1,35,-1
 0 345 l 1,36,-1
 1 346 l 1,37,38
 2 407 2 407 43 440 c 0,39,40
 78 467 78 467 123 467 c 0,41,42
 128 467 128 467 163.5 466 c 128,-1,43
 199 465 199 465 218 466 c 0,44,45
 247 467 247 467 262 471 c 0,46,47
 278 475 278 475 282 481 c 0,48,49
 286 488 286 488 292 498.5 c 128,-1,50
 298 509 298 509 302.5 517.5 c 128,-1,51
 307 526 307 526 312.5 535 c 128,-1,52
 318 544 318 544 324 553 c 128,-1,53
 330 562 330 562 336 570 c 0,54,55
 337 571 337 571 339 573 c 2,56,-1
 341 575 l 1,57,58
 341 575 341 575 342 576 c 0,59,60
 342 578 342 578 342 579 c 1,61,-1
 343 578 l 1,62,63
 379 619 379 619 422 621 c 0,0,1
423 600 m 0,64,65
 388 598 388 598 359 565 c 0,66,67
 356 559 356 559 360 552 c 0,68,69
 366 543 366 543 383 535 c 0,70,71
 420 517 420 517 449 519 c 0,72,73
 452 519 452 519 488.5 520 c 128,-1,74
 525 521 525 521 543 524 c 0,75,76
 567 527 567 527 579 533 c 0,77,78
 584 536 584 536 586 539 c 2,79,-1
 586 540 l 2,80,81
 587 541 587 541 587 542 c 0,82,83
 582 549 582 549 572 556 c 0,84,85
 554 569 554 569 531 578 c 0,86,87
 475 602 475 602 423 600 c 0,64,65
342 541 m 1,88,89
 336 532 336 532 300 471 c 0,90,91
 292 457 292 457 267 451 c 0,92,93
 247 446 247 446 219 445 c 0,94,95
 198 444 198 444 162.5 445 c 128,-1,96
 127 446 127 446 123 446 c 0,97,98
 122 446 122 446 118 446 c 2,99,-1
 116 446 l 1,100,101
 125 436 125 436 130 421 c 0,102,103
 143 387 143 387 143 347 c 0,104,105
 143 292 143 292 135 263 c 0,106,107
 131 250 131 250 124 240 c 1,108,109
 124 240 124 240 139 239 c 0,110,111
 158 239 158 239 218 239 c 128,-1,112
 278 239 278 239 375.5 239 c 128,-1,113
 473 239 473 239 545 239 c 0,114,115
 897 239 897 239 932 239 c 0,116,117
 970 240 970 240 989 272 c 0,118,119
 1004 298 1004 298 1004 335 c 0,120,121
 1001 370 1001 370 978 398 c 0,122,123
 951 431 951 431 908 432 c 2,124,-1
 595 434 l 1,125,-1
 583 434 l 1,126,-1
 585 446 l 2,127,128
 589 463 589 463 591 483 c 0,129,130
 593 500 593 500 592 518 c 1,131,132
 592 518 592 518 588 515 c 0,133,134
 574 508 574 508 545 504 c 0,135,136
 526 502 526 502 489 500.5 c 128,-1,137
 452 499 452 499 450 499 c 0,138,139
 414 497 414 497 374 516 c 0,140,141
 352 527 352 527 342 541 c 1,142,143
 342 541 342 541 342 541 c 1,88,89
91 440 m 0,144,145
 88 441 88 441 85 439 c 0,146,147
 68 433 68 433 56 424 c 0,148,149
 22 397 22 397 21 344 c 0,150,151
 23 290 23 290 49 266 c 0,152,153
 64 252 64 252 91 245 c 0,154,155
 99 242 99 242 104 247 c 0,156,157
 111 253 111 253 115 269 c 0,158,159
 122 295 122 295 123 347 c 0,160,161
 123 383 123 383 111 413 c 0,162,163
 105 429 105 429 97 436 c 0,164,165
 93 439 93 439 91 440 c 0,144,145
207 409 m 1,166,-1
 361 409 l 1,167,-1
 361 389 l 1,168,-1
 207 389 l 1,169,-1
 207 409 l 1,166,-1
852 383 m 1,170,-1
 852 362 l 1,171,-1
 698 361 l 1,172,-1
 698 381 l 1,173,-1
 852 383 l 1,170,-1
429 302 m 1,174,-1
 624 302 l 1,175,-1
 624 282 l 1,176,-1
 429 282 l 1,177,-1
 429 302 l 1,174,-1
EndSplineSet
EndChar

StartChar: G
Encoding: 71 71 41
Width: 1024
GlyphClass: 2
Flags: W
LayerCount: 2
Fore
SplineSet
197 681 m 2,0,-1
 201 681 l 1,1,-1
 205 677 l 1,2,-1
 199 680 l 1,3,4
 225 680 225 680 249 671 c 128,-1,5
 273 662 273 662 286 652 c 128,-1,6
 299 642 299 642 314 627 c 128,-1,7
 329 612 329 612 332 610 c 0,8,9
 356 593 356 593 375 589 c 0,10,11
 410 581 410 581 472 595 c 0,12,13
 501 601 501 601 527 602.5 c 128,-1,14
 553 604 553 604 576.5 601 c 128,-1,15
 600 598 600 598 626 589 c 128,-1,16
 652 580 652 580 677.5 567 c 128,-1,17
 703 554 703 554 736 534 c 0,18,19
 762 518 762 518 780 493.5 c 128,-1,20
 798 469 798 469 805 448 c 128,-1,21
 812 427 812 427 814.5 401 c 128,-1,22
 817 375 817 375 816.5 366.5 c 128,-1,23
 816 358 816 358 815 347 c 1,24,25
 827 346 827 346 851 346 c 0,26,27
 858 346 858 346 865 354 c 128,-1,28
 872 362 872 362 881 377 c 0,29,30
 887 389 887 389 897.5 415 c 128,-1,31
 908 441 908 441 911 448 c 0,32,33
 927 485 927 485 964 512 c 0,34,35
 982 525 982 525 994 528 c 0,36,37
 1002 530 1002 530 1009 528 c 0,38,39
 1017 526 1017 526 1022 519 c 0,40,41
 1026 513 1026 513 1023 504 c 0,42,43
 1021 499 1021 499 1017 491 c 0,44,45
 1014 486 1014 486 994 459 c 0,46,47
 956 406 956 406 944 364 c 0,48,49
 930 318 930 318 882 292 c 0,50,51
 847 273 847 273 817 274 c 0,52,53
 811 274 811 274 808 271 c 128,-1,54
 805 268 805 268 801 259 c 0,55,56
 782 220 782 220 782 218 c 1,57,-1
 782 218 l 1,58,59
 768 198 768 198 714 165 c 0,60,61
 689 150 689 150 636 123 c 0,62,63
 607 108 607 108 555 115 c 0,64,65
 531 118 531 118 517 124 c 0,66,67
 509 128 509 128 503 133 c 0,68,69
 497 139 497 139 496 146 c 0,70,71
 495 155 495 155 501 162 c 0,72,73
 506 167 506 167 515 172 c 0,74,75
 528 179 528 179 553 185 c 0,76,77
 569 189 569 189 590 193 c 1,78,79
 578 201 578 201 571 207 c 0,80,81
 543 229 543 229 512 237 c 0,82,83
 498 241 498 241 490 238 c 0,84,85
 485 237 485 237 485 232 c 0,86,87
 482 206 482 206 455 166 c 0,88,89
 443 148 443 148 432 137 c 0,90,91
 417 123 417 123 405 123 c 0,92,93
 396 123 396 123 381.5 123 c 128,-1,94
 367 123 367 123 358 122.5 c 128,-1,95
 349 122 349 122 337 123 c 0,96,97
 320 124 320 124 311 126 c 0,98,99
 305 128 305 128 302 132 c 0,100,101
 297 138 297 138 300 145 c 0,102,103
 305 157 305 157 319 163 c 0,104,105
 324 165 324 165 343 169 c 0,106,107
 356 172 356 172 361 175 c 0,108,109
 367 179 367 179 367 186 c 0,110,111
 368 201 368 201 344 243 c 0,112,113
 317 291 317 291 315 308 c 0,114,115
 314 317 314 317 300 336 c 0,116,117
 288 352 288 352 266 375 c 0,118,119
 261 380 261 380 254 387 c 128,-1,120
 247 394 247 394 241 400 c 128,-1,121
 235 406 235 406 231 411 c 0,122,123
 226 417 226 417 218 425 c 0,124,125
 212 432 212 432 210 436 c 0,126,127
 209 439 209 439 201.5 442.5 c 128,-1,128
 194 446 194 446 176 452 c 0,129,130
 120 469 120 469 83 488 c 0,131,132
 36 512 36 512 27 535 c 0,133,134
 26 538 26 538 25 541 c 128,-1,135
 24 544 24 544 23.5 546.5 c 128,-1,136
 23 549 23 549 23 550 c 0,137,138
 22 555 22 555 17 558 c 0,139,140
 12 562 12 562 8.5 566 c 128,-1,141
 5 570 5 570 3 574 c 0,142,143
 -2 583 -2 583 1 593 c 0,144,145
 6 608 6 608 37 631 c 0,146,147
 102 679 102 679 197 681 c 2,0,-1
195 664 m 1,148,149
 105 661 105 661 47 618 c 0,150,151
 21 599 21 599 17 588 c 0,152,153
 16 585 16 585 18 581 c 128,-1,154
 20 577 20 577 27 572 c 0,155,156
 36 565 36 565 39 554 c 0,157,158
 40 552 40 552 40.5 547.5 c 128,-1,159
 41 543 41 543 42 541 c 0,160,161
 49 524 49 524 91 502 c 0,162,163
 127 484 127 484 181 468 c 0,164,165
 199 462 199 462 209 458 c 0,166,167
 223 452 223 452 226 442 c 1,168,-1
 231 436 l 2,169,170
 239 427 239 427 243 422 c 0,171,172
 248 417 248 417 259.5 405 c 128,-1,173
 271 393 271 393 278 386 c 0,174,175
 301 362 301 362 313 346 c 0,176,177
 330 324 330 324 331 310 c 0,178,179
 333 297 333 297 358 251 c 0,180,181
 384 205 384 205 383 186 c 0,182,183
 382 170 382 170 370 161 c 0,184,185
 362 156 362 156 346 153 c 0,186,187
 328 149 328 149 325 148 c 0,188,189
 321 146 321 146 318 141 c 1,190,191
 324 139 324 139 337 139 c 0,192,193
 348 139 348 139 372 139.5 c 128,-1,194
 396 140 396 140 405 140 c 0,195,196
 411 140 411 140 420 149 c 0,197,198
 430 159 430 159 441 175 c 0,199,200
 465 211 465 211 468 234 c 0,201,202
 470 250 470 250 487 254 c 0,203,204
 499 257 499 257 517 253 c 0,205,206
 550 244 550 244 581 220 c 2,207,-1
 614 196 l 1,208,-1
 633 184 l 1,209,-1
 611 180 l 2,210,211
 584 176 584 176 558 169 c 0,212,213
 534 163 534 163 523 157 c 0,214,215
 516 153 516 153 513 150 c 0,216,217
 511 148 511 148 512 148 c 1,218,219
 512 147 512 147 514 145 c 0,220,221
 517 142 517 142 523 139 c 0,222,223
 535 134 535 134 557 131 c 0,224,225
 604 125 604 125 628 138 c 0,226,227
 679 165 679 165 705 180 c 0,228,229
 757 211 757 211 768 227 c 0,230,231
 773 235 773 235 779 250 c 128,-1,232
 785 265 785 265 786 267 c 0,233,234
 791 278 791 278 798 283 c 0,235,236
 806 290 806 290 817 290 c 0,237,238
 844 290 844 290 875 307 c 0,239,240
 916 329 916 329 928 369 c 0,241,242
 940 413 940 413 981 469 c 0,243,244
 998 493 998 493 1003 500 c 0,245,246
 1007 506 1007 506 1008 509 c 2,247,-1
 1008 510 l 2,248,249
 1007 512 1007 512 1005 512 c 0,250,251
 1002 513 1002 513 998 512 c 0,252,253
 989 510 989 510 974 499 c 0,254,255
 942 475 942 475 926 441 c 0,256,257
 923 434 923 434 918.5 423.5 c 128,-1,258
 914 413 914 413 911 405 c 128,-1,259
 908 397 908 397 903.5 387 c 128,-1,260
 899 377 899 377 895 370 c 0,261,262
 886 352 886 352 877 342 c 0,263,264
 865 329 865 329 851 330 c 2,265,-1
 810 331 l 1,266,-1
 802 332 l 1,267,-1
 803 340 l 2,268,269
 803 345 803 345 803.5 354 c 128,-1,270
 804 363 804 363 801.5 388 c 128,-1,271
 799 413 799 413 792 434.5 c 128,-1,272
 785 456 785 456 768.5 481 c 128,-1,273
 752 506 752 506 728 520 c 0,274,275
 686 545 686 545 657 559 c 128,-1,276
 628 573 628 573 598 580.5 c 128,-1,277
 568 588 568 588 539.5 587.5 c 128,-1,278
 511 587 511 587 475 579 c 0,279,280
 409 565 409 565 371 573 c 0,281,282
 349 578 349 578 322 597 c 1,283,-1
 322 597 l 1,284,285
 317 601 317 601 306.5 611 c 128,-1,286
 296 621 296 621 286.5 629 c 128,-1,287
 277 637 277 637 264 645.5 c 128,-1,288
 251 654 251 654 234 659 c 128,-1,289
 217 664 217 664 199 663 c 2,290,-1
 195 663 l 1,291,-1
 195 664 l 1,148,149
160 587 m 0,292,293
 160 579 160 579 154 573.5 c 128,-1,294
 148 568 148 568 140 568 c 0,295,296
 136 568 136 568 132.5 569.5 c 128,-1,297
 129 571 129 571 126.5 573.5 c 128,-1,298
 124 576 124 576 122.5 579.5 c 128,-1,299
 121 583 121 583 121 587 c 0,300,301
 121 595 121 595 126.5 600.5 c 128,-1,302
 132 606 132 606 140 606 c 0,303,304
 145 606 145 606 149.5 603.5 c 128,-1,305
 154 601 154 601 157 596.5 c 128,-1,306
 160 592 160 592 160 587 c 0,292,293
312 546 m 1,307,308
 315 505 315 505 272 468 c 0,309,310
 255 453 255 453 236 446 c 0,311,312
 216 438 216 438 204 442 c 1,313,-1
 209 457 l 1,314,315
 215 455 215 455 230 461 c 0,316,317
 246 468 246 468 261 480 c 0,318,319
 298 512 298 512 295 545 c 1,320,-1
 312 546 l 1,307,308
363 543 m 1,321,-1
 369 528 l 1,322,323
 352 520 352 520 341 494 c 0,324,325
 331 472 331 472 328 437 c 0,326,327
 324 393 324 393 329 322 c 1,328,-1
 312 320 l 1,329,330
 307 393 307 393 311 439 c 0,331,332
 315 477 315 477 326 501 c 0,333,334
 340 532 340 532 363 543 c 1,321,-1
459 381 m 1,335,336
 484 362 484 362 489 311 c 0,337,338
 493 270 493 270 484 232 c 1,339,-1
 468 236 l 1,340,341
 477 271 477 271 473 310 c 0,342,343
 468 353 468 353 449 368 c 1,344,-1
 459 381 l 1,335,336
692 373 m 1,345,-1
 694 357 l 1,346,347
 667 355 667 355 643 334.5 c 128,-1,348
 619 314 619 314 604 286 c 0,349,350
 590 260 590 260 588 235 c 0,351,352
 586 214 586 214 595 208 c 1,353,-1
 586 195 l 1,354,355
 569 206 569 206 572 237 c 0,356,357
 574 264 574 264 590 293 c 0,358,359
 607 325 607 325 633 347.5 c 128,-1,360
 659 370 659 370 692 373 c 1,345,-1
EndSplineSet
EndChar

StartChar: H
Encoding: 72 72 42
Width: 1024
GlyphClass: 2
Flags: W
LayerCount: 2
Fore
SplineSet
502 819 m 1,0,-1
 524 819 l 1,1,-1
 524 326 l 1,2,-1
 950 571 l 1,3,-1
 961 552 l 1,4,-1
 533 306 l 1,5,-1
 948 39 l 1,6,-1
 936 21 l 1,7,-1
 524 286 l 1,8,-1
 524 -205 l 1,9,-1
 502 -205 l 1,10,-1
 502 288 l 1,11,-1
 74 41 l 1,12,-1
 63 60 l 1,13,-1
 491 307 l 1,14,-1
 75 575 l 1,15,-1
 87 594 l 1,16,-1
 502 326 l 1,17,-1
 502 819 l 1,0,-1
EndSplineSet
EndChar

StartChar: I
Encoding: 73 73 43
Width: 1024
GlyphClass: 2
Flags: W
LayerCount: 2
Fore
SplineSet
496 811 m 0,0,1
 507 819 507 819 508 819 c 2,2,-1
 519 819 l 1,3,4
 707 677 707 677 736 656 c 0,5,6
 823 591 823 591 890 540 c 0,7,8
 924 515 924 515 946 500 c 0,9,10
 967 485 967 485 974 480 c 0,11,12
 998 467 998 467 1014 414 c 1,13,-1
 1024 367 l 1,14,-1
 1024 366 l 1,15,-1
 1024 366 l 1,16,17
 1024 237 1024 237 984 130 c 128,-1,18
 944 23 944 23 874 -47.5 c 128,-1,19
 804 -118 804 -118 711 -156.5 c 128,-1,20
 618 -195 618 -195 513 -195 c 2,21,-1
 511 -195 l 2,22,23
 405 -195 405 -195 312 -156.5 c 128,-1,24
 219 -118 219 -118 149.5 -47.5 c 128,-1,25
 80 23 80 23 40 130 c 128,-1,26
 0 237 0 237 0 366 c 1,27,-1
 0 366 l 1,28,-1
 0 367 l 2,29,30
 3 389 3 389 10 414 c 0,31,32
 25 467 25 467 50 480 c 0,33,34
 57 484 57 484 78 499 c 0,35,36
 102 516 102 516 134 540 c 0,37,38
 171 567 171 567 289 655 c 0,39,40
 436 766 436 766 496 811 c 0,0,1
514 798 m 1,41,42
 384 700 384 700 302 639 c 0,43,44
 212 572 212 572 146 523 c 0,45,46
 114 499 114 499 90 482 c 128,-1,47
 66 465 66 465 60 462 c 0,48,49
 43 453 43 453 31 408 c 0,50,51
 24 383 24 383 21 366 c 0,52,53
 21 293 21 293 34 227.5 c 128,-1,54
 47 162 47 162 71 108.5 c 128,-1,55
 95 55 95 55 128.5 9.5 c 128,-1,56
 162 -36 162 -36 204 -69.5 c 128,-1,57
 246 -103 246 -103 295 -126.5 c 128,-1,58
 344 -150 344 -150 398.5 -162 c 128,-1,59
 453 -174 453 -174 511 -174 c 2,60,-1
 513 -174 l 2,61,62
 615 -174 615 -174 704 -137.5 c 128,-1,63
 793 -101 793 -101 859.5 -33.5 c 128,-1,64
 926 34 926 34 964.5 137 c 128,-1,65
 1003 240 1003 240 1003 365 c 0,66,67
 1001 384 1001 384 993 408 c 0,68,69
 980 453 980 453 964 462 c 0,70,71
 957 466 957 466 933 483 c 0,72,73
 912 498 912 498 878 524 c 0,74,75
 810 574 810 574 723 639 c 0,76,77
 650 694 650 694 514 798 c 1,41,42
497 727 m 1,78,-1
 507 717 l 1,79,-1
 517 727 l 1,80,-1
 987 258 l 1,81,-1
 971 243 l 1,82,-1
 532 682 l 1,83,-1
 871 18 l 1,84,-1
 852 9 l 1,85,-1
 520 660 l 1,86,-1
 666 -130 l 1,87,-1
 646 -134 l 1,88,-1
 506 620 l 1,89,-1
 367 -134 l 1,90,-1
 346 -130 l 1,91,-1
 492 655 l 1,92,-1
 160 9 l 1,93,-1
 141 18 l 1,94,-1
 483 683 l 1,95,-1
 42 243 l 1,96,-1
 28 258 l 1,97,-1
 497 727 l 1,78,-1
507 708 m 1,98,-1
 503 704 l 1,99,-1
 507 702 l 1,100,-1
 510 704 l 1,101,-1
 507 708 l 1,98,-1
507 686 m 1,102,-1
 499 670 l 1,103,-1
 506 669 l 1,104,-1
 515 670 l 1,105,-1
 507 686 l 1,102,-1
561 762 m 1,106,-1
 592 762 l 2,107,108
 637 762 637 762 697 759 c 0,109,110
 809 754 809 754 844 741 c 0,111,112
 874 730 874 730 891 693 c 0,113,114
 903 665 903 665 909 619 c 0,115,116
 915 568 915 568 912 518 c 2,117,-1
 911 500 l 1,118,-1
 895 511 l 1,119,120
 780 595 780 595 586 743 c 2,121,-1
 561 762 l 1,106,-1
432 760 m 1,122,-1
 463 760 l 1,123,-1
 439 741 l 1,124,125
 238 589 238 589 129 510 c 2,126,-1
 113 499 l 1,127,-1
 112 518 l 2,128,129
 109 565 109 565 115 615 c 0,130,131
 120 660 120 660 133 690 c 0,132,133
 150 729 150 729 180 739 c 0,134,135
 216 752 216 752 328 758 c 2,136,-1
 432 760 l 1,122,-1
626 740 m 1,137,138
 836 581 836 581 891 540 c 1,139,140
 893 585 893 585 888 617 c 0,141,142
 883 658 883 658 871 684 c 0,143,144
 858 714 858 714 837 722 c 0,145,146
 805 734 805 734 696 738 c 0,147,148
 670 740 670 740 626 740 c 1,137,138
399 738 m 1,149,150
 356 738 356 738 329 737 c 0,151,152
 220 732 220 732 187 720 c 1,153,-1
 187 720 l 1,154,155
 166 713 166 713 152 681 c 0,156,157
 140 654 140 654 136 613 c 0,158,159
 132 580 132 580 133 540 c 1,160,161
 218 602 218 602 399 738 c 1,149,150
EndSplineSet
EndChar

